<svg width="81" height="38" viewBox="0 0 81 38" fill="none" xmlns="http://www.w3.org/2000/svg"><path d="M61.065 28.771c-.899-.025-1.797-.076-2.695-.072-2.132.008-4.264.04-6.395.065-.304.004-.61-.002-.913.018-.49.033-.977.065-1.447.259-.39.16-.823.23-1.23.044-.405-.185-.82-.16-1.239-.136-.882.05-1.764.115-2.647.158-1.052.05-1.045.05-1.768.85-.251.278-.528.54-.828.763-.335.25-.586.213-.812-.042-.196-.221-.17-.473.085-.777.112-.134.234-.26.342-.395.104-.132.069-.222-.104-.215-.23.01-.462.043-.693.06-.433.035-.87.047-1.3.106-.19.026-.4.105-.544.227-1.255 1.075-2.547 2.108-3.682 3.313-.547.58-1.089 1.162-1.636 1.742a4.315 4.315 0 0 1-.408.391c-.274.222-.684.228-.877.027-.178-.187-.174-.51.065-.792.467-.553.947-1.097 1.442-1.627.85-.912 1.717-1.808 2.577-2.711.03-.031.069-.06.086-.097.027-.058.04-.124.057-.187-.055-.011-.112-.037-.166-.033-.691.055-1.383.11-2.074.174-.562.052-1.121.127-1.683.17-.258.018-.47.1-.676.253-1.601 1.197-3.22 2.372-4.807 3.587-1.348 1.03-2.66 2.105-3.988 3.16-.159.127-.311.263-.48.373-.295.191-.602.148-.78-.088-.204-.273-.155-.553.12-.805a1385.766 1385.766 0 0 0 6.183-5.735c.101-.094.178-.215.266-.323-.15-.006-.3-.03-.447-.017-.692.066-1.382.147-2.074.212-1.456.137-2.912.265-4.369.4-.966.09-1.933.18-2.899.284-1.282.138-2.561.293-3.842.432-1.454.159-2.91.31-4.365.462-.504.053-1.01.093-1.513.154-.38.046-.654-.127-.851-.415-.269-.392.043-.925.567-.958.506-.032 1.016-.004 1.522-.035.737-.044 1.47-.118 2.205-.18.029-.003.057-.014.086-.016.932-.069 1.866-.125 2.798-.208.648-.058 1.292-.162 1.94-.225 1.124-.11 2.249-.203 3.374-.305 1.109-.1 2.218-.204 3.328-.305.187-.017.375-.021.563-.036 1.01-.082 2.019-.168 3.029-.245a44.426 44.426 0 0 1 1.638-.098 1.66 1.66 0 0 0 1.095-.446c1.389-1.25 2.795-2.48 4.195-3.718.27-.24.544-.477.808-.726.065-.06.094-.16.14-.241-.078-.029-.154-.073-.234-.083-.791-.094-1.583-.18-2.374-.273-1.137-.132-2.272-.272-3.41-.399-.69-.077-1.383-.135-2.075-.207-1.237-.13-2.472-.265-3.708-.392-.476-.05-.953-.08-1.43-.123-.634-.058-1.268-.119-1.902-.178-1.227-.114-2.453-.236-3.68-.34-.91-.077-1.82-.13-2.73-.193-1.257-.088-2.516-.167-3.772-.264-1.632-.128-3.263-.25-4.89-.418-.703-.073-1.401-.232-2.091-.396a4.033 4.033 0 0 1-1.613-.822c-.52-.423-.664-1.056.078-1.475.808-.455 1.623-.912 2.476-1.267a93.842 93.842 0 0 1 4.465-1.705c1.538-.549 3.094-1.05 4.646-1.56.645-.211 1.292-.443 1.956-.568 1.042-.196 2.012-.621 3.04-.857 1.067-.245 2.124-.536 3.19-.787.533-.127 1.078-.207 1.615-.32.45-.096.895-.22 1.346-.313.661-.135 1.325-.254 1.99-.377.24-.045.484-.079.725-.12.825-.143 1.647-.294 2.473-.43.583-.097 1.17-.17 1.755-.262.525-.084 1.047-.197 1.574-.268.583-.078 1.17-.115 1.755-.184.197-.023.388-.113.586-.129.374-.029.75-.016 1.124-.042.17-.012.333-.092.502-.116.674-.093 1.349-.177 2.023-.261.488-.06.974-.123 1.463-.167.33-.03.666-.017.997-.045.617-.051 1.233-.12 1.85-.18.614-.058 1.23-.116 1.845-.168a68.83 68.83 0 0 1 1.64-.118c.113-.007.228.037.343.051.112.014.23.046.338.025.956-.185 1.927-.147 2.891-.202.613-.034 1.221.03 1.842-.054.601-.082 1.228.045 1.845.051.327.003.655-.06.983-.088.143-.012.295-.05.427-.016.684.18 1.376-.069 2.062.055.131.024.3-.087.433-.168 1.683-1.027 3.361-2.064 5.044-3.092a718.043 718.043 0 0 1 4.5-2.727c.608-.366 1.229-.71 1.848-1.058.138-.078.286-.141.437-.192.212-.07.375.02.467.21.093.19.062.369-.129.493-.06.04-.125.073-.188.11-1.83 1.061-3.663 2.117-5.486 3.189-.85.499-1.676 1.04-2.523 1.543-.673.399-1.363.77-2.044 1.155-.138.078-.281.155-.404.255-.08.065-.127.17-.19.258.091.028.182.078.273.08.577.009 1.154 0 1.731.014.182.004.363.08.546.09.358.019.717.016 1.075.019.115 0 .237-.036.345-.01.74.178 1.495.1 2.242.15.057.005.12-.007.173.011.71.251 1.465.08 2.184.244l.378.084c.154.035.312.113.46.098.581-.059 1.104.171 1.65.286.425.088.862.117 1.283.216.59.137 1.178.292 1.753.482.466.153.913.365 1.366.557.842.358 1.557.92 1.962 1.718.676 1.337.62 2.307-.238 3.26-.708.785-1.54 1.41-2.436 1.948-2.304 1.386-4.747 2.494-7.201 3.582-1.193.529-2.374 1.083-3.561 1.625-1.081.494-2.166.979-3.244 1.48-1.104.515-2.2 1.046-3.299 1.57-.065.03-.137.055-.19.101-.063.053-.106.127-.157.191.07.04.136.105.211.116.928.145 1.858.277 2.785.423.685.108 1.368.235 2.052.346 1.072.173 2.147.33 3.218.513.926.159 1.846.363 2.774.512.772.125 1.55.211 2.327.296.546.06 1.094.093 1.641.13.274.02.55.048.821.021.154-.015.353-.096.438-.214.476-.657.928-1.331 1.376-2.008.122-.184.073-.259-.146-.277-.1-.009-.203.005-.304.005-.636-.005-1.272-.006-1.908-.018a3.29 3.29 0 0 1-.56-.064c-.541-.103-.742-.333-.8-.871-.024-.24.049-.422.256-.555.844-.54 1.506-1.263 2.083-2.07.143-.201.281-.406.436-.598.305-.382.567-.334.766.108.184.411.184.734-.182 1.085-.459.438-.84.958-1.246 1.45-.056.069-.113.203-.082.261.034.066.165.102.258.112.158.016.32.007.479 0 .55-.027 1.1-.068 1.65-.085.29-.009.501-.123.65-.364 1.004-1.627 2.139-3.175 2.99-4.894.086-.175.176-.337.396-.36.23-.024.33.14.435.3.254.388.29.747 0 1.16-.55.781-1.06 1.593-1.574 2.398-.213.332-.202.341.167.527.377.19.766.363.925.803.024.068.059.132.08.2.195.64.024.938-.64 1.04-.659.102-1.322.178-1.985.245-.235.023-.418.094-.549.292-.503.762-1.012 1.521-1.508 2.286-.16.246-.139.28.154.309.59.057 1.188.075 1.774.164 1.287.195 2.58.366 3.82.793.36.124.54.375.577.738.033.314-.168.488-.476.446-1.448-.198-2.897-.383-4.344-.587a29.177 29.177 0 0 1-2.013-.347c-.352-.075-.577.01-.76.315-.23.385-.5.747-.731 1.131-.094.157-.143.345-.193.524-.132.48-.476.617-.892.348-.515-.332-.585-.992-.17-1.444.204-.223.39-.468.561-.718.268-.39.21-.498-.276-.568-.316-.045-.63-.102-.946-.141-.617-.078-1.234-.179-1.853-.213-1.897-.107-3.794-.19-5.69-.273-.45-.02-.9-.003-1.35-.003v.012l.003.001Zm-32.47 2.748.09-.081.254-.158c.031-.033.063-.066.093-.1.487-.078.755-.494 1.134-.738.04-.026.056-.092.084-.14-.065-.004-.141-.032-.193-.008-.426.197-.751.513-1.015.895l-.094.1-.254.157-.098.082-.006.017.005-.028v.002Zm12.11-4.418.083-.091c.041-.009.092-.006.124-.028.71-.492 1.42-.986 2.125-1.486.06-.044.088-.136.13-.206-.089-.029-.185-.095-.262-.077a.983.983 0 0 0-.334.181c-.183.138-.366.28-.533.437-.418.391-.828.792-1.24 1.189l-.083.092-.025.003.016-.014h-.001Zm-4.444-3.715.033.07c.166-.1.348-.183.495-.305.555-.462 1.094-.943 1.65-1.405.434-.361.885-.703 1.327-1.053.943-.745 1.883-1.495 2.83-2.233.833-.65 1.664-1.304 2.515-1.93.99-.73 2-1.435 3.004-2.146a100.73 100.73 0 0 1 1.82-1.262c.589-.397 1.188-.779 1.782-1.168 1.042-.681 2.084-1.364 3.128-2.045.388-.254.782-.498 1.168-.755.05-.033.066-.115.099-.176-.05-.021-.099-.057-.15-.062-.26-.024-.52-.057-.78-.053-.694.013-1.388.043-2.082.066-.97.032-1.939.067-2.909.092-.275.007-.552-.03-.826-.016a270.2 270.2 0 0 0-3.462.202c-.576.037-1.151.104-1.727.147-.46.034-.924.034-1.383.08-.964.095-1.926.212-2.89.318-.511.057-1.025.106-1.537.168-.934.115-1.868.237-2.802.356-.948.12-1.898.226-2.843.362-.961.138-1.918.302-2.876.462-1.457.245-2.916.479-4.367.754-.895.17-1.778.402-2.663.62-1.885.464-3.773.917-5.65 1.415-1.358.36-2.707.76-4.047 1.185a73.54 73.54 0 0 0-3.488 1.21c-1.643.613-3.281 1.24-4.905 1.904-.736.3-1.437.69-2.143 1.06-.316.166-.313.275.015.423.368.165.749.345 1.14.405 1.46.222 2.924.414 4.391.584.863.1 1.732.137 2.599.2 1.068.079 2.138.15 3.207.233 1.256.099 2.512.199 3.767.312.95.086 1.9.201 2.85.292 1.225.117 2.452.218 3.677.334.562.053 1.122.125 1.683.187 1.036.114 2.07.223 3.105.34.806.092 1.61.199 2.416.291 1.005.115 2.01.222 3.015.333l1.812.201.002.003ZM58.563 8.89c-.573 0-1.092.128-1.568.458-.428.296-.873.568-1.309.854-1.453.953-2.928 1.877-4.354 2.869a299.62 299.62 0 0 0-6.19 4.425c-1.38 1.01-2.724 2.07-4.066 3.13-1.08.854-2.133 1.742-3.195 2.62-.073.06-.12.153-.18.23.095.05.184.131.283.147.63.096 1.262.167 1.89.267.45.072.85-.013 1.241-.25.346-.209.718-.38 1.089-.544.754-.334 1.51-.67 2.277-.97.458-.179.643-.099.85.246.192.32.168.42-.185.784a8.582 8.582 0 0 1-.31.306c-.235.215-.476.423-.708.642-.059.056-.09.14-.135.21.088.036.171.088.261.104.311.059.554-.104.81-.249.656-.37 1.31-.747 1.984-1.082.63-.313.795-.248 1.124.365.092.172.173.162.3.07.047-.033.094-.067.14-.103a21.668 21.668 0 0 1 3.734-2.296c.53-.26 1.092-.472 1.659-.638.425-.126.675.074.833.49.174.459-.079.798-.327 1.109-.525.656-1.082 1.285-1.63 1.921-.322.373-.662.73-.98 1.106-.19.225-.16.296.124.385.055.018.113.03.17.04.543.084 1.085.184 1.632.242.223.023.476.005.679-.081.626-.264 1.238-.566 1.851-.86.928-.443 1.85-.897 2.777-1.34.928-.442 1.858-.88 2.791-1.311.473-.219.953-.422 1.432-.628.624-.268 1.255-.52 1.875-.8.778-.35 1.549-.718 2.322-1.08.958-.447 1.93-.869 2.87-1.35 1.03-.53 2.055-1.078 3.038-1.688.772-.48 1.505-1.022 2.11-1.726.895-1.04.569-2.18-.18-2.867a6.338 6.338 0 0 0-2.226-1.328c-1.803-.625-3.674-.955-5.562-1.17-1.51-.171-3.026-.276-4.542-.385-1.498-.107-3-.182-4.498-.271l-.001-.003ZM37.026 28.681c.497.151.87-.182 1.257-.569.696-.694 1.431-1.35 2.152-2.018.308-.285.625-.56.935-.843.08-.073.218-.202.033-.256-.283-.082-.584-.198-.886-.047-.272.136-.543.271-.81.417-1.752.958-3.454 2-5.114 3.112-.119.08-.23.175-.34.268-.03.025-.043.07-.064.106.05.01.101.03.15.027.863-.061 1.724-.126 2.687-.197Zm-5.33.474c.23-.088.491-.144.705-.277.614-.381 1.206-.8 1.813-1.193a208.1 208.1 0 0 1 2.859-1.82c.529-.33 1.078-.624 1.614-.943.076-.045.123-.14.184-.212-.078-.033-.155-.083-.236-.095-.56-.079-1.122-.136-1.68-.23a.66.66 0 0 0-.594.172c-1.604 1.424-3.209 2.846-4.81 4.27-.062.056-.1.136-.15.204l.295.125Zm15.852-1.144.032.073c.158-.073.354-.11.467-.226.454-.466.884-.955 1.317-1.44.264-.297.24-.376-.169-.442-.613-.099-1.231-.167-1.846-.254-.223-.031-.388.063-.544.207-.617.568-1.24 1.129-1.851 1.703-.14.131-.24.304-.357.458.195.02.39.062.585.058.331-.006.66-.046.992-.06.272-.011.544.003.816-.009.187-.008.372-.044.559-.069v.001Zm2.82-2.747c.101-.065.272-.128.378-.249.888-1.01 1.767-2.028 2.64-3.05.08-.092.108-.226.16-.341-.134.024-.285.017-.399.077-.993.531-1.987 1.063-2.966 1.62-.414.234-.803.515-1.189.795-.27.195-.521.415-.766.64-.133.122-.104.236.09.26.66.082 1.32.16 2.051.249l.001-.001Zm4.654 2.625v.017c.839-.03 1.677-.063 2.516-.087.188-.005.376.022.563.029.173.005.345 0 .517.002l.776.014c.318.006.637.02.954.013.07-.002.14-.076.209-.117-.067-.042-.13-.111-.202-.124-.483-.087-.968-.163-1.454-.24-1.274-.204-2.546-.416-3.822-.599a1.703 1.703 0 0 0-.806.072c-.446.165-.867.4-1.293.619-.124.062-.229.163-.341.245.142.052.282.106.426.153.04.013.086.004.13.004h1.827Zm-14.007.523c.44-.036.786-.069 1.133-.091.378-.025.684-.163.948-.452.45-.491.933-.95 1.398-1.429.231-.239.457-.485.675-.737.114-.13.1-.27-.1-.25-.222.022-.473.055-.65.174-1.15.78-2.286 1.584-3.421 2.388-.113.08-.191.206-.285.31l.302.087Zm10.163-2.165a.664.664 0 0 0-.584.22c-.307.325-.631.635-.927.97-.104.12-.146.296-.216.444.162.001.326.017.486 0 .111-.014.221-.065.327-.112.46-.206.923-.408 1.377-.63.285-.138.556-.305.827-.47.049-.03.078-.108.09-.169.004-.016-.085-.068-.136-.076-.414-.062-.829-.119-1.243-.177Zm25.634-1.793c.154-.037.381-.077.6-.147.147-.047.21-.164.082-.296-.515-.534-.445-.62-.851.016-.03.049-.065.096-.09.148-.1.215-.05.289.259.28Zm-33.824-.594-.06-.093c-.17.095-.337.192-.504.289.027.04.075.113.078.111.163-.098.325-.203.485-.306v-.001Z" fill="#B2C73A" stroke="#B2C73A" stroke-width=".8"/></svg>