<svg width="42" height="43" viewBox="0 0 42 43" fill="none" xmlns="http://www.w3.org/2000/svg"><path d="M13.292 20.712h2.303a.542.542 0 0 1 .585.583v1.386a.27.27 0 0 0 .139.248.823.823 0 0 0 .862 0 .268.268 0 0 0 .138-.248v-1.386a2.507 2.507 0 0 0-.217-.873c-.287-.567-.778-.844-1.5-.844h-2.31c-.3.02-.594.095-.868.22-.567.287-.844.78-.844 1.506 0 .724.277 1.216.848 1.506.281.126.583.2.89.218h1.94a.278.278 0 0 0 .251-.139.832.832 0 0 0 0-.863.277.277 0 0 0-.25-.139h-1.967a.592.592 0 0 1 0-1.182v.007ZM19.711 19.58c-.302.02-.598.094-.874.22-.566.286-.843.78-.843 1.505 0 .724.277 1.216.847 1.506.28.126.582.2.89.218h3.665a.277.277 0 0 0 .25-.139.831.831 0 0 0 0-.862.277.277 0 0 0-.25-.138h-3.685a.592.592 0 0 1 0-1.183h2.304c.722 0 1.214-.277 1.5-.847.127-.28.2-.582.218-.89v-1.752a.277.277 0 0 0-.138-.25.831.831 0 0 0-.862 0 .277.277 0 0 0-.139.25v1.778a.544.544 0 0 1-.585.585h-2.298ZM26.133 19.58c-.303.02-.6.093-.875.22-.565.286-.844.78-.844 1.504 0 .725.277 1.217.848 1.507.279.125.578.199.883.217h3.673a.277.277 0 0 0 .25-.138.832.832 0 0 0 0-.862.277.277 0 0 0-.25-.139h-3.685a.592.592 0 0 1 0-1.182h2.303c.722 0 1.213-.277 1.5-.847.127-.28.2-.582.217-.89v-1.753a.277.277 0 0 0-.138-.25.832.832 0 0 0-.861 0 .277.277 0 0 0-.139.25v1.778a.544.544 0 0 1-.585.585h-2.297ZM18.596 3.438l-.278.214c1.485-1.143 3.975-.796 5.61.82a5.544 5.544 0 0 1 1.468 2.548c.298 1.175.151 2.417-.496 3.343-.04.057-.083.114-.126.17.073-.094.147-.185.218-.278a3.08 3.08 0 0 0 .121-.168c.617-.903.746-2.122.44-3.275a5.608 5.608 0 0 0-1.465-2.494c-1.61-1.607-4.048-1.974-5.492-.88Z" fill="#D2FF00"/><path d="m26.095 11.872-.197.277c.06-.082.117-.165.172-.252.855-1.349 1.035-3.123.606-4.758a7.853 7.853 0 0 0-2.044-3.518 7.46 7.46 0 0 0-3.881-2.067c-1.436-.254-2.923 0-4.073.798l.285-.195c1.126-.76 2.584-.987 3.99-.718a7.484 7.484 0 0 1 3.806 2.06 7.878 7.878 0 0 1 2.029 3.451c.44 1.604.291 3.347-.523 4.67-.06.086-.113.169-.17.252Z" fill="#D2FF00"/><path d="m17.25 2.784.277-.202c-.072.051-.138.105-.214.162l-.288.207c.08-.058.151-.115.226-.167ZM26.434 11.746l-.15.229-.028.041a4.745 4.745 0 0 1-3.246 1.993l.277-.303a4.55 4.55 0 0 0 3.147-1.96ZM18.017 4.98a3.485 3.485 0 0 0-.278 2.18 4.877 4.877 0 0 0 1.46 2.656c1.452 1.386 3.35 1.642 4.63.787l.244-.287c-1.247.839-3.111.57-4.557-.81a4.906 4.906 0 0 1-1.46-2.634 3.392 3.392 0 0 1 .261-2.14l-.3.248ZM16.777 1.95l.277-.182a5.07 5.07 0 0 0-.252.173c-1.195.887-1.827 2.263-1.88 3.793l-.322.288c.06-1.557.705-2.967 1.92-3.891.085-.064.17-.125.257-.182Z" fill="#D2FF00"/><path d="M25.728 11.307c-.066.091-.138.183-.203.277-.818 1.09-2.063 1.67-3.42 1.7-1.482.03-3.078-.582-4.41-1.833a7.068 7.068 0 0 1-2.192-4.086c-.25-1.72.258-3.366 1.525-4.411l.288-.208c-1.247 1.008-1.742 2.62-1.487 4.317a7.096 7.096 0 0 0 2.196 4.068c1.328 1.247 2.91 1.867 4.372 1.843 1.334-.025 2.547-.592 3.331-1.667Z" fill="#D2FF00"/><path d="M19.515 9.506c1.445 1.385 3.311 1.649 4.557.81-.015 0-.032 0-.047.009-1.247.763-3.05.474-4.463-.872a4.892 4.892 0 0 1-1.46-2.633 3.436 3.436 0 0 1 .21-2.035v-.053a3.393 3.393 0 0 0-.26 2.14c.2 1.01.711 1.931 1.463 2.634ZM23.285 13.706a4.574 4.574 0 0 0 2.722-1.419 4.524 4.524 0 0 1-2.147 1.257 4.74 4.74 0 0 1-.575.162ZM14.92 5.735a5.89 5.89 0 0 1 .093-.61A4.833 4.833 0 0 1 16.2 2.48c-.804.861-1.234 2.007-1.281 3.256Z" fill="#D2FF00"/><path d="M26.828 6.898a7.911 7.911 0 0 0-2.03-3.452 7.45 7.45 0 0 0-3.94-2.09c-1.462-.246-2.968.05-4.095.921a4.73 4.73 0 0 0-.583.543c.166-.177.346-.342.537-.492 1.126-.871 2.634-1.166 4.094-.92a7.427 7.427 0 0 1 3.948 2.09 7.878 7.878 0 0 1 2.029 3.451c.44 1.604.29 3.347-.523 4.67a4.513 4.513 0 0 1-.538.71c.221-.233.418-.488.585-.762.803-1.324.956-3.066.516-4.67Z" fill="#D2FF00"/><path d="M18.432 3.57c1.43-1.247 3.989-.911 5.655.74a5.609 5.609 0 0 1 1.465 2.494c.306 1.153.177 2.371-.44 3.275a2.965 2.965 0 0 1-.232.3c.1-.112.192-.229.277-.351.616-.906.745-2.124.438-3.275a5.61 5.61 0 0 0-1.464-2.495c-1.663-1.65-4.226-1.983-5.654-.74a2.92 2.92 0 0 0-.325.33c.088-.099.181-.191.28-.277ZM25.453 11.646a4.149 4.149 0 0 1-2.858 1.27c-1.5.07-3.145-.545-4.517-1.838A7.112 7.112 0 0 1 15.88 7.01c-.22-1.469.122-2.873 1.026-3.88-.938 1.009-1.296 2.435-1.071 3.929a7.095 7.095 0 0 0 2.196 4.068c1.374 1.294 3.016 1.908 4.517 1.837a4.133 4.133 0 0 0 2.905-1.318Z" fill="#D2FF00"/><path d="M19.04 7.54a5.373 5.373 0 0 1-.657-1.676 4.179 4.179 0 0 1-.075-1.08 3.436 3.436 0 0 0-.202 2.035c.08.434.223.854.425 1.247.158-.175.33-.352.509-.527Z" fill="#D2FF00"/><path d="M24.94 3.265a7.778 7.778 0 0 0-3.983-2.16c-1.477-.276-3.01-.012-4.157.832-.216.161-.417.341-.6.538a4.832 4.832 0 0 0-1.188 2.646 4.837 4.837 0 0 1 1.749-2.847c1.127-.872 2.633-1.167 4.094-.922a7.45 7.45 0 0 1 3.941 2.09c.153.153.298.312.437.474l.241-.063a7.739 7.739 0 0 0-.535-.588Zm-3.972-1.386c-1.315-.212-2.655.065-3.649.866-.147.12-.286.25-.415.388-.904 1.005-1.248 2.409-1.026 3.88a6.9 6.9 0 0 0 1.247 2.993c.26-.477.563-.93.904-1.354a5.299 5.299 0 0 1-.635-1.728c-.2-1.162.047-2.276.757-3.074.099-.119.207-.229.324-.33 1.429-1.247 3.99-.91 5.655.74l.02.022c.22-.084.438-.162.655-.23a4.47 4.47 0 0 0-.278-.287 6.681 6.681 0 0 0-3.559-1.886Z" fill="#D2FF00"/><path d="M19.563 9.453c1.408 1.346 3.218 1.635 4.463.872-1.223.22-2.692-.27-3.93-1.46a6.269 6.269 0 0 1-1.054-1.326c-.179.176-.35.352-.513.53.264.516.614.984 1.034 1.384Z" fill="#D2FF00"/><path d="M27.023 6.753a8.206 8.206 0 0 0-1.545-2.896l-.241.064A7.868 7.868 0 0 1 26.829 6.9c.441 1.603.29 3.345-.522 4.669-.168.274-.364.53-.585.762-.51.554-1.15.972-1.863 1.215a4.524 4.524 0 0 0 2.148-1.258c.225-.244.422-.512.59-.798.782-1.343.896-3.114.426-4.737Zm-1.57 4.895a3.94 3.94 0 0 0 .43-.555c.75-1.176.892-2.74.499-4.192a7.068 7.068 0 0 0-1.57-2.845c-.217.068-.436.145-.656.23A5.578 5.578 0 0 1 25.6 6.764c.308 1.151.179 2.37-.438 3.275-.085.122-.177.24-.277.35-1.335 1.525-3.88 1.422-5.798-.402a5.911 5.911 0 0 1-1.049-1.332 9.16 9.16 0 0 0-.903 1.354 7.7 7.7 0 0 0 .946 1.076c1.372 1.293 3.016 1.907 4.517 1.838a4.148 4.148 0 0 0 2.855-1.275ZM18.938 37.457a5.864 5.864 0 0 0-.933-1.287c-.467-.508-1-.949-1.429-1.434a3.798 3.798 0 0 1-.883-1.6c.098.613.35 1.19.732 1.678.39.525.883 1.003 1.278 1.513.322.398.583.841.776 1.315l.202.08a2.28 2.28 0 0 0 .257-.265ZM18.414 38.162a8.996 8.996 0 0 1-1.734-.139c-.729-.12-1.427-.316-2.138-.426a6.754 6.754 0 0 0-2.146 0 6.592 6.592 0 0 1 2.156-.145c.736.062 1.452.21 2.159.277a8.4 8.4 0 0 0 1.709.01l.167.123c-.052.103-.11.203-.173.3Z" fill="#D2FF00"/><path d="M16.682 38.02c-.73-.119-1.428-.316-2.138-.425a6.755 6.755 0 0 0-2.146 0 6.59 6.59 0 0 1 2.155-.146c.736.063 1.453.21 2.16.277a8.4 8.4 0 0 0 1.708.01l.065-.087a5.226 5.226 0 0 0-.776-1.316c-.395-.51-.887-.988-1.277-1.513a3.662 3.662 0 0 1-.732-1.677c.16.596.463 1.143.883 1.595.43.485.961.926 1.428 1.435.368.384.682.817.933 1.286.883-.987.735-2.12-.461-3.171-.953-.823-3.01-2.114-2.977-2.876-1.577 1.975-.465 4.423 2.005 5.764-2.506-1.22-5.573-1.046-7.196.855.923-.209 3.407.914 4.633 1.207 1.592.398 2.761 0 3.465-1.083a9.004 9.004 0 0 1-1.732-.135Z" fill="#D2FF00"/><path d="M13.97 34.845a7.248 7.248 0 0 0-.817-1.23c-.397-.487-.831-.93-1.142-1.413a2.715 2.715 0 0 1-.48-1.544 2.704 2.704 0 0 0 .33 1.605c.277.521.665.998.999 1.493.27.394.496.817.673 1.26l.193.076c.085-.078.167-.16.244-.247ZM13.463 35.519a7.384 7.384 0 0 1-1.687-.193c-.71-.167-1.386-.407-2.079-.605a8.762 8.762 0 0 0-2.123-.329 8.566 8.566 0 0 1 2.151.183c.714.155 1.41.35 2.093.463.545.09 1.1.112 1.65.067l.161.119c-.05.101-.105.2-.166.295Z" fill="#D2FF00"/><path d="M11.776 35.325c-.71-.167-1.386-.407-2.08-.605a8.752 8.752 0 0 0-2.122-.329 8.566 8.566 0 0 1 2.15.183c.714.156 1.41.35 2.093.463.546.09 1.1.112 1.651.067l.065-.088a6.442 6.442 0 0 0-.672-1.266c-.334-.495-.726-.97-1-1.493a2.704 2.704 0 0 1-.33-1.605 2.715 2.715 0 0 0 .478 1.55c.313.483.744.925 1.142 1.413.313.381.586.793.816 1.23.831-.954.72-1.993-.193-2.977-.744-.757-2.24-2.096-1.96-2.772-.947.791-1.387 1.76-1.234 2.771.152 1.012.903 1.999 2.034 2.69a8.718 8.718 0 0 0-3.7-1.078c-1.247-.066-2.52.153-3.494.92.938.031 3.294 1.576 4.573 1.974 1.633.555 2.811.179 3.465-.86a7.385 7.385 0 0 1-1.682-.188Z" fill="#D2FF00"/><path d="M9.639 32.073a8.113 8.113 0 0 0-.47-1.258c-.231-.509-.503-1.002-.618-1.478-.132-.49-.1-1.01.089-1.482a2.405 2.405 0 0 0-.243 1.506c.067.506.294 1.026.469 1.533.147.417.257.847.328 1.283l.165.097c.101-.065.193-.132.28-.2ZM9.03 32.631a5.923 5.923 0 0 1-1.56-.47 20.135 20.135 0 0 1-1.801-1.03 8.661 8.661 0 0 0-1.864-.839 8.496 8.496 0 0 1 1.925.705c.6.332 1.217.63 1.85.894.493.192 1.01.31 1.537.354l.127.138c-.069.085-.146.17-.214.248Z" fill="#D2FF00"/><path d="M7.472 32.159A20.11 20.11 0 0 1 5.67 31.13a8.665 8.665 0 0 0-1.864-.84 8.492 8.492 0 0 1 1.925.705c.6.332 1.218.63 1.85.894a5.48 5.48 0 0 0 1.537.353l.077-.066a7.452 7.452 0 0 0-.329-1.283c-.175-.508-.402-1.027-.468-1.533-.085-.515 0-1.044.242-1.507-.19.472-.22.992-.089 1.483.115.476.387.97.619 1.478.19.405.348.826.47 1.258.97-.78 1.078-1.74.58-2.741-.443-.757-1.233-2.24-.786-2.803-1.108.478-1.875 1.255-2.056 2.194-.207.937.159 2.033 1.063 2.873a9.694 9.694 0 0 0-3.112-1.802c-1.14-.364-2.346-.498-3.505-.037.445.108 1.036.71 1.705 1.344.34.329.679.623 1.04.96.306.257.627.498.958.722 1.457.916 2.693.733 3.507-.15a5.926 5.926 0 0 1-1.562-.474Z" fill="#D2FF00"/><path d="M6.403 28.623c.041-.418.047-.838.016-1.257a10.043 10.043 0 0 1-.068-1.51c.045-.496.238-.966.555-1.35a2.58 2.58 0 0 0-.704 1.333c-.07.505-.1 1.015-.086 1.524-.015.42-.064.837-.147 1.247l.112.132c.11-.034.216-.074.322-.119ZM5.66 28.978a5.06 5.06 0 0 1-1.247-.823c-.48-.426-.856-.912-1.28-1.361a6.744 6.744 0 0 0-1.418-1.187c.555.29 1.068.655 1.524 1.084.467.428.879.887 1.365 1.248.384.3.813.538 1.271.704l.066.155a2.589 2.589 0 0 1-.28.18Z" fill="#D2FF00"/><path d="M4.42 28.155c-.48-.425-.857-.912-1.281-1.36a6.744 6.744 0 0 0-1.418-1.187c.556.29 1.069.654 1.525 1.084.467.428.878.887 1.365 1.247.383.3.812.538 1.27.704l.092-.043c.083-.41.133-.828.147-1.247-.013-.51.016-1.02.086-1.525a2.58 2.58 0 0 1 .704-1.332c-.317.384-.51.854-.554 1.349-.016.504.007 1.01.068 1.51.03.42.024.84-.017 1.258 1.146-.476 1.584-1.296 1.47-2.331-.123-.808-.43-2.426.17-2.835-1.17.186-2.099.733-2.564 1.551-.466.818-.51 1.896.012 2.881a7.355 7.355 0 0 0-2.217-2.386c-.92-.593-1.98-.979-3.178-.818.683.403 1.531 2.633 2.349 3.541 1.003 1.188 2.198 1.35 3.223.75a5.061 5.061 0 0 1-1.252-.81Z" fill="#D2FF00"/><path d="M4.6 24.621c.172-.368.311-.751.415-1.144.101-.477.232-.947.393-1.407.194-.452.506-.844.904-1.133a2.89 2.89 0 0 0-1.035 1.086c-.21.45-.388.912-.537 1.386-.14.38-.315.748-.52 1.099l.059.146c.108-.016.216-.026.32-.033ZM3.813 24.76a4.358 4.358 0 0 1-.872-1.029c-.304-.49-.499-1.014-.755-1.513a5.284 5.284 0 0 0-.95-1.372c.425.374.788.814 1.074 1.302.305.488.54.994.87 1.433.257.36.573.674.935.93l.01.156c-.106.041-.21.072-.312.094Z" fill="#D2FF00"/><path d="M2.94 23.735c-.303-.49-.498-1.015-.754-1.514a5.284 5.284 0 0 0-.95-1.372c.425.375.788.815 1.074 1.303.305.488.54.994.87 1.433.257.36.573.674.935.929l.098-.018c.205-.35.379-.719.52-1.1.148-.473.327-.936.536-1.385.244-.447.601-.821 1.036-1.085-.398.289-.71.68-.904 1.132-.161.46-.293.93-.394 1.407a6.693 6.693 0 0 1-.415 1.144c1.196-.162 1.851-.81 2.066-1.801.139-.782.31-2.356.983-2.62-1.137-.069-2.125.247-2.799.903a2.998 2.998 0 0 0-.85 2.644C3.551 21.784 2.26 19.933 0 19.68c.511.504.657 2.694 1.109 3.683.54 1.284 1.571 1.704 2.695 1.4a4.358 4.358 0 0 1-.863-1.028Z" fill="#D2FF00"/><path d="M4.159 20.603c.257-.302.486-.626.683-.97.262-.416.456-.848.751-1.218.295-.38.681-.68 1.123-.872-.47.162-.893.438-1.231.802-.341.36-.582.777-.875 1.166-.229.327-.49.63-.78.904l.02.146c.106.023.209.037.309.042ZM3.399 20.582a3.813 3.813 0 0 1-.521-1.117c-.128-.507-.194-1.026-.278-1.524a4.61 4.61 0 0 0-.518-1.44c.295.426.515.9.651 1.4.13.503.239 1.014.402 1.48.145.375.348.725.602 1.037l-.028.146c-.105.007-.21.016-.31.018Z" fill="#D2FF00"/><path d="M2.877 19.466c-.128-.507-.194-1.027-.277-1.524a4.61 4.61 0 0 0-.519-1.44c.295.426.515.9.652 1.4.13.502.238 1.014.402 1.48.144.375.347.725.601 1.036h.094c.29-.274.552-.577.78-.903.293-.39.534-.807.875-1.166.338-.365.76-.64 1.23-.802a2.867 2.867 0 0 0-1.122.871c-.295.37-.489.796-.75 1.219a6.41 6.41 0 0 1-.684.97c1.128.097 1.922-.367 2.392-1.248.335-.7.928-2.127 1.594-2.242-1.02-.277-2.013-.173-2.803.3a3.125 3.125 0 0 0-1.492 2.264c.131-1.88-.57-3.821-2.596-4.488.359.566-.094 2.59.062 3.576.15 1.27.96 1.86 2.086 1.816a3.813 3.813 0 0 1-.525-1.119Z" fill="#D2FF00"/><path d="M4.812 16.9c.313-.23.607-.485.88-.762.31-.347.643-.675.993-.982a3.006 3.006 0 0 1 1.248-.591 3.173 3.173 0 0 0-1.335.507 12.4 12.4 0 0 0-1.09.91c-.299.252-.615.48-.947.685l-.024.138c.09.037.181.068.275.095ZM4.118 16.736a3.292 3.292 0 0 1-.188-1.119c0-.493.087-.97.127-1.455a4.02 4.02 0 0 0-.11-1.418c.167.45.248.926.24 1.405.007.49-.045.97 0 1.435.03.37.128.73.29 1.063l-.068.126a3.09 3.09 0 0 1-.29-.037Z" fill="#D2FF00"/><path d="M3.93 15.613c0-.493.088-.97.128-1.455a4.02 4.02 0 0 0-.11-1.418c.167.45.248.926.24 1.405.007.49-.045.97 0 1.435.03.369.128.73.29 1.063l.085.02c.332-.204.648-.433.946-.684.346-.324.71-.628 1.091-.91.4-.269.857-.442 1.335-.508-.456.098-.883.3-1.248.592-.35.307-.682.634-.993.981a7.204 7.204 0 0 1-.88.762c1.02.304 1.853.021 2.512-.702.49-.584 1.393-1.781 2.032-1.763a3.382 3.382 0 0 0-2.65-.245 3.282 3.282 0 0 0-1.94 1.801c.599-1.699.44-3.612-1.247-4.598.185.587-.742 2.356-.85 3.293-.189 1.19.416 1.883 1.452 2.05a3.292 3.292 0 0 1-.192-1.119Z" fill="#D2FF00"/><path d="M6.393 13.556a8.918 8.918 0 0 0 .999-.53c.37-.258.755-.495 1.152-.71a3.048 3.048 0 0 1 1.296-.3c-.46-.03-.922.042-1.352.208-.42.187-.83.396-1.228.625a8.442 8.442 0 0 1-1.04.447l-.056.12c.073.051.15.098.229.14ZM5.805 13.275a2.89 2.89 0 0 1 .115-1.06c.12-.452.339-.87.491-1.305.169-.419.26-.865.27-1.316.036.448-.015.9-.148 1.329-.112.454-.298.877-.367 1.312-.071.338-.075.687-.011 1.026l-.093.102a2.898 2.898 0 0 1-.257-.088Z" fill="#D2FF00"/><path d="M5.919 12.216c.119-.453.338-.872.49-1.306.169-.419.26-.865.27-1.316.036.448-.014.9-.148 1.329-.112.454-.298.877-.367 1.312-.07.338-.075.687-.011 1.026l.072.035a8.443 8.443 0 0 0 1.04-.447c.399-.23.809-.438 1.229-.625.43-.166.89-.237 1.35-.208-.45.003-.894.105-1.3.3-.399.215-.785.452-1.158.71a8.902 8.902 0 0 1-.999.53c.847.466 1.692.37 2.468-.17.6-.438 1.737-1.353 2.312-1.217a3.059 3.059 0 0 0-2.356-.73 3.384 3.384 0 0 0-2.234 1.277c.97-1.443 1.342-3.212.057-4.435.02.574-1.295 2.017-1.638 2.847-.469 1.06-.104 1.802.802 2.152a2.89 2.89 0 0 1 .12-1.064Z" fill="#D2FF00"/><path d="M8.763 10.745a9.943 9.943 0 0 0 1.046-.287c.408-.162.824-.3 1.248-.415.412-.098.84-.106 1.255-.024a3.017 3.017 0 0 0-1.28-.07c-.433.085-.861.195-1.282.326-.35.09-.706.157-1.065.201l-.081.1c.052.06.105.117.159.17ZM8.303 10.375c.07-.334.2-.652.385-.938.229-.39.538-.726.794-1.09.261-.343.462-.729.593-1.14-.089.419-.253.818-.485 1.178-.224.388-.506.735-.684 1.117a2.514 2.514 0 0 0-.278.927l-.11.076a2.318 2.318 0 0 1-.215-.13Z" fill="#D2FF00"/><path d="M8.683 9.437c.228-.39.537-.726.794-1.09.26-.343.461-.729.593-1.14-.09.419-.254.818-.485 1.178-.225.388-.506.735-.685 1.117a2.514 2.514 0 0 0-.277.928l.055.045a8.4 8.4 0 0 0 1.065-.2 12.5 12.5 0 0 1 1.282-.328 3.018 3.018 0 0 1 1.28.07 2.955 2.955 0 0 0-1.255.024c-.424.115-.84.254-1.248.416a9.99 9.99 0 0 1-1.046.287c.642.585 1.436.665 2.284.326.664-.277 1.94-.898 2.43-.656-.876-1.325-2.892-1.51-4.318-.393 1.274-1.116 2.071-2.656 1.227-4.011-.139.514-1.698 1.577-2.237 2.257-.71.87-.576 1.614.155 2.11.07-.335.2-.653.386-.94ZM23.265 38.162a9.011 9.011 0 0 0 1.733-.138c.73-.12 1.428-.316 2.139-.426a6.746 6.746 0 0 1 2.144 0 6.616 6.616 0 0 0-2.154-.145c-.736.062-1.454.21-2.16.277a8.4 8.4 0 0 1-1.708.01l-.17.123c.054.102.112.202.176.3ZM22.736 37.457c.251-.47.565-.902.933-1.287.466-.508.998-.949 1.427-1.434a3.8 3.8 0 0 0 .885-1.6 3.676 3.676 0 0 1-.732 1.678c-.39.525-.883 1.003-1.278 1.513a5.22 5.22 0 0 0-.776 1.315l-.202.08a3.5 3.5 0 0 1-.257-.265Z" fill="#D2FF00"/><path d="M23.669 36.17c.465-.508.997-.949 1.427-1.434.42-.453.724-1.002.884-1.599a3.676 3.676 0 0 1-.731 1.677c-.391.525-.883 1.003-1.278 1.513a5.223 5.223 0 0 0-.776 1.316l.065.087a8.385 8.385 0 0 0 1.709-.01c.705-.065 1.423-.213 2.159-.277a6.616 6.616 0 0 1 2.154.146 6.74 6.74 0 0 0-2.144 0c-.711.11-1.41.306-2.139.425a9.004 9.004 0 0 1-1.734.139c.707 1.088 1.877 1.481 3.465 1.083 1.228-.293 3.71-1.416 4.635-1.207-1.623-1.901-4.69-2.079-7.196-.855 2.47-1.341 3.581-3.789 2.005-5.764.037.76-2.026 2.05-2.976 2.87-1.198 1.052-1.345 2.185-.462 3.171a5.82 5.82 0 0 1 .933-1.28Z" fill="#D2FF00"/><path d="M28.215 35.519c.568 0 1.134-.064 1.688-.193.71-.167 1.386-.407 2.079-.605a8.77 8.77 0 0 1 2.126-.329 8.556 8.556 0 0 0-2.151.183c-.715.155-1.41.35-2.093.463a6.79 6.79 0 0 1-1.652.067l-.16.119c.05.101.103.2.163.295ZM27.709 34.845c.23-.436.504-.848.818-1.23.396-.487.831-.93 1.142-1.413.312-.454.48-.992.48-1.544a2.715 2.715 0 0 1-.33 1.605c-.276.521-.665.998-1 1.493-.27.396-.496.82-.672 1.267l-.191.074a3.515 3.515 0 0 1-.247-.252Z" fill="#D2FF00"/><path d="M28.527 33.615c.397-.487.832-.93 1.142-1.413.313-.455.48-.993.481-1.544a2.714 2.714 0 0 1-.33 1.605c-.277.52-.665.998-1 1.492-.27.396-.496.821-.672 1.267l.062.082a6.79 6.79 0 0 0 1.652-.067c.683-.112 1.378-.307 2.093-.462a8.552 8.552 0 0 1 2.15-.183 8.765 8.765 0 0 0-2.125.328c-.693.198-1.365.438-2.08.606a7.396 7.396 0 0 1-1.687.192c.66 1.04 1.837 1.42 3.465.861 1.277-.398 3.635-1.94 4.573-1.973-.97-.768-2.244-.987-3.494-.92a8.718 8.718 0 0 0-3.699 1.076c1.131-.693 1.882-1.688 2.033-2.689.151-1-.287-1.979-1.232-2.771.277.672-1.217 2.01-1.96 2.771-.913.984-1.03 2.024-.195 2.977.232-.438.508-.852.823-1.235Z" fill="#D2FF00"/><path d="M32.648 32.631a5.934 5.934 0 0 0 1.561-.47 20.334 20.334 0 0 0 1.802-1.03 8.604 8.604 0 0 1 1.864-.839 8.53 8.53 0 0 0-1.927.705c-.599.332-1.216.63-1.849.894-.492.192-1.01.31-1.536.354l-.13.138c.07.085.142.17.215.248ZM32.04 32.073c.121-.431.278-.852.469-1.258.231-.509.503-1.002.618-1.478a2.325 2.325 0 0 0-.089-1.482c.243.462.328.99.243 1.506-.067.506-.293 1.026-.469 1.533a7.325 7.325 0 0 0-.327 1.283l-.166.097a3.728 3.728 0 0 1-.28-.2Z" fill="#D2FF00"/><path d="M32.509 30.814c.231-.509.503-1.002.618-1.478a2.325 2.325 0 0 0-.089-1.483c.243.463.329.992.243 1.507-.066.506-.292 1.026-.468 1.533a7.327 7.327 0 0 0-.328 1.283l.077.067a5.484 5.484 0 0 0 1.537-.348 18.58 18.58 0 0 0 1.849-.898 8.528 8.528 0 0 1 1.931-.71 8.602 8.602 0 0 0-1.864.848 20.31 20.31 0 0 1-1.801 1.029 5.934 5.934 0 0 1-1.56.47c.814.884 2.049 1.067 3.507.15.332-.223.652-.463.958-.72.361-.338.7-.632 1.039-.96.67-.635 1.26-1.237 1.706-1.345-1.16-.462-2.366-.327-3.505.038a9.683 9.683 0 0 0-3.113 1.801c.904-.84 1.271-1.94 1.063-2.873-.181-.94-.94-1.716-2.056-2.194.447.563-.341 2.046-.785 2.803-.497 1-.388 1.96.58 2.74.119-.431.273-.853.461-1.26Z" fill="#D2FF00"/><path d="M36.017 28.978a5.061 5.061 0 0 0 1.247-.823c.48-.426.857-.912 1.282-1.361a6.71 6.71 0 0 1 1.418-1.187 6.846 6.846 0 0 0-1.525 1.084c-.465.428-.878.887-1.365 1.248a4.562 4.562 0 0 1-1.27.704l-.066.155c.092.068.186.127.279.18ZM35.276 28.623a7.485 7.485 0 0 1-.016-1.257 9.69 9.69 0 0 0 .068-1.51 2.462 2.462 0 0 0-.555-1.35c.362.365.607.829.704 1.333.072.505.1 1.015.086 1.524.015.42.064.837.147 1.247l-.11.132a3.376 3.376 0 0 1-.324-.119Z" fill="#D2FF00"/><path d="M35.262 27.366a9.69 9.69 0 0 0 .068-1.511 2.463 2.463 0 0 0-.555-1.349c.362.364.607.828.704 1.332.071.505.1 1.015.086 1.525.015.419.064.836.147 1.247l.091.043a4.567 4.567 0 0 0 1.271-.704c.487-.365.9-.823 1.366-1.247.456-.43.969-.794 1.524-1.084a6.713 6.713 0 0 0-1.418 1.186c-.425.45-.802.936-1.282 1.361a5.06 5.06 0 0 1-1.247.823c1.027.6 2.217.438 3.225-.75.818-.904 1.663-3.137 2.356-3.54-1.199-.161-2.26.224-3.18.817a7.346 7.346 0 0 0-2.217 2.387c.523-.986.49-2.07.011-2.881-.48-.811-1.394-1.366-2.564-1.551.6.409.293 2.026.17 2.834-.114 1.035.324 1.856 1.47 2.331a7.487 7.487 0 0 1-.026-1.27Z" fill="#D2FF00"/><path d="M37.867 24.76c.343-.294.637-.642.871-1.029.304-.49.5-1.014.757-1.513.241-.505.561-.968.948-1.372a5.301 5.301 0 0 0-1.073 1.302c-.305.488-.539.994-.87 1.433-.258.36-.574.674-.936.93l-.01.156c.106.041.21.072.313.094ZM37.081 24.621a6.69 6.69 0 0 1-.409-1.144c-.1-.477-.231-.947-.392-1.407a2.716 2.716 0 0 0-.905-1.133c.435.264.792.639 1.035 1.086.21.449.39.912.537 1.386.141.38.316.748.52 1.099l-.059.146a4.086 4.086 0 0 0-.327-.033Z" fill="#D2FF00"/><path d="M36.677 23.47c-.1-.477-.231-.947-.392-1.407a2.717 2.717 0 0 0-.905-1.132c.435.264.793.638 1.035 1.085.21.45.39.913.537 1.386.141.38.316.749.52 1.1l.098.017a3.94 3.94 0 0 0 .935-.928c.331-.44.566-.946.87-1.433a5.298 5.298 0 0 1 1.073-1.303 5.278 5.278 0 0 0-.948 1.372c-.257.499-.453 1.023-.756 1.513a4.299 4.299 0 0 1-.872 1.03c1.124.304 2.155-.116 2.696-1.4.458-.99.602-3.179 1.108-3.684-2.26.254-3.552 2.104-3.991 4.056a2.998 2.998 0 0 0-.851-2.645c-.674-.655-1.663-.97-2.797-.902.672.258.844 1.838.981 2.62.216.995.87 1.643 2.067 1.801a6.692 6.692 0 0 1-.408-1.146Z" fill="#D2FF00"/><path d="M38.282 20.582a3.81 3.81 0 0 0 .52-1.117c.127-.507.193-1.026.278-1.524.092-.506.267-.992.52-1.44-.297.426-.517.9-.652 1.4-.138.503-.24 1.014-.403 1.48a3.762 3.762 0 0 1-.602 1.037l.028.146c.105.007.21.016.31.018ZM37.52 20.603a6.611 6.611 0 0 1-.683-.97c-.262-.416-.456-.848-.752-1.218-.294-.38-.68-.68-1.122-.872.47.162.893.438 1.23.802.343.36.584.777.875 1.166.23.327.49.63.78.904l-.019.146a3.121 3.121 0 0 1-.31.042Z" fill="#D2FF00"/><path d="M36.836 19.633c-.261-.416-.456-.848-.75-1.218-.295-.38-.682-.68-1.123-.872.47.162.893.438 1.23.803.343.359.584.776.875 1.165.229.327.49.63.78.904h.094c.255-.311.458-.661.602-1.037.163-.466.277-.977.403-1.48.135-.5.355-.974.651-1.4a4.616 4.616 0 0 0-.52 1.44c-.082.502-.149 1.022-.276 1.525a3.809 3.809 0 0 1-.521 1.117c1.123.044 1.94-.545 2.078-1.816.158-.987-.296-3.01.064-3.575-2.027.666-2.727 2.608-2.597 4.487a3.124 3.124 0 0 0-1.489-2.26c-.79-.474-1.782-.578-2.802-.301.665.115 1.259 1.541 1.594 2.242.47.882 1.263 1.346 2.39 1.248a6.598 6.598 0 0 1-.683-.972Z" fill="#D2FF00"/><path d="M37.559 16.736c.127-.36.192-.738.19-1.119 0-.493-.088-.97-.128-1.455a4.018 4.018 0 0 1 .11-1.418 3.91 3.91 0 0 0-.242 1.405c-.006.49.046.97 0 1.435-.028.37-.126.73-.288 1.063l.068.126c.1-.008.197-.02.29-.037ZM36.87 16.9a7.225 7.225 0 0 1-.882-.762c-.31-.348-.642-.675-.993-.982a3.004 3.004 0 0 0-1.247-.591c.478.065.934.238 1.335.507.38.283.745.587 1.092.91.297.253.614.482.946.685l.024.138a3.356 3.356 0 0 1-.276.095Z" fill="#D2FF00"/><path d="M35.986 16.137c-.31-.347-.642-.674-.993-.98a3.003 3.003 0 0 0-1.247-.593c.478.066.934.24 1.335.508.38.282.745.586 1.092.91.297.253.613.481.946.685l.085-.021c.161-.333.26-.694.288-1.063.047-.463 0-.945 0-1.434-.006-.48.075-.956.241-1.406a4.02 4.02 0 0 0-.11 1.418c.04.48.13.962.128 1.455.002.381-.062.76-.19 1.119 1.033-.168 1.641-.86 1.454-2.053-.11-.93-1.037-2.704-.85-3.291-1.685.985-1.844 2.899-1.247 4.598a3.282 3.282 0 0 0-1.94-1.802 3.384 3.384 0 0 0-2.65.246c.639-.018 1.543 1.18 2.033 1.763.659.723 1.493 1.006 2.513.702a7.22 7.22 0 0 1-.888-.76Z" fill="#D2FF00"/><path d="M35.874 13.275a2.86 2.86 0 0 0-.115-1.06c-.119-.452-.337-.87-.49-1.305a3.78 3.78 0 0 1-.277-1.316c-.036.448.014.9.148 1.329.112.454.298.877.368 1.312.072.338.075.687.01 1.026l.093.102c.097-.026.183-.056.263-.088ZM35.291 13.556a8.775 8.775 0 0 1-.998-.531 12.427 12.427 0 0 0-1.157-.71 3.067 3.067 0 0 0-1.31-.304c.46-.03.922.04 1.351.207.42.187.83.395 1.228.625.337.172.685.32 1.041.447l.056.12a2.29 2.29 0 0 1-.211.146Z" fill="#D2FF00"/><path d="M34.287 13.025a12.435 12.435 0 0 0-1.158-.71 3.068 3.068 0 0 0-1.302-.305c.46-.03.92.041 1.35.208.421.186.83.395 1.229.625.337.171.684.32 1.04.446l.073-.034c.064-.34.061-.688-.01-1.026-.07-.435-.256-.858-.369-1.312a3.54 3.54 0 0 1-.148-1.33c.013.453.107.898.277 1.317.154.434.372.853.49 1.306.105.342.144.701.116 1.058.908-.352 1.272-1.092.802-2.152-.343-.831-1.663-2.273-1.638-2.846-1.283 1.226-.917 2.996.058 4.434a3.387 3.387 0 0 0-2.235-1.277 3.056 3.056 0 0 0-2.356.73c.575-.139 1.71.779 2.31 1.217.776.54 1.623.635 2.468.17a8.777 8.777 0 0 1-.997-.52Z" fill="#D2FF00"/><path d="M33.376 10.375c-.07-.334-.2-.652-.387-.938-.228-.39-.537-.726-.794-1.09a3.8 3.8 0 0 1-.591-1.14c.088.419.253.818.485 1.178.224.388.505.735.683 1.117.15.289.245.603.277.927l.11.076c.075-.039.147-.083.217-.13ZM32.917 10.745a9.912 9.912 0 0 1-1.048-.287c-.405-.161-.819-.3-1.239-.416a2.963 2.963 0 0 0-1.257-.023c.417-.115.854-.14 1.28-.07.434.085.861.194 1.283.326.35.09.705.157 1.064.201l.083.1c-.054.06-.11.116-.166.17Z" fill="#D2FF00"/><path d="M31.87 10.459a11.74 11.74 0 0 0-1.24-.416 2.962 2.962 0 0 0-1.256-.024 3.02 3.02 0 0 1 1.28-.07c.433.086.861.195 1.282.327.35.09.706.156 1.065.2l.056-.045a2.543 2.543 0 0 0-.277-.927c-.177-.383-.458-.73-.683-1.117a3.517 3.517 0 0 1-.485-1.178c.131.41.331.796.592 1.14.256.363.565.7.794 1.09.186.286.317.604.387.938.73-.496.863-1.24.155-2.11-.54-.68-2.1-1.743-2.238-2.257-.843 1.355-.046 2.895 1.227 4.01-1.427-1.116-3.442-.93-4.318.394.496-.242 1.766.383 2.43.656.849.34 1.642.259 2.285-.326a9.925 9.925 0 0 1-1.056-.285ZM11.193 8.628c-2.888 2.195-3.922 2.544-5.671 6.098a13.758 13.758 0 0 0 2.72 16.228c1.486 1.429 3.295 2.597 5.19 3.646 3.752 2.11 8.096 3.725 11.174 6.88l-.846.578c-2.759-2.972-7.004-4.682-10.775-6.879-1.901-1.093-3.742-2.327-5.253-3.839a14.09 14.09 0 0 1-2.458-16.697c1.86-3.588 3.671-4.49 5.919-6.015Z" fill="#D2FF00"/><path d="M30.143 8.346c3.179 1.955 4.227 2.76 6.33 6.265a14.137 14.137 0 0 1-2.496 16.748c-1.524 1.513-3.362 2.744-5.266 3.836-3.777 2.191-8.023 3.895-10.788 6.86l-.847-.578c3.085-3.15 7.43-4.757 11.187-6.863 1.9-1.042 3.702-2.206 5.199-3.636a13.803 13.803 0 0 0 2.762-16.272c-1.684-3.202-2.754-4.111-6.081-6.36ZM13.394 26.767h-.372a.051.051 0 0 1-.044-.057v-1.171c0-.02-.008-.022-.014-.022-.005 0-.015 0-.023.019l-.253.463a.09.09 0 0 1-.084.048h-.225a.088.088 0 0 1-.084-.048l-.254-.463c-.008-.014-.014-.02-.022-.02-.008 0-.014 0-.014.023v1.17a.051.051 0 0 1-.044.058h-.369c-.022 0-.047-.009-.047-.04v-1.953a.092.092 0 0 1 .062-.091.093.093 0 0 1 .04-.005h.262a.14.14 0 0 1 .124.076l.43.801c.012.023.02.036.031.036s.02-.013.03-.036l.432-.8a.14.14 0 0 1 .123-.077h.263a.094.094 0 0 1 .073.027.097.097 0 0 1 .029.072v1.95c-.003.031-.028.04-.05.04ZM15.417 26.767h-.394a.06.06 0 0 1-.055-.051l-.101-.46h-.577l-.101.46a.06.06 0 0 1-.057.05h-.393a.043.043 0 0 1-.044-.026.044.044 0 0 1-.004-.017v-.016l.416-1.742c.065-.277.277-.312.467-.312s.4.042.463.312l.416 1.742v.015a.044.044 0 0 1-.036.045Zm-.801-1.673c0-.028-.011-.042-.036-.042-.025 0-.035.014-.04.042l-.176.776h.415l-.163-.776ZM17.263 26.766h-.277a.146.146 0 0 1-.147-.087l-.64-1.109c-.012-.016-.017-.022-.025-.022-.009 0-.014 0-.014.022v1.138c0 .015-.006.03-.017.04a.057.057 0 0 1-.04.017h-.331a.057.057 0 0 1-.057-.057v-1.923a.108.108 0 0 1 .107-.107h.284c.056 0 .084.029.117.087l.667 1.159c.011.016.014.022.022.022.009 0 .014 0 .014-.025v-1.19a.054.054 0 0 1 .057-.053h.331a.055.055 0 0 1 .057.054v1.928a.11.11 0 0 1-.108.106ZM19.354 26.767h-.393a.06.06 0 0 1-.056-.051l-.1-.46h-.577l-.102.46a.06.06 0 0 1-.056.05h-.393c-.006.002-.012.001-.018 0a.043.043 0 0 1-.03-.043v-.016l.416-1.742c.065-.277.277-.312.467-.312s.399.042.463.312l.415 1.742v.015a.044.044 0 0 1-.036.045Zm-.8-1.673c0-.028-.012-.042-.037-.042-.025 0-.034.014-.04.042l-.17.776h.415l-.169-.776ZM20.982 25.094h-.01c-.139 0-.345-.022-.584-.022-.238 0-.368.11-.368.478v.35c0 .389.177.479.314.479.08 0 .15 0 .216-.009v-.639c0-.007.001-.014.004-.021a.054.054 0 0 1 .05-.035h.36c.015 0 .029.006.04.016.01.011.016.025.016.04v.944c0 .04-.014.057-.056.065a3.07 3.07 0 0 1-.63.059c-.32 0-.8-.183-.8-.894v-.348c0-.717.447-.897.854-.897.198 0 .394.021.587.065.029 0 .048.017.048.042v.298c-.006.023-.017.029-.041.029ZM22.622 26.755c-.18.027-.363.039-.546.036-.361 0-.681-.093-.681-.604v-.933c0-.511.323-.601.684-.601.182-.003.364.009.543.036.04 0 .056.02.056.057v.262a.055.055 0 0 1-.056.055h-.57c-.14 0-.18.044-.18.191v.257h.728a.055.055 0 0 1 .056.055v.268a.055.055 0 0 1-.056.055h-.729v.298c0 .147.049.191.18.191h.572a.055.055 0 0 1 .04.017.056.056 0 0 1 .015.04v.266c.003.032-.017.049-.056.054Z" fill="#D2FF00"/><path d="M24.885 26.767h-.37a.05.05 0 0 1-.02-.006.05.05 0 0 1-.026-.05v-1.172c0-.02-.008-.022-.014-.022-.005 0-.014 0-.022.019l-.254.463a.089.089 0 0 1-.084.048h-.225a.091.091 0 0 1-.084-.048l-.252-.463c-.009-.014-.014-.02-.023-.02-.008 0-.014 0-.014.023v1.17a.053.053 0 0 1-.045.058h-.372c-.022 0-.047-.009-.047-.04v-1.953a.092.092 0 0 1 .063-.091.092.092 0 0 1 .038-.005h.265a.14.14 0 0 1 .123.076l.43.801c.011.023.02.036.03.036.012 0 .021-.013.033-.036l.43-.8a.14.14 0 0 1 .122-.077h.265a.094.094 0 0 1 .072.027.095.095 0 0 1 .03.072v1.95c0 .031-.026.04-.05.04ZM26.546 26.755c-.18.027-.363.039-.546.036-.361 0-.682-.093-.682-.604v-.933c0-.511.323-.601.685-.601.182-.003.363.009.543.036.04 0 .056.02.056.057v.262a.055.055 0 0 1-.056.055h-.57c-.132 0-.18.044-.18.191v.257h.728a.055.055 0 0 1 .055.055v.268a.055.055 0 0 1-.055.055h-.729v.298c0 .147.049.191.18.191h.571a.055.055 0 0 1 .04.017.056.056 0 0 1 .016.04v.266c0 .032-.017.049-.056.054ZM28.501 26.766h-.277a.146.146 0 0 1-.147-.087l-.64-1.109c-.011-.016-.017-.022-.025-.022s-.015 0-.015.022v1.138a.055.055 0 0 1-.034.053.055.055 0 0 1-.022.004h-.331a.057.057 0 0 1-.057-.057v-1.923a.108.108 0 0 1 .107-.107h.277c.055 0 .085.029.118.087l.667 1.159c.01.016.013.022.022.022.008 0 .014 0 .014-.025v-1.19c0-.007.001-.014.004-.02a.056.056 0 0 1 .03-.03.053.053 0 0 1 .022-.003h.332a.054.054 0 0 1 .055.054v1.928a.108.108 0 0 1-.1.106ZM30.256 25.074H29.8v1.636c0 .015-.006.03-.017.04a.057.057 0 0 1-.04.016h-.367a.057.057 0 0 1-.057-.056v-1.636h-.457a.053.053 0 0 1-.04-.014.054.054 0 0 1-.017-.038v-.29a.054.054 0 0 1 .056-.054h1.395a.054.054 0 0 1 .04.014.057.057 0 0 1 .018.04v.29a.057.057 0 0 1-.018.038.054.054 0 0 1-.04.014Z" fill="#D2FF00"/></svg>