<svg width="1275" height="798" viewBox="0 0 1275 798" fill="none" xmlns="http://www.w3.org/2000/svg">
<path d="M782.433 235.472C778.592 244.254 778.647 246.372 775.401 255.398C773.161 261.577 770.956 266.025 769.316 272.404C768.224 276.642 767.173 280.907 765.908 285.104C761.181 300.882 756.025 316.523 751.73 332.416C748.645 343.816 744.79 354.932 741.106 366.11C739.226 371.84 737.732 377.702 736.087 383.524C735.719 384.84 735.561 386.268 734.961 387.469C728.573 400.372 726.565 414.694 721.874 428.141C718.616 437.477 715.124 446.72 711.784 456.002C710.855 458.568 710.031 461.19 709.144 463.782C708.183 466.634 707.2 469.483 706.218 472.332C704.538 477.261 702.838 482.165 701.137 487.092C701.042 487.348 701.032 487.636 700.959 487.895C700.147 491.208 700.898 493.871 704.067 495.578C707.255 497.31 709.99 499.525 711.788 502.771C712.863 504.714 712.79 506.574 711.187 507.997C709.338 509.639 707.444 511.275 705.367 512.557C700.238 515.703 694.9 518.515 689.79 521.685C686.901 523.478 684.235 523.45 681.215 522.204C675.644 519.897 669.953 517.866 664.965 514.311C662.738 512.73 660.143 511.665 657.862 510.167C654.295 507.837 653.469 504.855 655.261 500.917C656.637 497.933 658.418 495.106 659.666 492.064C663.817 481.893 667.689 471.625 671.861 461.456C678.629 444.926 683.897 427.873 689.487 410.923C693.534 398.673 697.967 386.554 702.188 374.345C708.944 354.9 715.959 335.528 722.288 315.924C725.669 305.468 729.844 295.277 732.92 284.765C737.103 270.484 745.053 255.93 751.047 242.361C754.815 233.838 755.144 236.698 758.784 228.117C761.013 222.848 762.317 221.725 763.974 216.193C764.681 213.825 769.966 207.471 770.927 205.22C772.19 202.247 774.569 201.243 777.648 201.961C782.652 203.16 786.579 206.064 789.971 209.775C791.358 211.307 791.842 213.162 791.379 215.135C790.172 220.205 788.981 220.518 782.46 235.43L782.433 235.472Z" fill="#D2FF00" stroke="#D2FF00" stroke-width="9.72758" stroke-linecap="round" stroke-linejoin="round"/>
<path d="M834.419 551.836C833.65 551.951 832.833 551.905 832.135 552.183C826.414 554.441 820.566 556.44 815.067 559.101C807.69 562.665 800.564 566.769 793.333 570.616C785.416 574.833 777.78 579.525 769.714 583.48C766.046 585.275 762.571 587.537 759.144 589.76C747.526 597.28 736.205 605.323 724.247 612.294C716.663 616.725 709.771 621.923 702.748 627.105C693.668 633.795 684.375 640.194 675.024 646.52C671.419 648.945 667.581 651.077 663.659 652.956C659.549 654.925 657.383 654.196 655.515 650.186C652.798 644.393 650.34 638.472 647.953 632.514C647.393 631.14 647.375 629.493 647.387 627.982C647.395 624.691 648.654 622.162 651.658 620.337C656.71 617.294 661.59 613.987 666.532 610.731C671.452 607.473 676.411 604.263 681.235 600.861C692.983 592.576 704.955 584.673 717.235 577.203C731.494 568.529 745.543 559.543 759.932 551.106C770.775 544.768 781.921 538.907 793.098 533.162C802.438 528.347 811.985 523.866 821.542 519.498C828.547 516.293 835.639 513.297 842.836 510.558C856.025 505.524 869.217 500.469 882.557 495.874C903.41 488.709 924.122 481.016 945.429 475.169C955.084 472.524 964.593 469.396 974.136 466.36C977.063 465.439 979.874 464.149 982.737 462.998C988.228 460.804 993.995 463.555 995.252 469.276C995.961 472.513 996.234 475.878 996.354 479.206C996.471 482.777 996.47 486.402 996.01 489.953C995.423 494.447 993.821 498.473 988.644 499.635C987.641 499.857 986.667 500.217 985.752 500.649C975.856 505.469 965.845 510.121 956.115 515.248C947.495 519.787 939.212 524.897 930.407 529.104C927.403 530.528 924.594 532.396 921.795 534.177C917.229 537.052 912.65 539.836 907.637 541.928C905.307 542.893 903.272 544.603 901.156 546.036C895.238 550.074 889.682 554.662 883.063 557.599C879.319 559.275 877.646 562.337 878.358 566.352C879.087 570.614 878.075 574.527 876.559 578.384C873.779 585.416 869.328 590.46 861.582 592.538C849.895 595.648 839.028 601.005 828.155 606.207C825.407 607.526 822.948 609.455 820.266 610.982C814.025 614.516 807.687 617.929 801.464 621.51C796.122 624.566 790.873 627.788 785.55 630.868C783.339 632.158 781.089 633.398 778.751 634.429C776.645 635.375 774.521 634.673 773.48 632.623C771.746 629.206 769.926 625.758 768.772 622.116C767.599 618.45 766.656 614.721 764.809 611.314C764.438 610.65 764.257 609.874 764.002 609.156C763.074 606.496 763.429 604.089 765.581 602.126C767.092 600.736 768.641 599.396 770.249 598.128C775.489 593.993 780.672 589.764 786.045 585.822C793.498 580.375 801.067 575.075 808.674 569.846C815.868 564.927 823.216 560.225 830.43 555.331C831.896 554.336 833.116 552.959 834.448 551.772C835.01 551.323 835.573 550.852 836.135 550.402L836.193 550.476C835.632 550.925 835.049 551.372 834.487 551.821L834.419 551.836Z" fill="#D2FF00"/>
<path d="M11.4037 686.032C14.2221 671.621 17.626 656.142 22.9194 641.071C29.761 621.658 39.0539 603.405 48.2833 585.124C54.0102 573.771 60.5574 562.842 66.8508 551.797C75.0541 537.36 83.0278 522.786 91.7316 508.65C103.938 488.785 116.599 469.237 131.25 451C139.889 440.258 148.426 429.439 157.468 419.076C170.461 404.168 181.968 388.007 196.079 374.046C204.619 365.607 212.153 356.211 220.918 347.952C242.071 328.032 264.345 309.638 288.699 293.742C307.061 281.764 325.876 270.504 344.98 259.853C365.338 248.519 386.422 238.466 408.568 230.866C413.284 229.253 418.087 228.45 423.008 227.794C432.849 226.482 439.208 231.322 444.254 238.775C446.813 242.572 448.941 246.655 451.237 250.623C451.76 251.526 452.349 252.436 452.776 253.395C456.446 261.63 454.492 266.017 445.801 268.591C440.375 270.192 434.825 271.312 429.47 273.076C410.291 279.382 392.173 288.162 373.945 296.73C360.785 302.901 348.244 310.119 335.832 317.574C321.919 325.93 308.021 334.355 295.437 344.771C288.114 350.854 280.183 356.203 272.582 361.989C269.229 364.553 265.622 367 262.851 370.141C253.969 380.255 244.253 389.476 234.114 398.294C232.516 399.674 231.174 401.349 229.776 402.929C224.618 408.741 219.48 414.577 214.344 420.391C212.714 422.256 210.918 424.014 209.537 426.041C203.895 434.223 197.202 441.444 190.074 448.372C187.583 450.787 185.751 453.875 183.658 456.713C177.795 464.67 171.994 472.679 166.112 480.612C162.345 485.71 158.373 490.652 154.689 495.804C146.9 506.707 138.695 517.34 132.226 529.167C129.355 534.409 125.522 539.1 122.129 544.039C121.731 544.618 121.184 545.135 120.914 545.773C117.748 552.872 113.477 559.316 109.43 565.94C106.522 570.711 104.464 576.043 100.819 580.443C99.921 581.522 99.1135 582.789 98.7015 584.1C96.3123 591.619 91.7185 597.96 87.9645 604.75C83.7081 612.463 78.7802 619.812 76.3134 628.435C75.7357 630.439 74.6575 632.344 73.6721 634.214C63.1594 654.044 56.4502 675.273 51.8601 697.049C48.5466 712.716 49.3366 728.683 53.2972 744.333C53.9011 746.712 54.9394 748.984 55.9802 751.235C57.0747 753.602 58.9891 755.193 61.5792 755.702C69.5667 757.276 77.5785 758.429 85.7673 756.778C100.122 753.875 113.447 748.612 125.805 740.64C142.837 729.626 157.853 716.322 172.049 701.993C192.228 681.631 210.033 659.206 228.63 637.469C242.4 621.358 256.315 605.352 269.844 589.014C285.17 570.495 300.065 551.662 315.228 533.014C319.242 528.099 323.36 523.24 327.757 518.678C331.322 515.003 334.053 515.038 338.053 517.883C345.104 522.889 350.126 529.761 354.791 536.838C356.791 539.862 357.283 543.452 356.575 547.043C355.532 552.243 353.876 557.152 351.196 561.881C345.605 571.804 337.702 579.914 330.741 588.75C321.58 600.39 311.764 611.513 302.151 622.814C295.966 630.068 289.415 637.015 283.496 644.477C269.899 661.631 255.919 678.43 241.121 694.583C238.742 697.189 236.83 700.202 234.451 702.807C227.585 710.387 221.649 718.803 213.511 725.219C211.613 726.699 210.337 728.982 208.81 730.926C207.492 732.581 206.575 734.837 204.882 735.873C196.06 741.234 189.934 749.763 181.434 755.427C179.103 756.993 176.885 758.748 174.809 760.631C166.9 767.784 158.384 774.002 148.712 778.603C145.215 780.261 141.764 782.103 138.45 784.116C135.375 785.977 132.192 787.204 128.617 787.764C125.856 788.193 123.13 789.114 120.489 790.067C113.055 792.735 105.115 793.547 97.5597 793.288C88.1227 792.955 78.741 790.516 70.1615 785.852C57.7024 779.068 45.9826 771.233 35.2458 761.949C23.0293 751.367 15.5424 738.04 12.7192 722.16C10.6812 710.637 10.0785 699.006 11.4183 686.1L11.4037 686.032Z" fill="#D2FF00" stroke="#D2FF00" stroke-width="2.4319" stroke-linecap="round" stroke-linejoin="round"/>
<path d="M542.452 488.564C539.842 497.883 539.108 507.52 535.551 516.556C532.605 524.08 531.004 532.109 527.48 539.436C525.802 542.942 524.163 546.496 522.295 549.915C518.255 557.273 514.526 564.844 509.886 571.803C502.921 582.285 495.087 592.181 486.582 601.514C486.379 601.736 486.177 601.959 485.952 602.178C479.313 609.116 470.386 613.02 463.51 619.887C456.961 626.412 448.502 630.902 439.752 634.203C433.88 636.422 427.884 638.56 421.75 639.727C412.958 641.4 404.697 640.085 397.021 634.498C388.992 628.673 380.949 622.979 373.824 616.029C368.224 610.561 364.868 604.119 363.674 596.425C362.217 587.079 362.517 577.95 366.001 568.973C370.549 557.222 375.392 545.616 381.004 534.295C390.604 514.875 401.852 496.439 413.808 478.437C423.098 464.432 432.825 450.697 444.961 438.898C446.906 437 447.508 434.776 446.69 432.328C445.756 429.512 444.764 426.622 443.242 424.096C438.176 415.618 438.599 410.795 445.921 403.11C451.052 397.74 457.168 393.124 463.422 389.057C470.658 384.365 479.184 383.486 487.679 383.692C490.007 383.75 492.402 384.615 494.595 385.503C502.258 388.598 509.039 393.24 513.716 400.007C519.333 408.124 525.429 415.937 529.912 424.862C537.856 440.686 542.196 457.335 542.254 475.088C542.268 479.582 542.37 484.085 542.433 488.54L542.452 488.564ZM510.628 461.446C511.124 456.964 511.796 452.501 512.07 448.017C512.492 440.792 511.952 433.615 510.085 426.581C509.283 423.579 507.832 421.017 505.002 419.458C501.457 417.531 497.683 416.869 493.687 417.405C492.13 417.61 491.23 419.512 492.126 420.857C493.785 423.353 495.682 425.698 497.199 428.268C501.945 436.422 501.597 437.962 494.018 443.95C493.068 444.69 492.121 445.408 491.172 446.148C483.617 452.117 476.739 458.806 470.178 465.841C461.55 475.071 454.248 485.382 447.245 495.816C438.56 508.776 430.495 522.161 422.433 535.523C418.564 541.945 415.218 548.668 411.808 555.363C410.164 558.561 408.794 561.901 407.509 565.273C404.582 572.821 401.783 580.429 398.964 588.011C398.455 589.401 397.806 590.841 397.712 592.298C397.447 596.495 397.383 600.691 397.363 604.892C397.354 607.381 398.97 608.65 401.577 608.205C410.308 606.681 418.083 602.738 425.522 598.224C430.646 595.122 435.549 591.617 440.273 587.914C445.459 583.863 450.473 579.548 455.266 575.03C465.777 565.052 474.184 553.395 482.025 541.231C492.873 524.396 500.02 506.039 506.203 487.153C508.931 478.782 509.538 470.087 510.648 461.47L510.628 461.446Z" fill="#D2FF00" stroke="#D2FF00" stroke-width="9.72758" stroke-linecap="round" stroke-linejoin="round"/>
<path d="M543.699 598.685C545.264 591.786 546.506 584.784 548.414 577.99C553.497 559.805 558.667 541.63 564.159 523.557C573.603 492.49 583.755 461.656 595.149 431.249C598.873 421.32 602.599 411.369 606.43 401.474C607.39 399.023 608.778 396.73 610.015 394.399C612.749 389.186 615.994 384.186 618.198 378.736C625.392 360.963 632.696 343.202 638.588 324.929C639.7 321.516 641.139 318.362 643.718 315.756C644.923 314.511 646.177 313.026 646.687 311.437C650.99 298.281 657.712 285.97 660.453 272.263C660.799 270.545 661.558 268.916 662.184 267.273C663.46 263.99 664.908 260.747 666.098 257.432C667.507 253.54 668.695 249.647 671.312 246.289C673.928 242.954 674.761 238.843 675.199 234.688C675.991 227.126 681.034 225.171 688.036 228.414C692.225 230.346 693.63 232.926 693.153 237.632C692.927 239.675 692.652 241.758 692.187 243.752C688.375 259.498 685.062 275.366 681.534 291.165C677.664 308.439 672.496 325.391 666.491 342.073C661.485 355.952 656.735 369.926 651.686 383.8C648.045 393.783 644.276 403.729 640.252 413.558C632.417 432.706 625.997 452.322 619.405 471.896C615.828 482.509 612.334 493.175 609.295 503.958C606.806 512.778 603.978 521.45 601.04 530.109C599.353 535.104 598.498 540.413 597.414 545.586C597.078 547.217 598.069 548.505 599.541 549.069C604.768 551.071 610.051 552.968 615.33 554.909C619.238 556.364 622.842 558.364 625.982 561.136C627.945 562.888 628.696 565.15 627.523 567.511C625.949 570.673 624.247 573.798 622.217 576.665C619.341 580.75 616.174 584.647 613.049 588.571C603.492 600.567 593.591 612.258 582.899 623.262C579.386 626.876 575.407 627.659 570.781 626.257C570.5 626.181 570.197 626.103 569.943 625.986C562.731 622.63 555.524 619.23 548.285 615.916C544.242 614.067 542.601 611.017 543.104 606.669C543.396 604.033 543.688 601.397 543.982 598.738L543.658 598.658L543.699 598.685Z" fill="#D2FF00" stroke="#D2FF00" stroke-width="9.72758" stroke-linecap="round" stroke-linejoin="round"/>
<path d="M1255.43 207.353C1255.43 207.353 1255.48 208.049 1255.58 208.793C1255.89 211.407 1254.55 213.039 1252.38 214.177C1246.21 217.453 1240.14 220.917 1233.19 222.394C1231.48 222.76 1229.79 223.196 1228.13 223.724C1221.58 225.779 1216.05 229.169 1211.47 234.534C1205.36 241.752 1201.63 240.538 1194.58 246.897C1191.82 249.393 1189.45 252.311 1186.74 254.88C1184.77 256.753 1182.7 258.57 1180.45 260.099C1178.4 261.474 1176.15 261.292 1174.26 259.503C1172.99 258.295 1171.7 257.129 1170.53 255.821C1166.66 251.59 1162.9 247.259 1158.98 243.067C1156.43 240.361 1154.01 234.711 1155.69 231.427C1157.3 228.336 1159.85 227.173 1162.58 225.007C1168.36 220.442 1169.39 220.557 1175.99 215.728C1181.44 211.75 1186.9 207.839 1192.66 204.364C1196.14 202.258 1199.04 199.577 1200.89 195.912C1201.49 194.733 1200.62 193.19 1199.33 193.181C1198.33 193.16 1197.33 193.138 1196.36 193.319C1189.38 194.616 1182.43 193.779 1175.47 193.386C1170.76 193.132 1166.9 191.171 1163.56 187.82C1157.92 182.125 1152.77 176.04 1148.3 169.429C1144.83 164.331 1143.42 158.459 1143.92 152.331C1144.32 147.083 1145.56 141.905 1148.52 137.452C1151.27 133.308 1154.01 129.031 1157.48 125.478C1164.6 118.149 1171.97 111.092 1180.17 104.884C1186.36 100.209 1192.67 95.8812 1199.52 92.2145C1204.58 89.5274 1209.37 86.3669 1214.19 83.2527C1216.27 81.9044 1218.05 80.1218 1220 78.5588C1221.47 77.3865 1223.18 76.7756 1224.86 77.8514C1231.2 81.9107 1237.43 86.0701 1240.41 93.4944C1242.23 97.9655 1241.58 100.629 1237.47 102.954C1225.04 109.984 1213.71 118.515 1202.78 127.647C1200.48 129.571 1198.08 131.351 1195.62 133.059C1189 137.641 1183.99 143.936 1178.26 149.462C1174.8 152.815 1172.62 157.043 1171.07 161.587C1170.32 163.75 1171.85 165.787 1174.13 165.506C1178.57 164.952 1183.03 164.267 1187.41 163.418C1195.25 161.884 1202.96 159.78 1210.97 159.176C1212.2 159.09 1213.46 158.784 1214.7 158.833C1219.88 158.985 1224.58 160.372 1227.88 164.718C1232.72 171.035 1238.25 176.896 1240.86 184.68C1241.36 186.181 1242.46 187.037 1244.14 187.356C1250.58 188.647 1253.61 193.208 1255.09 199.11C1255.41 200.301 1255.53 201.561 1255.59 202.813C1255.66 204.043 1255.52 205.295 1255.45 207.334L1255.43 207.353Z" fill="#D2FF00" stroke="#D2FF00" stroke-width="4.86379" stroke-linecap="round" stroke-linejoin="round"/>
<path d="M937.741 309.69C938.237 300.182 941.575 290.922 943.717 281.419C944.723 276.949 946.77 272.728 948.298 268.36C949.215 265.704 950.156 263.028 950.88 260.306C951.443 258.234 951.042 256.232 949.75 254.443C949.152 253.621 948.436 252.852 947.936 251.952C944.596 245.956 945.293 243.475 951.177 240.146C954.975 237.987 958.767 235.871 962.545 233.687C965.491 231.99 967.694 229.565 969.484 226.65C980.325 208.88 992.01 191.715 1004.96 175.38C1007.83 171.761 1010.27 167.806 1013.12 164.185C1016.77 159.54 1020.66 155.101 1024.39 150.532C1031.21 142.191 1038.13 133.906 1044.7 125.382C1052.87 114.812 1061.72 104.827 1070.64 94.9181C1074.93 90.1442 1079 85.1679 1083.44 80.5453C1090.91 72.7873 1098.69 65.3319 1106.16 57.5519C1113.63 49.7719 1120.91 41.8163 1128.16 33.8338C1130.03 31.7509 1131.48 29.2873 1133.16 27.0263C1134.99 24.5382 1136.78 22.0453 1138.67 19.6304C1139.63 18.4022 1140.97 18.1282 1142.07 18.8284C1147.81 22.4216 1152.6 26.9771 1156.24 32.7168C1158.07 35.6331 1158.04 38.3426 1156 41.275C1149.59 50.5728 1142.99 59.7389 1135.58 68.2585C1126.15 79.0905 1116.72 89.9225 1107.33 100.803C1104.32 104.295 1101.45 107.914 1098.5 111.479C1093.91 116.997 1089.3 122.513 1084.7 128.032C1079.93 133.753 1075.25 139.528 1070.38 145.149C1067.54 148.438 1064.12 151.261 1061.57 154.76C1059.16 158.051 1057.35 161.765 1054.3 164.607C1053.73 165.123 1053.1 165.653 1052.78 166.329C1049.85 172.455 1044.88 177.019 1040.76 182.234C1038.07 185.65 1035.77 189.376 1033.34 193C1033.1 193.373 1033.15 193.935 1033.08 194.394C1033.76 194.491 1034.5 194.818 1035.12 194.664C1037.84 193.943 1040.54 193.107 1043.25 192.273C1053.61 189.149 1064.12 186.821 1074.86 185.765C1081 185.155 1087.19 184.928 1093.21 186.751C1095.65 187.487 1098.08 188.424 1100.28 189.646C1108.03 193.951 1114.51 199.673 1119.33 207.211C1122.36 211.972 1125.63 216.582 1128.56 221.399C1132.91 228.53 1135.29 236.177 1135.62 244.664C1136.14 258.821 1133.26 272.202 1127.93 285.177C1127.35 286.603 1126.66 287.995 1126.23 289.46C1121.36 306.178 1112.73 320.99 1103.14 335.318C1099.44 340.868 1095.92 346.549 1092.11 351.999C1089.18 356.189 1086.35 360.635 1082.67 364.12C1076.49 369.974 1071.24 376.576 1065.69 382.944C1061.13 388.177 1055.87 392.71 1050.1 396.63C1048.17 397.929 1046.05 399.029 1044.47 400.633C1038.08 407.131 1029.75 409.856 1021.47 412.542C1017.37 413.867 1013.26 415.213 1008.76 415.293C996.547 415.498 985.298 412.451 975.294 405.584C968.743 401.078 962.412 396.196 956.532 390.853C945.744 381.03 939.341 368.556 936.745 354.236C934.38 341.254 934.177 328.221 936.62 315.193C936.949 313.428 937.322 311.668 937.753 309.58L937.741 309.69ZM1107.39 248.722C1109.18 240.403 1110.92 233.123 1110.38 225.59C1110.21 223.303 1109.84 221.016 1109.21 218.812C1108.64 216.747 1107.11 215.31 1105.01 214.632C1103.78 214.23 1102.55 213.872 1101.32 213.535C1093.72 211.515 1086.08 211.803 1078.41 213.022C1064.62 215.21 1051.47 219.536 1038.66 224.923C1026.62 229.996 1014.79 235.602 1002.91 241.07C1000.34 242.252 997.999 243.884 996.436 246.357C991.503 254.151 985.987 261.591 982.622 270.292C981.339 273.641 979.864 276.925 978.303 280.177C972.379 292.509 968.456 305.44 966.031 318.916C963.4 333.436 962.82 347.916 964.823 362.571C965.704 369.073 967.942 374.97 970.561 380.842C971.627 383.272 973.416 384.983 975.838 386.207C980.516 388.549 985.377 389.843 990.669 389.65C1000.67 389.29 1009.81 386.099 1018.25 380.94C1027.51 375.293 1035.6 368.115 1043.3 360.584C1054.55 349.598 1064 337.123 1072.92 324.233C1076.42 319.172 1080.11 314.154 1082.89 308.702C1088.71 297.315 1095.08 286.189 1099.68 274.156C1103 265.494 1106.16 256.859 1107.39 248.722Z" fill="#D2FF00" stroke="#D2FF00" stroke-width="10.4586" stroke-linecap="round" stroke-linejoin="round"/>
<path d="M933.37 231.416C933.369 234.24 933.277 237.077 933.366 239.889C933.482 243.059 934.916 244.174 937.791 243.314C942.943 241.772 948.139 240.234 953.211 238.416C957.148 237.006 961.246 236.748 965.293 236.151C967.736 235.777 969.78 236.803 971.577 238.448C975.494 242.039 977.893 246.486 978.942 251.673C979.289 253.357 978.687 254.78 977.318 255.696C974.965 257.259 972.52 258.656 970.111 260.124C968.584 261.067 966.878 261.812 965.57 262.98C963.62 264.721 961.636 266.169 958.944 266.583C957.721 266.781 956.476 267.377 955.481 268.134C953.128 269.898 950.522 270.743 947.617 270.866C945.786 270.931 943.968 271.285 942.831 272.916C940.328 276.442 936.269 277.75 932.921 280.07C931.669 280.932 930.222 281.55 928.838 282.198C925.387 283.839 923.284 286.364 922.263 290.165C920.311 297.355 917.78 304.347 914.648 311.139C912.948 314.842 911.561 318.736 910.264 322.618C908.157 328.99 905.016 334.869 901.894 340.773C900.574 343.251 899.442 345.839 898.247 348.397C897.925 349.096 897.794 349.882 897.452 350.555C893.865 357.653 890.323 364.733 886.672 371.801C883.842 377.27 881.077 382.768 877.976 388.074C874.105 394.717 870.126 401.327 865.821 407.677C860.483 415.515 854.916 423.216 849.165 430.764C844.037 437.513 838.247 443.81 831.539 448.961C823.664 455.005 814.761 458.89 804.509 458.689C802.712 458.646 800.862 458.686 799.153 458.252C789.61 455.861 780.589 452.172 772.685 446.226C766.217 441.374 762.68 434.555 761.83 426.566C761.443 423.031 761.431 419.316 762.106 415.833C764.301 404.445 767.526 393.393 773.683 383.378C776.369 379.005 778.557 374.31 781.425 370.091C786.744 362.229 792.372 354.579 797.876 346.848C798.166 346.436 798.481 346.003 798.832 345.642C809.426 334.116 819.437 322.037 831.235 311.69C844.168 300.334 857.45 289.439 871.555 279.548C877.653 275.286 884 271.385 890.233 267.316C891.743 266.327 893.252 265.359 894.782 264.395C896.839 263.088 898.156 261.232 898.683 258.889C901.27 247.366 904.251 235.909 904.127 223.975C904.101 220.392 904.212 216.779 904.186 213.196C904.068 198.194 901.999 183.531 896.804 169.39C896.528 168.67 896.32 167.936 896.022 167.213C892.936 159.333 890.707 157.974 882.078 158.175C874.943 158.342 868.514 160.766 862.347 164.041C860.763 164.889 859.282 166.015 857.618 166.587C848.944 169.607 841.784 175.019 834.952 180.89C832.641 182.881 830.723 185.337 828.608 187.571C827.375 188.858 826.199 190.24 824.828 191.378C823.332 192.636 821.536 192.793 819.8 191.8C818.691 191.166 817.566 190.485 816.616 189.624C812.057 185.405 808.276 180.584 805.565 174.946C804.587 172.925 804.496 170.936 805.811 169.102C808.495 165.352 811.02 161.428 814.109 158.034C820.74 150.762 828.798 145.271 837.435 140.579C839.47 139.47 841.599 138.527 843.575 137.344C852.034 132.254 861.49 131.01 870.987 130.994C877.149 130.987 883.11 133.181 888.377 136.633C901.752 145.386 912.717 156.63 919.525 171.061C925.887 184.508 930.679 198.671 932.106 213.707C932.658 219.573 933.278 225.423 933.851 231.291L933.424 231.333L933.37 231.416ZM791.472 428.602C791.159 433.438 792.577 434.484 795.499 433.006C797.995 431.748 800.624 430.505 802.734 428.715C810.972 421.798 818.866 414.577 825.268 405.768C834.451 393.129 843.55 380.438 851.034 366.677C853.853 361.496 856.734 356.367 859.72 351.293C865.33 341.795 870.14 331.898 874.381 321.715C874.681 321.014 874.851 320.277 875.024 319.517L874.692 318.902L874.011 318.827C873.369 319.201 872.703 319.594 872.157 320.112C864.807 326.837 857.453 333.607 850.103 340.332C849.164 341.184 848.18 342.032 847.124 342.737C843.295 345.383 840.069 348.606 837.398 352.447C836.39 353.914 835.094 355.172 833.921 356.532C831.618 359.257 829.292 361.98 827.009 364.729C824.059 368.272 821.068 371.788 818.243 375.412C816.508 377.622 814.937 379.961 813.449 382.354C811.556 385.391 809.953 388.616 808.021 391.605C801.698 401.313 796.662 411.652 793.105 422.689C792.325 425.116 791.781 427.613 791.54 428.587L791.472 428.602Z" fill="#D2FF00" stroke="#D2FF00" stroke-width="10.4586" stroke-linecap="round" stroke-linejoin="round"/>
</svg>
