<svg width="183" height="82" viewBox="0 0 183 82" fill="none" xmlns="http://www.w3.org/2000/svg"><path d="M182.205 60.614c-.235.87-.826 1.368-1.659 1.663-.93.329-1.869.607-2.847.732-2.403.307-4.57-.23-6.421-1.85-1.181-1.037-2.036-2.313-2.728-3.71-.076-.153-.186-.29-.279-.433-.114.127-.244.243-.337.383-.942 1.414-2.157 2.553-3.53 3.531-1.202.857-2.495 1.537-3.902 1.987-1.017.326-2.056.542-3.131.504-1.951-.07-3.59-.795-4.852-2.316-.426-.511-.264-.54-.818-.051-.667.59-1.358 1.135-2.156 1.535-.955.479-1.963.72-3.034.657-1.157-.068-2.145-.53-2.988-1.314-1.033-.962-1.729-2.154-2.321-3.412-.7-1.489-1.224-3.044-1.778-4.588-.354-.984-.694-1.974-1.19-2.9a5.714 5.714 0 0 0-.514-.813c-.45-.58-.993-.648-1.607-.23-.417.285-.749.659-1.053 1.055-.676.886-1.233 1.846-1.753 2.83-.933 1.768-1.672 3.62-2.43 5.466a30.245 30.245 0 0 1-1.021 2.184 5.307 5.307 0 0 1-.643.96c-.393.475-.881.795-1.538.767a1.202 1.202 0 0 1-.786-.322 2.277 2.277 0 0 1-.608-.915 6.046 6.046 0 0 1-.37-1.839c-.051-1.027-.071-2.055-.102-3.084-.004-.128 0-.257-.005-.387 0-.028-.019-.056-.029-.085-.038.022-.086.035-.111.065-.051.062-.087.135-.129.204-.823 1.317-1.779 2.527-2.909 3.592-.988.932-2.066 1.739-3.336 2.268-1.33.553-2.682.62-4.066.255-1.896-.502-3.328-1.644-4.443-3.216-.704-.992-1.221-2.08-1.614-3.228-.051-.151-.095-.308-.153-.457-.02-.05-.075-.088-.115-.13-.032.032-.074.06-.094.099-.06.113-.113.232-.168.346-.626 1.332-1.386 2.581-2.377 3.678-1.469 1.624-3.228 2.74-5.436 3.068-.901.133-1.796.145-2.685-.074-1.37-.337-2.44-1.127-3.315-2.209-.934-1.153-1.554-2.477-2.06-3.857-.658-1.788-1.1-3.633-1.478-5.495-.39-1.922-.76-3.851-1.16-5.772-.204-.977-.45-1.945-.92-2.837a3.251 3.251 0 0 0-.417-.585c-.255-.3-.582-.309-.924-.169-.388.159-.678.442-.89.79-.225.37-.435.754-.612 1.15-.534 1.195-.852 2.46-1.134 3.734-.51 2.31-.85 4.65-1.093 7.003-.117 1.135-.21 2.272-.295 3.411-.05.673-.06 1.349-.097 2.022-.042.745-.164 1.472-.6 2.107-.071.105-.15.21-.241.299-.803.785-1.856.717-2.567-.16-.456-.562-.654-1.217-.654-1.927 0-1.578.021-3.155.023-4.732 0-1.062.012-2.125-.033-3.186a66.722 66.722 0 0 0-.254-3.652 54.586 54.586 0 0 0-.42-3.25c-.16-1.003-.401-1.99-.885-2.895a3.867 3.867 0 0 0-.402-.598c-.49-.597-1.264-.449-1.664-.04-.297.301-.518.653-.718 1.023-.454.84-.768 1.735-1.048 2.642-.538 1.74-.923 3.518-1.227 5.31-.285 1.68-.534 3.366-.763 5.055-.141 1.05-.218 2.11-.323 3.166-.092.916-.232 1.818-.671 2.649-.185.35-.44.638-.748.872-.53.403-1.132.363-1.632-.079-.424-.375-.68-.855-.843-1.383-.164-.526-.274-1.064-.255-1.614.041-1.237.106-2.473.153-3.708.022-.595.032-1.19.035-1.785.005-1.352.028-2.704-.007-4.056a78.082 78.082 0 0 0-.2-3.851 55.48 55.48 0 0 0-.84-6.357c-.4-2.089-.899-4.15-1.601-6.158-1.022-2.92-2.37-5.668-4.24-8.146-1.308-1.735-2.832-3.247-4.624-4.484-1.908-1.319-4.01-2.186-6.27-2.673a14.298 14.298 0 0 0-1.381-.218c-.454-.052-.479-.025-.636.398-.522 1.402-1.058 2.8-1.562 4.206-.955 2.666-1.894 5.335-2.836 8.006-.298.85-.585 1.704-.876 2.557a2.091 2.091 0 0 0-.102.37c-.006.04.057.122.099.13.108.024.224.019.337.02 1.257.009 2.515-.003 3.77.027.9.022 1.798.1 2.696.157.497.031.994.065 1.492.106 2.313.197 4.606.517 6.84 1.17 1.009.296 1.992.658 2.856 1.274.236.167.458.357.663.56.652.64.826 1.434.686 2.31-.159 1-.67 1.837-1.273 2.62-.892 1.157-1.968 2.124-3.163 2.958-.568.396-1.159.758-1.751 1.117-.192.116-.277.248-.257.465.027.288.068.577.065.863a11.902 11.902 0 0 1-.486 3.33c-.509 1.69-1.367 3.185-2.516 4.52a16.637 16.637 0 0 1-3.435 3.018c-.556.368-.54.247-.516 1.012.052 1.592.132 3.182.085 4.775a92.18 92.18 0 0 1-.157 3.032c-.053.85-.115 1.7-.202 2.547-.181 1.763-.464 3.511-1.003 5.203-.397 1.247-.933 2.434-1.775 3.458-.731.887-1.626 1.5-2.774 1.712-.155.028-.304.092-.454.14h-.29c-.2-.058-.396-.125-.596-.175-.55-.133-1.082-.307-1.581-.58-1.157-.632-2.051-1.539-2.799-2.61-.94-1.343-1.6-2.823-2.128-4.365-.871-2.553-1.377-5.187-1.712-7.856-.06-.478-.109-.958-.17-1.435-.042-.32-.076-.335-.41-.297-.191.022-.383.044-.575.04-1.19-.025-2.382.065-3.572-.068-.542-.06-1.09-.073-1.635-.097-1.08-.047-2.143-.21-3.206-.392-2.22-.378-4.355-1.025-6.356-2.068-1.527-.796-2.892-1.81-4.052-3.085-.224-.245-.454-.363-.793-.356-1.335.025-2.669-.012-3.999-.177-1.265-.155-2.513-.377-3.738-.722-.9-.253-1.774-.577-2.585-1.059-.999-.591-1.818-1.33-2.125-2.507-.018-.072-.087-.13-.132-.195v-.868c.058-.147.129-.292.175-.444.144-.478.32-.942.57-1.379.852-1.492 2.027-2.692 3.376-3.735 1.213-.94 2.532-1.714 3.877-2.444 1.103-.6 2.216-1.18 3.331-1.758.314-.161.524-.375.678-.705.913-1.957 1.98-3.828 3.156-5.638a61.193 61.193 0 0 1 3.623-5.003c1.299-1.62 2.659-3.186 4.127-4.656.513-.512 1.027-1.022 1.538-1.536.273-.275.275-.28.11-.615-.43-.865-.838-1.74-1.299-2.587a276.05 276.05 0 0 0-2.655-4.763c-1.297-2.279-2.625-4.541-3.724-6.925-.445-.965-.84-1.95-1.06-2.996-.155-.738-.268-1.482-.173-2.245.135-1.076.65-1.833 1.73-2.141.044-.013.084-.043.128-.065h1.063l.677.24c.862.307 1.608.814 2.32 1.369a23.557 23.557 0 0 1 2.762 2.554 66.934 66.934 0 0 1 4.99 6.076c1.256 1.714 2.49 3.445 3.73 5.168.04.052.072.109.11.159.218.285.235.287.557.136.803-.373 1.595-.771 2.411-1.113a27.208 27.208 0 0 1 6.493-1.829c.762-.115 1.535-.167 2.304-.227.463-.035.471-.015.623-.438.414-1.15.821-2.303 1.23-3.454.486-1.364.955-2.734 1.464-4.088.265-.707.61-1.376 1.16-1.929.58-.583 1.276-.767 2.064-.74.483.016.928.128 1.297.447.554.476.776 1.095.711 1.812-.055.605-.289 1.148-.62 1.655-.263.404-.528.809-.764 1.23-.654 1.167-1.151 2.408-1.674 3.636a61.24 61.24 0 0 0-.669 1.656c-.142.363-.125.383.267.475.736.172 1.48.318 2.208.522a21.519 21.519 0 0 1 5.638 2.489 24.222 24.222 0 0 1 3.311 2.497c2 1.784 3.647 3.851 5.04 6.128 1.95 3.188 3.257 6.634 4.13 10.255.377 1.565.67 3.145.856 4.744.005.044.028.085.043.129.045-.037.105-.064.134-.109.337-.567.642-1.153 1.008-1.7.549-.822 1.225-1.534 2.088-2.044 1.175-.694 2.418-.827 3.722-.444 1.436.424 2.46 1.356 3.219 2.614.3.5.52 1.032.714 1.58.04.113.119.21.179.314.06-.09.13-.176.177-.273.335-.699.71-1.375 1.203-1.976.574-.698 1.21-1.33 1.978-1.827 1.62-1.05 3.969-.847 5.404.419.688.607 1.215 1.325 1.647 2.124.686 1.268 1.165 2.619 1.49 4.016.516 2.209.982 4.428 1.466 6.643.334 1.524.65 3.054 1.173 4.528.297.835.645 1.649 1.204 2.352.395.499.89.815 1.525.94.386.075.736-.025 1.09-.118.743-.198 1.313-.673 1.826-1.214.861-.91 1.477-1.985 2.026-3.1.97-1.973 1.657-4.047 2.236-6.16.197-.716.433-1.416.811-2.06.239-.403.513-.774.918-1.038 1.089-.707 2.459-.343 3.043.814.28.555.4 1.152.482 1.76.134.989.247 1.979.391 2.964.222 1.514.544 3.006 1.06 4.453.272.762.602 1.494 1.098 2.137.475.62 1.068 1.059 1.866 1.187.415.067.801-.026 1.186-.136.935-.265 1.646-.864 2.268-1.576a11.434 11.434 0 0 0 1.73-2.665c.747-1.586 1.458-3.19 2.178-4.788.469-1.044.964-2.07 1.638-3.003.353-.487.752-.925 1.271-1.239.726-.438 1.665-.366 2.246.18.275.259.459.579.574.938.18.555.247 1.13.286 1.708.025.385.063.769.063 1.154 0 .433-.038.865-.055 1.298 0 .037.032.074.05.11.023-.02.053-.034.068-.06.267-.421.521-.851.802-1.263.729-1.07 1.587-2.029 2.616-2.82.852-.653 1.781-1.145 2.846-1.373 1.581-.34 2.924.072 4.077 1.182.801.772 1.367 1.704 1.873 2.68.556 1.073.988 2.2 1.394 3.337.482 1.348.971 2.694 1.565 3.997.289.63.613 1.242 1.067 1.773.133.156.297.293.463.415.263.191.558.218.875.138.629-.158 1.152-.492 1.607-.939.725-.71 1.239-1.563 1.634-2.487.234-.545.427-1.11.613-1.675a10.836 10.836 0 0 1 1.767-3.304c1.876-2.4 4.268-4.027 7.233-4.788 1.047-.269 2.103-.452 3.19-.49.482-.017.96-.07 1.44.01.11.018.226.006.337.001.287-.012.299-.032.281-.31a17.945 17.945 0 0 1-.037-.867c-.032-1.544-.097-3.087-.08-4.63.015-1.38.103-2.762.193-4.14.054-.834.156-1.664.261-2.493a2.192 2.192 0 0 1 1.711-1.874c.806-.171 1.472.112 1.976.722.434.525.594 1.144.517 1.847-.117 1.07-.165 2.148-.245 3.221a59.94 59.94 0 0 0-.159 5.638c.022 1.044.087 2.088.157 3.128.057.865.129 1.732.227 2.594.252 2.194.658 4.358 1.389 6.448.372 1.067.826 2.1 1.517 3.004.58.76 1.306 1.329 2.258 1.564.699.172 1.402.133 2.101.005.604-.11 1.182-.313 1.749-.547.414-.17.835-.227 1.275-.102.75.212 1.279.654 1.516 1.413.018.06.048.118.071.178v1.159h.002ZM14.622 49.147c.033.362.053.879.135 1.384.077.473.204.942.339 1.404.153.523.177.526.662.331.448-.18.895-.363 1.337-.553 1.838-.792 3.597-1.724 5.232-2.884a16.065 16.065 0 0 0 2.74-2.424c1.471-1.654 2.457-3.568 3.005-5.707.02-.076.042-.156.047-.235.008-.115-.047-.188-.17-.17a3.22 3.22 0 0 0-.376.085c-1.098.31-2.203.605-3.295.939a71.2 71.2 0 0 0-5.647 1.977c-.972.387-1.926.817-2.89 1.224-.25.106-.415.261-.497.54-.377 1.288-.577 2.6-.624 4.09h.002Zm149.618-.305c-.525.06-1.168.104-1.799.214a9.218 9.218 0 0 0-3.4 1.315c-1.161.738-2.067 1.732-2.807 2.88-.42.654-.729 1.358-.864 2.131-.121.685-.224 1.372-.032 2.056.277.985.728 1.389 1.666 1.6.57.13 1.151.087 1.715-.056 2.332-.587 4.149-1.926 5.561-3.838 1.098-1.489 1.636-3.193 1.841-5.011.03-.27.039-.546.032-.819-.005-.252-.074-.327-.307-.348-.496-.046-.993-.077-1.607-.124h.001ZM44.723 62.51h-.033c0-.42.002-.837 0-1.255 0-.12-.075-.179-.192-.147-.155.042-.307.097-.459.148a35.834 35.834 0 0 1-5.654 1.416c-.838.14-.833-.03-.711.967.103.843.267 1.68.438 2.514.508 2.445 1.239 4.823 2.247 7.11.265.603.562 1.194.956 1.725.152.204.326.404.528.554.305.227.609.17.84-.137a2.52 2.52 0 0 0 .338-.58c.152-.388.292-.784.399-1.185.53-2.028.758-4.105.951-6.184.154-1.645.237-3.297.352-4.946ZM26.048 51.53l.003.014c1.06-.202 2.121-.389 3.176-.607 1.514-.312 3.02-.652 4.533-.967.319-.066.49-.203.554-.548.632-3.371 1.494-6.685 2.46-9.973.197-.668.25-.695-.542-.613-1.007.103-2.012.246-3.016.373-.38.048-.6.256-.66.623l-.03.19a16.671 16.671 0 0 1-2.146 6.207c-1.031 1.767-2.34 3.306-3.884 4.646-.218.19-.44.375-.659.566-.032.028-.046.076-.07.115.047 0 .092 0 .139-.004.048-.005.095-.013.143-.021h-.002Zm2.368-16.065c-.074-.514-.145-1.104-.247-1.69a32.109 32.109 0 0 0-1.01-4.122 47.053 47.053 0 0 0-.504-1.51c-.062-.18-.132-.19-.272-.045-.302.311-.594.633-.893.948-1.175 1.239-2.251 2.561-3.29 3.915a64.09 64.09 0 0 0-3.793 5.531c-.042.069-.09.135-.122.209-.015.035-.003.088.012.126.006.017.06.025.087.019.076-.022.151-.054.226-.079 1.618-.542 3.225-1.122 4.857-1.615 1.54-.465 3.108-.84 4.662-1.256.265-.071.293-.108.287-.43v-.001Zm4.424-.475.122-.019c.876-.11 1.75-.231 2.629-.328.782-.085 1.567-.142 2.351-.212.35-.032.38-.072.24-.373-.3-.657-.6-1.316-.916-1.966-1.231-2.547-2.617-5.013-4.05-7.452-.26-.443-.534-.878-.8-1.32-.085-.142-.188-.16-.319-.063-.634.466-1.276.923-1.902 1.4-.319.243-.274.21-.149.557.39 1.088.795 2.172 1.159 3.269.54 1.634.96 3.3 1.226 5.003.067.428.127.858.186 1.287.016.125.058.217.223.217Zm11.18-16.355c-.058-.031-.116-.095-.17-.09-.272.027-.542.06-.81.112-2.386.452-4.655 1.255-6.85 2.279-.407.19-.402.195-.157.593.833 1.357 1.676 2.708 2.49 4.075.567.953 1.093 1.93 1.64 2.896.03.051.084.091.126.136.038-.046.09-.088.115-.141.04-.087.063-.182.097-.274.597-1.647 1.191-3.294 1.797-4.938.521-1.417 1.057-2.83 1.584-4.246.045-.12.085-.242.142-.402h-.003ZM30.585 58.948v.023c.629 0 1.256.004 1.886 0 .193 0 .389-.004.577-.04.074-.013.15-.106.189-.183.033-.065.021-.157.021-.237-.013-1.288.127-2.567.253-3.847.026-.277.006-.297-.293-.234-.582.124-1.161.264-1.745.375-1.911.367-3.82.754-5.74 1.077-1.664.28-3.341.484-5.014.719-.333.047-.669.085-1.003.132-.045.006-.085.041-.127.063.03.035.054.085.092.102.454.206.902.428 1.367.61 1.462.568 2.984.918 4.533 1.14.938.133 1.884.233 2.83.293.723.047 1.45.01 2.175.01l-.001-.003Zm6.91-1.394.034.005c0 .226-.011.45.004.674.013.19.093.243.29.233.048-.001.097-.008.144-.016 2.066-.362 4.085-.886 6.023-1.7.494-.21.469-.116.406-.663-.15-1.308-.33-2.614-.508-3.917-.073-.545-.107-.555-.647-.4-1.653.478-3.305.961-4.96 1.43-.238.067-.341.182-.366.428-.134 1.31-.28 2.618-.424 3.926h.003Zm-9.168-36.337c.058-.039.113-.072.165-.109.34-.241.69-.473 1.018-.733.209-.165.494-.242.614-.514-.14-.231-.265-.475-.424-.695-1.41-1.935-2.814-3.877-4.247-5.796a76.828 76.828 0 0 0-3.847-4.765 5.865 5.865 0 0 0-.483-.472c-.035-.031-.111-.018-.168-.026 0 .045-.019.098 0 .136.147.339.279.687.454 1.01.891 1.638 1.772 3.281 2.698 4.899 1.287 2.245 2.612 4.467 3.923 6.7.056.096.115.193.18.285.025.033.075.05.118.076l-.001.004ZM9.996 52.892c.233 0 .393-.004.555 0 .38.01.38.01.296-.349-.019-.078-.034-.157-.054-.235-.312-1.155-.402-2.339-.42-3.527a9.897 9.897 0 0 1 .071-1.152c.04-.37-.07-.407-.362-.239-.042.023-.087.042-.13.065a24.371 24.371 0 0 0-3.405 2.187c-.459.352-.898.726-1.272 1.176-.4.483-.265.965.226 1.255.232.137.494.235.754.308 1.247.349 2.532.41 3.742.51Zm37.072-6.927c.125-.047.215-.077.304-.114.728-.298 1.457-.595 2.183-.901.34-.144.678-.297 1.006-.462.192-.097.204-.147.114-.347-.474-1.067-1.098-2.039-1.944-2.846-.92-.877-2.01-1.49-3.223-1.872-.142-.045-.332-.195-.44-.05-.063.085.024.299.074.444.574 1.687 1.1 3.389 1.549 5.114.077.295.155.59.244.882.018.06.09.105.133.153v-.001Zm-4.157 1.338c-.042-.178-.07-.321-.109-.46-.48-1.667-.956-3.334-1.447-4.998-.127-.43-.297-.848-.449-1.272-.015-.041-.05-.078-.075-.116-.038.041-.1.075-.115.123-.199.695-.397 1.39-.586 2.089a81.258 81.258 0 0 0-1.282 5.638c-.006.032-.014.063-.018.095-.017.167.057.232.232.2.079-.015.155-.043.232-.067 1.078-.323 2.156-.646 3.235-.971.091-.029.188-.056.267-.107.056-.037.086-.115.115-.155v.002Zm8.849-8.975-.144.058c.027.038.05.082.082.113.31.304.638.592.931.912a10.403 10.403 0 0 1 1.781 2.683c.127.273.185.293.439.145.596-.352 1.195-.699 1.767-1.085.398-.269.782-.572 1.044-.992.258-.414.185-.72-.24-.962-.084-.049-.176-.08-.264-.119-.598-.258-1.237-.371-1.873-.442-1.165-.13-2.335-.208-3.525-.31l.002-.001Zm-.237 10.746c.008-.265-.067-.319-.239-.264-.03.01-.06.024-.09.037-.985.399-1.97.795-2.953 1.195-.355.145-.37.189-.307.587.122.745.24 1.492.354 2.238.039.253.06.51.104.763.018.107.07.209.108.313.092-.054.196-.096.272-.168.224-.208.44-.425.651-.647a7.983 7.983 0 0 0 1.853-3.07c.115-.35.18-.716.247-.986v.002Z" fill="#111112"/><path d="M111.519 38.543a2.84 2.84 0 0 1-1.429-.381c-.973-.554-1.373-1.76-.949-2.848a2.753 2.753 0 0 1 1.15-1.382c1.28-.783 2.728-.178 3.349.797 1.05 1.649.077 3.378-1.5 3.743-.202.046-.414.048-.621.07v.001Z" fill="#111112"/></svg>