<svg width="209" height="135" viewBox="0 0 209 135" fill="none" xmlns="http://www.w3.org/2000/svg">
<path d="M158.501 78.7877C156.259 79.4354 153.997 80.0206 151.778 80.7394C146.513 82.4437 141.267 84.2105 136.015 85.9558C135.266 86.2048 134.505 86.4336 133.771 86.7229C132.583 87.1905 131.406 87.6546 130.397 88.5043C129.559 89.2116 128.543 89.7264 127.389 89.5869C126.243 89.4496 125.237 89.84 124.219 90.2295C122.076 91.0502 119.946 91.9089 117.797 92.7123C115.235 93.6687 115.252 93.6611 114.096 96.2134C113.695 97.0993 113.217 97.9649 112.651 98.7536C112.019 99.6373 111.372 99.7445 110.61 99.2921C109.95 98.8997 109.818 98.2555 110.207 97.3022C110.377 96.8843 110.58 96.4775 110.739 96.0559C110.894 95.6478 110.734 95.4519 110.313 95.6077C109.751 95.8161 109.205 96.0784 108.648 96.304C107.603 96.7304 106.533 97.1057 105.515 97.5925C105.066 97.8074 104.607 98.168 104.348 98.5856C102.096 102.234 99.7164 105.81 97.8609 109.688C96.9677 111.553 96.088 113.423 95.1926 115.289C94.9818 115.729 94.7595 116.171 94.4933 116.579C93.9901 117.345 92.9819 117.684 92.3465 117.339C91.7566 117.017 91.5125 116.216 91.8799 115.329C92.5976 113.591 93.3553 111.867 94.1606 110.165C95.5435 107.238 96.977 104.336 98.3905 101.423C98.439 101.322 98.5139 101.222 98.5274 101.116C98.548 100.95 98.5259 100.777 98.5194 100.608C98.3746 100.623 98.2146 100.605 98.0837 100.657C96.4159 101.339 94.7502 102.021 93.0922 102.727C91.7434 103.301 90.419 103.928 89.062 104.476C88.4392 104.727 87.9774 105.096 87.59 105.638C84.5774 109.864 81.5017 114.049 78.5374 118.308C76.0204 121.923 73.624 125.617 71.1737 129.277C70.8814 129.715 70.6123 130.174 70.2789 130.58C69.7034 131.284 68.9089 131.421 68.2847 130.977C67.562 130.462 67.4615 129.732 67.9435 128.891C69.4905 126.181 71.0261 123.464 72.5588 120.746C74.6117 117.107 76.6604 113.469 78.7012 109.821C78.8768 109.508 78.9707 109.148 79.103 108.811C78.7296 108.914 78.3375 108.973 77.9843 109.124C76.3247 109.832 74.6819 110.578 73.0224 111.287C69.5292 112.776 66.0292 114.244 62.5353 115.731C60.2162 116.717 57.8949 117.704 55.589 118.724C52.5275 120.077 49.4864 121.472 46.4285 122.83C42.9568 124.372 39.4769 125.895 35.9983 127.422C34.7946 127.952 33.5735 128.449 32.3781 128.997C31.4728 129.413 30.6597 129.202 29.9453 128.647C28.9716 127.889 29.3215 126.323 30.5906 125.828C31.8173 125.348 33.1001 125.014 34.3282 124.538C36.1142 123.846 37.8703 123.083 39.6382 122.349C39.7072 122.32 39.7672 122.27 39.837 122.243C42.0886 121.335 44.3542 120.457 46.5926 119.516C48.1506 118.861 49.6613 118.096 51.2123 117.426C53.9057 116.266 56.6143 115.146 59.316 114.005C61.9804 112.88 64.6419 111.747 67.3055 110.62C67.7558 110.431 68.2179 110.271 68.6695 110.087C71.1026 109.086 73.5301 108.075 75.9667 107.084C77.2827 106.55 78.6072 106.034 79.9413 105.548C80.9727 105.171 81.726 104.555 82.2976 103.579C84.7423 99.3887 87.2488 95.236 89.7319 91.0694C90.2127 90.2625 90.7014 89.4578 91.1581 88.6349C91.2693 88.433 91.2641 88.1639 91.3121 87.9277C91.0976 87.9179 90.8749 87.8679 90.6691 87.9075C88.6378 88.3003 86.6105 88.713 84.5806 89.1101C81.6656 89.6807 78.7472 90.2335 75.8341 90.8177C74.0637 91.1722 72.3049 91.5776 70.5365 91.9456C67.3764 92.6041 64.2151 93.244 61.0563 93.9068C59.841 94.1622 58.6352 94.4621 57.4247 94.7326C55.8103 95.0918 54.1931 95.4425 52.5773 95.7974C49.4547 96.4842 46.3259 97.1517 43.2073 97.8658C40.8988 98.3946 38.604 98.9808 36.3044 99.5448C33.1249 100.321 29.9508 101.122 26.7659 101.874C22.6309 102.849 18.4999 103.836 14.3433 104.707C12.5462 105.081 10.6939 105.239 8.85745 105.379C7.26888 105.5 5.71475 105.208 4.21865 104.622C2.59793 103.988 1.74154 102.535 3.24642 100.911C4.88469 99.1476 6.53882 97.3742 8.36838 95.8227C11.5227 93.147 14.778 90.5863 18.0634 88.0754C21.4333 85.5019 24.8836 83.0309 28.3218 80.5448C29.7492 79.5113 31.1651 78.4269 32.7089 77.5938C35.1315 76.2851 37.194 74.4667 39.5483 73.0705C41.9948 71.621 44.3797 70.0678 46.8164 68.6025C48.0355 67.8684 49.3191 67.2396 50.5571 66.5351C51.5956 65.9419 52.5962 65.2824 53.6396 64.6972C55.1686 63.8403 56.7164 63.0201 58.2615 62.1914C58.8234 61.8907 59.3978 61.6144 59.9617 61.3202C61.8876 60.3151 63.8029 59.292 65.7364 58.3034C67.1039 57.6027 68.4993 56.9595 69.8696 56.2674C71.103 55.6451 72.3044 54.9523 73.5525 54.361C74.933 53.7084 76.356 53.1514 77.7455 52.5196C78.2161 52.3051 78.6172 51.9323 79.094 51.7371C79.9958 51.3705 80.9372 51.1052 81.8411 50.745C82.2496 50.5812 82.5914 50.2535 82.9909 50.0616C84.5831 49.2986 86.1865 48.5557 87.7885 47.8156C88.9457 47.2818 90.0987 46.7423 91.2726 46.2459C92.0682 45.9109 92.9061 45.6787 93.703 45.348C95.1883 44.7331 96.6568 44.0737 98.1366 43.4416C99.6098 42.8116 101.085 42.1809 102.566 41.5674C103.882 41.0234 105.203 40.4895 106.531 39.9772C106.803 39.8711 107.123 39.8901 107.418 39.8337C107.707 39.7793 108.025 39.7632 108.274 39.6267C110.492 38.4142 112.922 37.7395 115.265 36.8433C116.753 36.2729 118.308 35.9515 119.776 35.252C121.198 34.5741 122.851 34.3928 124.379 33.9209C125.192 33.6705 125.953 33.2563 126.741 32.9262C127.084 32.7831 127.431 32.5677 127.786 32.5492C129.618 32.4531 131.135 31.2913 132.929 31.0552C133.271 31.0101 133.604 30.602 133.867 30.2969C137.217 26.4258 140.548 22.5366 143.897 18.6633C146.877 15.2191 149.864 11.7822 152.868 8.36117C154.084 6.97734 155.348 5.63275 156.603 4.28376C156.885 3.98243 157.201 3.708 157.534 3.46383C158.001 3.12187 158.475 3.21504 158.855 3.61401C159.234 4.01297 159.299 4.47674 158.926 4.93579C158.806 5.08099 158.672 5.21386 158.546 5.35397C154.862 9.427 151.162 13.4862 147.498 17.5788C145.792 19.4854 144.176 21.4746 142.479 23.3898C141.131 24.9087 139.717 26.3702 138.338 27.8608C138.057 28.1643 137.764 28.4669 137.54 28.8119C137.393 29.0369 137.359 29.3327 137.276 29.5993C137.522 29.5966 137.786 29.6499 138.013 29.5798C139.448 29.1475 140.867 28.6678 142.305 28.2484C142.759 28.1152 143.265 28.1601 143.725 28.0391C144.626 27.8034 145.512 27.5132 146.4 27.2365C146.684 27.1456 146.958 26.9608 147.246 26.94C149.216 26.7949 151.02 26.0044 152.907 25.539C153.053 25.5044 153.199 25.4267 153.345 25.43C155.298 25.49 157.031 24.4682 158.938 24.305C159.271 24.277 159.605 24.2439 159.94 24.2151C160.349 24.1794 160.801 24.2466 161.158 24.0921C162.547 23.489 164.022 23.6446 165.463 23.495C166.583 23.3794 167.688 23.1047 168.807 23.0156C170.374 22.8897 171.952 22.8084 173.522 22.8221C174.796 22.8329 176.069 23.0032 177.342 23.1213C179.707 23.3417 181.92 24.1641 183.551 25.8186C186.28 28.5901 186.907 31.0357 185.539 34.0692C184.41 36.5703 182.848 38.7727 181.056 40.8134C176.453 46.0614 171.285 50.7322 166.077 55.3638C163.544 57.615 161.062 59.919 158.555 62.1978C156.271 64.2746 153.971 66.3305 151.704 68.4233C149.38 70.5676 147.088 72.7466 144.784 74.9105C144.648 75.0398 144.488 75.1573 144.393 75.3135C144.282 75.4939 144.232 75.7094 144.156 75.9095C144.362 75.9528 144.577 76.06 144.771 76.0287C147.181 75.6529 149.585 75.2455 151.993 74.8725C153.773 74.5983 155.561 74.3736 157.34 74.1066C160.128 73.6882 162.911 73.2261 165.705 72.8321C168.121 72.4921 170.556 72.2697 172.97 71.9067C174.978 71.6046 176.971 71.2028 178.96 70.7974C180.356 70.5149 181.738 70.1636 183.121 69.8236C183.813 69.6548 184.521 69.5068 185.168 69.2265C185.537 69.0658 185.965 68.7104 186.083 68.3498C186.74 66.3487 187.323 64.3238 187.899 62.2966C188.055 61.7454 187.873 61.5994 187.317 61.727C187.063 61.7847 186.819 61.9004 186.569 61.9782C184.992 62.4703 183.418 62.971 181.837 63.4429C181.371 63.5824 180.884 63.6716 180.399 63.7292C178.981 63.8998 178.303 63.4893 177.736 62.205C177.483 61.6302 177.521 61.1241 177.929 60.6304C179.589 58.6295 180.655 56.3172 181.443 53.8633C181.638 53.2547 181.819 52.6387 182.048 52.0405C182.503 50.8547 183.187 50.7666 184.028 51.7044C184.808 52.5741 185.063 53.3737 184.435 54.5294C183.648 55.9758 183.117 57.5634 182.501 59.0999C182.416 59.315 182.382 59.6917 182.503 59.8119C182.642 59.9482 182.993 59.9332 183.232 59.8832C183.635 59.7995 184.026 59.6483 184.415 59.505C185.753 59.0036 187.081 58.4676 188.43 57.9913C189.138 57.7411 189.572 57.2914 189.75 56.5766C190.946 51.7593 192.529 47.0349 193.273 42.1104C193.35 41.6083 193.445 41.1387 193.97 40.9091C194.52 40.6669 194.899 40.99 195.284 41.3039C196.218 42.0625 196.59 42.9222 196.199 44.1731C195.457 46.5409 194.839 48.9497 194.202 51.3482C193.939 52.3374 193.972 52.3528 195.033 52.5198C196.116 52.6914 197.214 52.813 197.955 53.776C198.069 53.9248 198.205 54.0546 198.311 54.2083C199.3 55.6359 199.112 56.5059 197.55 57.2829C196.002 58.0558 194.422 58.7697 192.834 59.4577C192.271 59.7019 191.874 60.0211 191.708 60.6158C191.067 62.8969 190.408 65.1763 189.784 67.4612C189.584 68.195 189.663 68.2625 190.41 68.1022C191.916 67.7774 193.407 67.3508 194.928 67.107C198.265 66.5724 201.599 65.9726 205.003 66.0484C205.989 66.0706 206.633 66.5487 207.013 67.4178C207.341 68.1682 206.982 68.7555 206.186 68.8959C202.45 69.5508 198.72 70.2395 194.979 70.8793C193.238 71.1769 191.488 71.4371 189.729 71.6121C188.797 71.7057 188.307 72.0903 188.096 72.9915C187.831 74.1259 187.449 75.2338 187.182 76.3668C187.073 76.8291 187.101 77.3332 187.119 77.8143C187.173 79.1037 186.43 79.7163 185.188 79.3818C183.652 78.9677 182.957 77.3892 183.626 75.945C183.957 75.2314 184.22 74.4797 184.447 73.7255C184.802 72.5478 184.57 72.3274 183.314 72.5387C182.498 72.676 181.678 72.7839 180.865 72.9369C179.277 73.2328 177.672 73.4705 176.112 73.8741C171.338 75.11 166.58 76.4028 161.823 77.6976C160.697 78.0028 159.597 78.402 158.485 78.7575L158.494 78.7876L158.501 78.7877ZM80.3715 111.249C80.4234 111.159 80.4775 111.068 80.5294 110.978C80.6971 110.782 80.8642 110.583 81.0319 110.387C81.0833 110.281 81.1347 110.174 81.1833 110.066C82.3267 109.489 82.6591 108.247 83.4037 107.344C83.4843 107.247 83.4715 107.073 83.5025 106.932C83.3375 106.973 83.1279 106.964 83.0172 107.064C82.119 107.888 81.5652 108.927 81.2146 110.082L81.0632 110.403C80.8954 110.599 80.7256 110.796 80.5578 110.992C80.4995 111.085 80.4418 111.179 80.3812 111.272L80.3792 111.318L80.368 111.246L80.3715 111.249ZM106.827 90.7503L106.96 90.4607C107.057 90.4061 107.184 90.3726 107.247 90.2932C108.614 88.5142 109.978 86.7315 111.326 84.9371C111.442 84.7812 111.436 84.5314 111.484 84.3259C111.244 84.3243 110.952 84.237 110.777 84.3429C110.505 84.5105 110.285 84.7876 110.095 85.055C109.749 85.5408 109.411 86.0361 109.121 86.5563C108.396 87.8546 107.7 89.1697 106.994 90.4762C106.949 90.5736 106.906 90.6704 106.862 90.77L106.802 90.7965L106.83 90.7496L106.827 90.7503ZM92.8995 85.0759L93.0393 85.2236C93.3689 84.8427 93.7546 84.4961 94.0217 84.0758C95.0294 82.4948 95.9811 80.8795 96.991 79.2977C97.7791 78.0625 98.6233 76.8615 99.4412 75.6452C101.184 73.0572 102.915 70.4612 104.674 67.8848C106.22 65.6185 107.759 63.345 109.368 61.1231C111.241 58.536 113.18 55.9948 115.103 53.442C116.257 51.9114 117.419 50.3881 118.607 48.8823C119.748 47.4346 120.927 46.0174 122.09 44.5864C124.128 42.0772 126.166 39.5637 128.208 37.0559C128.969 36.1216 129.75 35.2067 130.501 34.2658C130.598 34.1447 130.574 33.9268 130.606 33.7526C130.466 33.738 130.317 33.6882 130.185 33.7159C129.525 33.863 128.856 33.9864 128.217 34.2025C126.509 34.7816 124.816 35.4061 123.118 36.0104C120.745 36.8568 118.376 37.709 115.997 38.5382C115.322 38.7731 114.609 38.8988 113.941 39.1503C111.133 40.2117 108.333 41.2897 105.538 42.387C104.143 42.935 102.774 43.5556 101.383 44.1165C100.272 44.5643 99.1256 44.9308 98.0256 45.4058C95.7178 46.4048 93.4308 47.454 91.1334 48.4781C89.9109 49.0233 88.6801 49.5497 87.4624 50.1099C85.2423 51.1307 83.0312 52.1723 80.8146 53.2038C78.5648 54.2507 76.299 55.2623 74.0681 56.3459C71.8005 57.4484 69.5636 58.6099 67.3218 59.7635C63.9119 61.5208 60.4888 63.2515 57.1181 65.0795C55.0391 66.2072 53.0369 67.4789 51.0217 68.7169C46.7272 71.3555 42.4151 73.9689 38.1683 76.6826C35.0929 78.6466 32.0736 80.7043 29.0944 82.8133C26.487 84.6586 23.9372 86.5876 21.4255 88.5614C17.8458 91.3778 14.29 94.2246 10.7991 97.148C9.21565 98.4736 7.7908 99.9907 6.33787 101.465C5.68642 102.124 5.78115 102.391 6.70859 102.498C7.74896 102.617 8.83267 102.76 9.85003 102.599C13.6356 101.994 17.4078 101.311 21.1693 100.572C23.3821 100.138 25.5598 99.5419 27.7545 99.0138C30.4587 98.3633 33.1611 97.692 35.8694 97.0543C39.055 96.3046 42.2399 95.5598 45.4328 94.848C47.8523 94.3099 50.2902 93.8442 52.7132 93.3168C55.8357 92.6371 58.9479 91.9179 62.0697 91.2361C63.5018 90.9232 64.9447 90.6592 66.3816 90.3686C69.0322 89.8326 71.6786 89.2836 74.3298 88.7569C76.3957 88.346 78.4668 87.9739 80.5333 87.5651C83.1092 87.0554 85.681 86.5256 88.2534 86.005C89.7999 85.6936 91.3465 85.3822 92.8931 85.0708L92.8995 85.0759ZM136.599 31.5973C135.18 32.0484 133.999 32.7772 133.083 33.9679C132.259 35.0389 131.373 36.0633 130.521 37.1146C127.68 40.6214 124.764 44.0714 122.019 47.6516C118.013 52.8777 114.082 58.1626 110.209 63.4884C107.597 67.0788 105.108 70.7602 102.627 74.4439C100.632 77.4094 98.7285 80.4384 96.7972 83.4476C96.6637 83.6542 96.621 83.922 96.5358 84.1607C96.8085 84.2113 97.0917 84.3393 97.3498 84.2995C98.9816 84.0393 100.603 83.7159 102.236 83.4671C103.407 83.2877 104.327 82.7632 105.107 81.8677C105.797 81.0769 106.582 80.3582 107.368 79.6603C108.971 78.2383 110.574 76.8114 112.235 75.461C113.226 74.6575 113.746 74.7098 114.532 75.3993C115.258 76.0365 115.28 76.3051 114.692 77.4835C114.524 77.8199 114.354 78.1569 114.168 78.4845C113.757 79.2028 113.324 79.9087 112.924 80.6329C112.824 80.817 112.81 81.0494 112.758 81.2584C113.002 81.2779 113.25 81.341 113.485 81.311C114.301 81.2095 114.773 80.6143 115.29 80.0547C116.62 78.6201 117.939 77.1724 119.342 75.8095C120.651 74.5385 121.111 74.5671 122.411 75.8239C122.775 76.1755 122.966 76.0884 123.208 75.7615C123.298 75.6403 123.387 75.519 123.471 75.3948C125.638 72.2533 128.146 69.3993 130.893 66.7636C132 65.7019 133.221 64.7345 134.49 63.8752C135.442 63.2287 136.219 63.5245 136.938 64.43C137.731 65.4258 137.374 66.464 137.006 67.4297C136.227 69.4672 135.348 71.4634 134.493 73.4707C133.992 74.6473 133.434 75.7995 132.944 76.9798C132.65 77.6867 132.781 77.8372 133.557 77.8339C133.707 77.8336 133.859 77.8205 134.006 77.7973C135.418 77.5765 136.838 77.3959 138.234 77.1062C138.805 76.988 139.415 76.743 139.849 76.3692C141.19 75.2209 142.465 73.9916 143.75 72.7804C145.692 70.9505 147.613 69.0988 149.557 67.2711C151.502 65.4426 153.458 63.6251 155.423 61.8212C156.42 60.9062 157.445 60.0252 158.468 59.1377C159.799 57.9807 161.162 56.8563 162.474 55.6769C164.121 54.1954 165.736 52.677 167.364 51.1709C169.378 49.3061 171.448 47.4949 173.39 45.5605C175.521 43.4374 177.623 41.2718 179.572 38.9861C181.102 37.1905 182.485 35.2685 183.427 33.0484C184.818 29.7677 183.109 27.2092 180.712 26.1011C178.636 25.1423 176.445 24.6336 174.161 24.5774C169.205 24.4559 164.317 25.118 159.479 26.0799C155.611 26.8484 151.776 27.789 147.942 28.7175C144.153 29.6365 140.38 30.6381 136.603 31.603L136.599 31.5973ZM98.9799 97.5674C100.328 97.5476 100.987 96.4295 101.638 95.1667C102.811 92.8987 104.11 90.6973 105.366 88.4739C105.901 87.526 106.469 86.5964 107.01 85.6514C107.15 85.407 107.389 84.9792 106.889 84.9916C106.124 85.0108 105.288 84.9618 104.66 85.5758C104.098 86.1262 103.532 86.6752 102.99 87.2452C99.4105 90.9997 96.0253 94.9226 92.8008 98.9841C92.5689 99.2768 92.3703 99.5992 92.1703 99.9173C92.117 100.003 92.1205 100.126 92.097 100.23C92.2274 100.215 92.3711 100.226 92.4891 100.179C94.5738 99.3438 96.6543 98.5031 98.9771 97.5659L98.9799 97.5674ZM86.1715 102.953C86.673 102.553 87.2726 102.207 87.6959 101.711C88.9136 100.281 90.0464 98.779 91.2378 97.3269C93.1006 95.0617 94.9683 92.7972 96.8671 90.5632C97.9156 89.3326 99.0427 88.1694 100.114 86.9577C100.268 86.785 100.31 86.5151 100.403 86.288C100.183 86.2681 99.9536 86.2037 99.7443 86.2397C98.2979 86.4858 96.8602 86.7886 95.4094 86.9982C94.7807 87.0898 94.3801 87.3747 94.0731 87.8932C91.2331 92.6822 88.3875 97.4683 85.5525 102.258C85.4451 102.442 85.4136 102.671 85.3445 102.878C85.5818 102.9 85.8191 102.921 86.1722 102.956L86.1715 102.953ZM124.472 87.593C124.517 87.6451 124.562 87.6972 124.607 87.7492C124.942 87.4428 125.398 87.1973 125.585 86.819C126.338 85.3078 127.016 83.7584 127.703 82.2156C128.122 81.2742 128.001 81.0966 126.936 81.2566C125.341 81.498 123.759 81.8183 122.171 82.0884C121.592 82.1879 121.259 82.5508 120.987 83.0297C119.91 84.9226 118.813 86.803 117.756 88.7062C117.515 89.1397 117.404 89.6478 117.234 90.1201C117.733 90.0175 118.251 89.9638 118.729 89.8016C119.543 89.5247 120.326 89.1652 121.134 88.869C121.797 88.626 122.483 88.447 123.146 88.202C123.601 88.033 124.031 87.7979 124.473 87.5901L124.472 87.593ZM129.274 78.5687C129.473 78.3293 129.845 78.0369 130.013 77.6555C131.411 74.4557 132.778 71.2419 134.132 68.023C134.253 67.7347 134.218 67.3801 134.255 67.055C133.944 67.2207 133.566 67.3226 133.331 67.5616C131.293 69.6594 129.257 71.7615 127.275 73.9107C126.436 74.8177 125.697 75.821 124.964 76.818C124.452 77.5136 124.003 78.2558 123.575 79.0054C123.342 79.4146 123.505 79.6714 124.005 79.5781C125.701 79.2592 127.397 78.9311 129.273 78.5715L129.274 78.5687ZM142.858 81.3838L142.871 81.4247C144.923 80.6881 146.97 79.9436 149.026 79.2199C149.486 79.0588 149.973 78.979 150.441 78.846C150.872 78.7225 151.295 78.5732 151.722 78.444C152.364 78.248 153.009 78.0585 153.653 77.8647C154.444 77.6284 155.242 77.4114 156.021 77.1434C156.194 77.0833 156.306 76.8457 156.446 76.6893C156.246 76.6368 156.039 76.5154 155.849 76.5403C154.584 76.707 153.324 76.9032 152.062 77.0951C148.751 77.6 145.437 78.082 142.137 78.6379C141.459 78.7526 140.733 79.0319 140.2 79.4518C139.228 80.214 138.373 81.1286 137.491 82.0042C137.235 82.2572 137.055 82.5877 136.843 82.8813C137.234 82.8962 137.624 82.9189 138.017 82.9216C138.124 82.9229 138.234 82.8642 138.342 82.8297C139.848 82.3483 141.352 81.8674 142.859 81.3859L142.858 81.3838ZM108.631 93.7486C109.693 93.3095 110.521 92.957 111.361 92.6268C112.277 92.2675 112.924 91.6831 113.349 90.761C114.072 89.19 114.905 87.6719 115.676 86.1216C116.06 85.3479 116.424 84.5595 116.763 83.7645C116.942 83.351 116.796 83.02 116.318 83.2252C115.788 83.454 115.191 83.735 114.85 84.1694C112.62 87.0104 110.447 89.895 108.274 92.7796C108.059 93.0646 107.965 93.4412 107.815 93.7743C108.165 93.7621 108.514 93.7529 108.631 93.7486ZM132.055 80.3591C131.461 80.4826 131.049 80.8138 130.783 81.3665C130.282 82.4129 129.725 83.4364 129.26 84.4996C129.096 84.8776 129.131 85.3438 129.076 85.7675C129.478 85.6415 129.895 85.5508 130.276 85.3816C130.541 85.2611 130.772 85.0472 130.996 84.8474C131.973 83.9723 132.958 83.1086 133.906 82.2023C134.501 81.6344 135.039 81.0064 135.579 80.3848C135.676 80.273 135.685 80.0563 135.667 79.8958C135.663 79.8521 135.402 79.7952 135.271 79.8158C134.198 79.9878 133.127 80.1756 132.057 80.3584L132.055 80.3591ZM194.033 55.6637C194.385 55.4512 194.915 55.1702 195.399 54.8255C195.728 54.5921 195.793 54.253 195.37 54.0273C193.674 53.1155 193.778 52.8449 193.277 54.7413C193.24 54.8861 193.193 55.0293 193.174 55.1779C193.095 55.7902 193.275 55.9319 194.034 55.6658L194.033 55.6637ZM109.912 80.9304C109.78 80.8208 109.694 80.746 109.69 80.7495C109.347 81.1159 109.01 81.4896 108.673 81.861C108.771 81.9367 108.948 82.082 108.953 82.0756C109.28 81.7026 109.596 81.3165 109.911 80.9333L109.912 80.9304Z" fill="#D2FF00" stroke="#D2FF00" stroke-width="1.83875"/>
</svg>
