<svg width="290" height="82" viewBox="0 0 290 82" fill="none" xmlns="http://www.w3.org/2000/svg">
<mask id="mask0_1778_49" style="mask-type:luminance" maskUnits="userSpaceOnUse" x="0" y="22" width="290" height="39">
<path d="M0.59375 22H289.594V60.6485H0.59375V22Z" fill="white"/>
</mask>
<g mask="url(#mask0_1778_49)">
<path d="M67.2773 29.5551C66.0579 23.9511 53.171 19.6997 33.4351 23.3743C25.8777 24.782 18.7094 27.0147 12.5511 29.5001L20.9701 35.4401C7.42371 38.9541 -0.0921619 44.6266 0.643086 48.4988C1.52241 53.1263 16.7042 55.078 34.4957 51.7647C35.7716 51.5268 37.0252 51.2622 38.2551 50.9768L56.7135 60.6479L41.7338 50.082C57.7369 45.5853 68.9038 37.0202 67.2773 29.5551ZM34.0144 49.2213C26.0099 50.7107 19.2263 50.357 18.8609 48.432C18.6232 47.1833 20.9909 45.4337 24.8766 43.9651L34.6635 49.0934C34.4467 49.138 34.2313 49.1811 34.0144 49.2213ZM38.7883 48.0038L24.6478 38.0325C27.317 36.9875 29.4098 36.3617 32.3092 35.8206C41.5422 34.1008 50.3028 34.3728 51.0484 38.2971C51.6604 41.5287 45.9715 45.679 38.7883 48.0038ZM103.398 33.8496C102.306 32.9666 100.999 32.5192 99.5124 32.5192H81.914C80.3989 32.5192 79.0784 32.9651 77.9882 33.8496C76.8994 34.7311 76.3469 35.8236 76.3469 37.099V45.5497C76.3469 46.8459 76.8979 47.9503 77.9912 48.8333C79.0799 49.6925 80.4004 50.128 81.9125 50.128H96.9041C97.1789 50.128 97.4017 50.2009 97.5859 50.348L97.5993 50.3599C97.7805 50.4937 97.8607 50.6364 97.8607 50.8297V53.2972H105.081V37.099C105.081 35.8206 104.514 34.7281 103.398 33.8496ZM97.8592 44.8971C97.8592 45.0606 97.7285 45.1944 97.5681 45.1944H83.8553C83.7776 45.1932 83.7035 45.1613 83.6492 45.1056C83.5949 45.0499 83.5649 44.9749 83.5657 44.8971V38.0474C83.5657 37.7204 83.8256 37.4528 84.1465 37.4528H97.277C97.5993 37.4528 97.8592 37.7204 97.8592 38.0474V44.8971ZM128.535 44.5998C128.535 44.9268 128.273 45.1944 127.952 45.1944H114.822C114.745 45.1936 114.668 45.1776 114.597 45.1473C114.526 45.117 114.462 45.073 114.408 45.0178C114.354 44.9626 114.311 44.8972 114.282 44.8255C114.253 44.7538 114.239 44.6771 114.24 44.5998V32.5192H107.021V45.5497C107.021 46.8459 107.57 47.9518 108.664 48.8333C109.754 49.6925 111.073 50.128 112.586 50.128H130.186C131.672 50.128 132.977 49.6925 134.068 48.8333C135.186 47.9533 135.752 46.8474 135.752 45.5482V32.5207H128.533V44.6013L128.535 44.5998ZM164.747 33.8496C163.654 32.9666 162.349 32.5192 160.862 32.5192H138.751V37.4543H159.127C159.287 37.4543 159.417 37.5881 159.417 37.7516V38.8233C159.417 38.9869 159.287 39.1206 159.127 39.1206H143.263C141.719 39.1206 140.397 39.5696 139.333 40.454C138.246 41.3578 137.696 42.4489 137.696 43.7005V45.5482C137.696 46.8444 138.247 47.9474 139.341 48.8318C140.429 49.691 141.75 50.1265 143.262 50.1265H160.863C162.378 50.1265 163.685 49.691 164.749 48.8288C165.864 47.9251 166.43 46.8221 166.43 45.5467V37.0946C166.43 35.8192 165.864 34.7251 164.749 33.8466L164.747 33.8496ZM159.418 44.912C159.418 45.0755 159.289 45.2093 159.128 45.2093H144.998C144.96 45.2089 144.921 45.2009 144.886 45.1857C144.85 45.1706 144.818 45.1486 144.791 45.121C144.764 45.0934 144.743 45.0607 144.728 45.0248C144.714 44.989 144.707 44.9506 144.707 44.912V43.3482C144.707 43.1847 144.838 43.0509 144.998 43.0509H159.128C159.289 43.0509 159.418 43.1847 159.418 43.3482V44.912ZM189.886 31.8175C189.886 32.0108 189.804 32.1565 189.623 32.2873L189.609 32.2992C189.415 32.4512 189.174 32.5292 188.927 32.5192H173.939C172.424 32.5192 171.105 32.9651 170.013 33.8496C168.926 34.7311 168.372 35.8236 168.372 37.099V45.5497C168.372 46.8459 168.924 47.9489 170.016 48.8333C171.106 49.6925 172.425 50.128 173.939 50.128H191.537C193.023 50.128 194.33 49.6925 195.42 48.8333C196.538 47.9533 197.104 46.8474 197.104 45.5482V29.3515H189.886V31.8175ZM189.886 44.6013C189.886 44.9283 189.624 45.1944 189.303 45.1944H176.171C176.016 45.1924 175.867 45.1287 175.758 45.0173C175.649 44.9058 175.589 44.7557 175.591 44.5998V37.7501C175.591 37.5866 175.721 37.4528 175.882 37.4528H189.594C189.755 37.4528 189.886 37.5866 189.886 37.7501V44.6013ZM268.351 33.8496C267.257 32.9666 265.952 32.5192 264.465 32.5192H246.866C245.351 32.5192 244.031 32.9651 242.939 33.8496C241.852 34.7311 241.299 35.8236 241.299 37.099V50.128H248.518V38.0474C248.518 37.7204 248.78 37.4528 249.1 37.4528H262.232C262.552 37.4528 262.813 37.7204 262.813 38.0474V50.128H270.033V37.099C270.033 35.8206 269.466 34.7281 268.352 33.8496H268.351ZM289.594 32.5192H280.152C279.849 32.5192 279.611 32.4478 279.428 32.2992C279.353 32.2441 279.292 32.1715 279.251 32.0875C279.21 32.0036 279.191 31.9109 279.194 31.8175V29.3515H271.973V45.5512C271.973 46.8474 272.524 47.9518 273.618 48.8348C274.706 49.694 276.027 50.1295 277.54 50.1295H289.593V45.1944H281.454C280.795 45.1944 280.251 45.0249 279.794 44.6786C279.388 44.3293 279.192 43.9235 279.192 43.4374V37.7516C279.192 37.5881 279.323 37.4543 279.483 37.4543H289.593V32.5207L289.594 32.5192ZM237.675 33.8496C236.583 32.9666 235.276 32.5192 233.789 32.5192H204.614C203.099 32.5192 201.779 32.9651 200.688 33.8496C199.6 34.7311 199.047 35.8236 199.047 37.099V50.128H206.267V39.2128C206.267 38.7475 206.466 38.3491 206.869 38.0043C207.326 37.6327 207.87 37.4543 208.53 37.4543H231.992C232.153 37.4543 232.282 37.5866 232.282 37.7516V38.8233C232.282 38.9869 232.153 39.1206 231.992 39.1206H216.191C214.648 39.1206 213.326 39.5696 212.261 40.454C211.175 41.3578 210.624 42.4489 210.624 43.7005V45.5482C210.624 46.8444 211.177 47.9489 212.268 48.8318C213.357 49.691 214.677 50.1265 216.191 50.1265H233.789C235.305 50.1265 236.612 49.691 237.675 48.8288C238.791 47.9251 239.357 46.8221 239.357 45.5467V37.0946C239.357 35.8177 238.791 34.7251 237.675 33.8466V33.8496ZM232.28 44.912C232.28 45.0755 232.151 45.2093 231.991 45.2093H217.861C217.822 45.2089 217.784 45.2009 217.748 45.1857C217.713 45.1706 217.681 45.1486 217.653 45.121C217.626 45.0934 217.605 45.0607 217.591 45.0248C217.576 44.989 217.569 44.9506 217.569 44.912V43.3482C217.569 43.1847 217.7 43.0509 217.861 43.0509H231.991C232.151 43.0509 232.28 43.1847 232.28 43.3482V44.912Z" fill="#111112"/>
</g>
</svg>
