<svg width="281" height="83" viewBox="0 0 281 83" fill="none" xmlns="http://www.w3.org/2000/svg"><path d="M143.31.23c-.394.364-.23 1.584.297 2.342.724 1.023.46 1.451-1.58 2.803-.954.66-2.04 1.452-2.435 1.781-.362.33-.888.726-1.185.924-2.862 1.748-9.246 6.299-9.641 6.86-.625.89-.625 1.22 0 1.22.526 0 3.883-1.946 4.047-2.375a.545.545 0 0 1 .428-.264c.362 0 2.369-1.385 2.534-1.748.066-.132.263-.23.428-.23.296 0 2.204-1.386 5.692-4.057a20.55 20.55 0 0 0 1.81-1.484c.955-.89 1.415-.791 1.679.297.263 1.088 1.974 1.352 1.974.33 0-.396-.132-.957-.329-1.286-.527-.957-1.645-3.628-1.645-3.958 0-.396-1.119-1.385-1.547-1.385-.165 0-.428.099-.527.23Z" fill="#111112"/><path d="M123.869 15.994c-.559.495-.855 1.122-.855 1.781 0 .693-.264 1.187-.889 1.65-1.678 1.252-2.336 2.077-2.501 3.231-.23 1.253.198 2.408.856 2.408.23 0 .625.131.888.33.395.23.395.395-.131.956-.362.395-.757.692-.922.692-.592 0-1.546 1.484-1.382 2.078.132.396-.23.923-1.053 1.649-2.106 1.814-2.435 2.176-2.435 2.803 0 .66 1.711 2.374 2.369 2.374.79 0 1.909 1.451 1.909 2.507 0 .527.23 1.253.494 1.583.263.362.493 1.187.493 1.813 0 1.748 1.185 3.99 2.139 3.99.395 0 .856-.23.954-.527.329-.89 1.679-.428 1.777.594.132.99-.395 1.253-.724.429-.098-.264-.362-.495-.592-.495-.625.033-1.974 2.308-1.81 3 .099.33-.033.76-.296.99-.954.792-.296 3.958 1.218 5.772.296.362.296.593-.099 1.055-.263.297-.757 1.45-1.086 2.54a39.373 39.373 0 0 1-1.547 4.088c-.888 1.913-.954 2.342-.822 4.782.098 1.451.362 3.694.559 4.947.362 1.946.592 2.474 1.58 3.397.625.593 1.25 1.088 1.415 1.088.164 0 .559.297.921.693.888.956 2.139.725 2.27-.429.132-1.022-.888-2.243-1.842-2.243-1.218 0-2.501-2.209-2.83-4.814-.165-1.32-.099-1.781.296-2.111.329-.264.493-.99.493-2.21 0-1.616.099-1.912 1.021-2.67a59.061 59.061 0 0 0 2.566-2.31l1.514-1.384-1.086-.99c-.592-.56-.987-1.154-.888-1.319.23-.363-1.35-3.957-1.744-3.957-.297 0-1.053-1.616-1.053-2.21 0-.264.23-.528.493-.626.329-.132.494-.66.494-1.715 0-1.748.559-1.55.724.23.131 1.55.724 1.617 1.382.198.296-.626.691-1.154.855-1.154.198 0 .329-.297.329-.66 0-.395.527-.989 1.415-1.55.757-.494 1.448-.956 1.547-1.022.099-.066-.099-.264-.428-.461-.493-.264-.592-.66-.526-1.847.066-.858-.066-1.913-.329-2.309-.231-.428-.494-2.21-.56-3.957-.164-2.704-.329-3.529-1.184-5.244-.626-1.319-.922-2.275-.757-2.704.263-.824.658-.89.954-.165.132.33.494.462 1.086.396.79-.099.921-.264.921-1.187.033-1.22.56-1.715 1.843-1.715s1.349.33.296 1.319c-.559.528-.987 1.22-.987 1.55 0 .396-.362.824-.888 1.055l-.922.429.922.726c1.02.824 1.151 1.681.329 1.978-.428.165-.461.297-.132.627.329.297.494.264.823-.198.23-.297.691-.56.987-.56.296 0 .625-.232.757-.528.131-.396.592-.495 2.04-.396l1.843.099.098-1.616c.066-.89.033-1.814-.098-2.11-.165-.43-.264-.43-.79.065-.329.297-.823.462-1.152.33-.526-.198-.526-.264-.033-.791.296-.33 1.053-.693 1.679-.792 1.316-.264 1.908-1.187 1.612-2.54-.198-.824-.362-.956-1.251-.956-.888-.033-.954-.066-.46-.362.855-.495.724-.759-1.152-1.98-1.481-.922-2.073-1.12-3.883-1.153-1.744-.066-2.238-.198-2.698-.825-.56-.66-.56-.758-.099-1.286.461-.528.461-.693-.033-1.78-.526-1.09-.691-1.188-1.941-1.188-1.02 0-1.613.23-2.271.824Zm.56 4.815c.394.231.855.594.987.858.197.33.592.395 1.283.23.987-.197 1.02-.197.823.825-.198.956-.165 1.022.724 1.022.658 0 1.316-.362 1.974-1.022.823-.792 1.053-.89 1.218-.495.329.89 0 1.65-.856 1.847-.461.099-.856.462-.921.825-.198 1.022-.593 1.253-1.317.791-.592-.363-.888-.33-1.875.132-1.843.89-2.238.759-2.008-.594.231-1.253-.197-1.55-.756-.593-.297.527-.428.494-1.152-.396-.954-1.154-1.086-2.341-.296-3.199.625-.692 1.184-.758 2.172-.23Zm9.707 3.133c.823.231.954 1.154.263 1.748-.855.726-2.27-.627-1.678-1.616.23-.396.395-.396 1.415-.132Zm-1.152 4.584c-.099.66-1.086 1.023-1.415.495-.164-.264-.197-.594-.098-.759.23-.362 1.579-.131 1.513.264Zm-9.049.924c.099.758 0 .89-.724.89-.428 0-.888.198-.987.396-.165.428.099-1.22.329-1.979.23-.791 1.283-.264 1.382.693Zm2.139 1.616c.461.296-.395 2.902-.954 2.902-.724 0-.823-.594-.297-1.65.428-.857.461-.989.033-.989-.789 0-.987-.725-.329-1.22.527-.363.625-.363.922.132.164.33.46.693.625.825Zm9.115-.528c0 .396-.296.462-1.382.396-1.942-.132-2.073-.924-.132-.924 1.152 0 1.514.132 1.514.528Zm-14.018 1.517c.296.56.526 1.22.526 1.484 0 .23.231.429.494.429.329 0 .493-.33.493-1.023 0-.791.132-.989.593-.89.691.132.592 1.913-.132 2.341-.691.396-.559 2.77.395 6.992.132.528.428 1.22.691 1.55.296.33.362.593.132.725-.165.132-.428.033-.527-.132-.131-.23-.625-.263-1.184-.164-.955.197-.955.197-.955-1.22 0-.792-.23-1.847-.493-2.375-.264-.495-.494-1.484-.494-2.177 0-.725-.164-1.682-.362-2.21-.362-.923-.625-3.99-.362-4.484.198-.396.658.033 1.185 1.154ZM.931 28.625c-.198.066-.33.462-.33.89 0 .825.856 1.32 1.712.99 1.217-.462 1.25.33 1.184 16.357L3.4 62.494l-1.382.099C.7 62.692.602 62.758.602 63.68v.957h5.725c5.562 0 5.759-.033 5.956-.693.296-.956-.296-1.451-1.612-1.352-.625.066-1.185 0-1.283-.165-.1-.165-.23-3.529-.264-7.519-.065-6.233 0-7.255.395-7.354.46-.066 1.35 1.121 6.549 9.003.263.429 1.58 2.374 2.895 4.32l2.435 3.595 5.792.165c3.225.099 6.022.099 6.252.033.198-.066.395-.462.395-.89 0-.627-.165-.792-.823-.792-1.086 0-1.349-.726-.69-1.88.263-.495.822-2.078 1.217-3.496l.757-2.54 2.566-.065c5.068-.132 4.64-.198 4.904.89.263 1.122.822 2.803 1.48 4.386.264.594.461 1.452.461 1.88 0 .693-.165.825-.954.825-1.02 0-1.613 1.055-.889 1.55.198.165 2.04.198 4.114.099 4.179-.198 4.771-.528 2.895-1.65-.724-.428-1.217-.989-1.316-1.582-.066-.495-.329-1.418-.56-2.045-.23-.627-.592-1.682-.822-2.308-.23-.627-.592-1.682-.823-2.309-.197-.627-.526-1.682-.658-2.308-.131-.627-.46-1.682-.658-2.309-.23-.627-.592-1.682-.823-2.308-.23-.627-.592-1.682-.822-2.309-.198-.627-.527-1.682-.658-2.308-.132-.627-.461-1.748-.724-2.474-.461-1.22-.593-1.319-1.81-1.418-1.218-.099-1.316-.033-1.81 1.154-.625 1.583-1.218 3.232-1.645 4.716-.165.627-.461 1.287-.593 1.484-.131.165-.362.858-.493 1.484-.132.627-.362 1.352-.527 1.65-.131.263-.493 1.384-.79 2.473a46.854 46.854 0 0 1-.987 3.133c-.263.626-.79 2.176-1.151 3.462-1.185 3.859-1.152 3.793-2.6 3.793-.987 0-1.448-.198-1.843-.759a656.239 656.239 0 0 1-4.771-6.826c-.625-.923-1.317-1.88-1.481-2.078-.198-.23-.691-.923-1.086-1.583-.395-.626-1.086-1.583-1.547-2.077-.46-.495-.888-1.22-.92-1.616-.067-.627.13-.759 1.414-.924 2.139-.297 3.62-1.055 5.1-2.671 2.107-2.276 2.468-3.133 2.468-6.2 0-2.54-.065-2.803-1.184-4.485-1.711-2.572-4.245-4.254-7.01-4.617-1.645-.198-16.288-.363-16.814-.198Zm13.853 2.243c2.83.297 3.949 1.385 4.739 4.518.526 2.11.56 2.737.23 4.353-.888 4.452-2.632 5.804-7.7 6.035l-2.896.132v-7.387c0-5.475.099-7.486.428-7.816.263-.264.921-.33 1.876-.231.822.099 2.303.264 3.323.396ZM38.707 45.84c.099.956.922 3.562 1.613 5.31.888 2.209.625 2.473-2.37 2.308-1.448-.066-2.73-.165-2.863-.23-.098-.067.23-1.353.757-2.87.527-1.484.955-2.968.955-3.265 0-.297.164-.956.329-1.418.428-1.088 1.448-.99 1.58.165Zm122.577-16.918c-.395 1.022.066 1.583 1.382 1.583h1.316l.099 16.06.066 16.094h-1.481c-1.415 0-1.481.033-1.481.99v.989h14.479c7.963-.033 14.61.066 14.808.164.559.363 1.645-.164 1.645-.791 0-.725-.823-1.484-1.283-1.22-.527.33-.79-.462-.428-1.22.526-1.056 1.711-4.782 1.711-5.31 0-.923.987-1.22 4.212-1.319l3.291-.099.526 1.352c.296.759.527 1.682.527 2.045s.197.923.46 1.286c.231.363.527 1.22.659 1.913.197 1.022.131 1.253-.362 1.418-1.086.33-1.58.692-1.679 1.253-.098.462.362.528 3.85.528 2.172 0 4.015-.132 4.147-.33.098-.165-.264-.693-.79-1.154-.658-.594-1.185-1.616-1.678-3.232-.395-1.32-.922-2.87-1.185-3.463-.263-.594-.461-1.418-.461-1.814-.033-.396-.23-1.088-.493-1.55-.263-.462-.461-1.121-.494-1.484 0-.363-.23-1.088-.493-1.616-.264-.494-.494-1.22-.494-1.55 0-.33-.197-1.088-.461-1.682-.691-1.715-1.217-3.298-1.513-4.55-.132-.627-.428-1.584-.659-2.078-.394-.825-.592-.924-1.744-.825-1.283.1-1.316.132-1.974 2.078-.329 1.088-.823 2.407-1.086 2.968-.23.527-.526 1.418-.658 1.979-.132.527-.329 1.12-.461 1.319-.131.165-.362.857-.493 1.484-.132.626-.362 1.352-.494 1.649-.132.264-.79 2.275-1.481 4.452a138.274 138.274 0 0 1-1.48 4.617 8.207 8.207 0 0 0-.494 1.649c-.198.989-2.304 2.737-2.764 2.275-.099-.099-.165-3.298-.099-7.09l.099-6.893h-2.995v2.408c0 2.968-.987 6.562-2.237 8.08-1.58 1.978-2.699 2.374-6.878 2.374h-3.718l.066-16.094.098-16.06h1.317c1.25 0 1.316-.066 1.316-.956v-.99h-5.726c-4.113-.033-5.759.066-5.857.363Zm35.44 16.06c0 .561.888 3.562 1.514 5.145.263.627.493 1.682.526 2.309l.099 1.154-2.797-.132c-1.547-.033-2.83-.132-2.863-.165-.033-.033.23-.923.592-2.012.362-1.088.889-2.77 1.152-3.726.263-.99.625-2.045.79-2.408.395-.725.987-.824.987-.164Z" fill="#111112"/><path d="M133.444 33.407c-2.073.66-2.336.858-3.126 2.276l-.888 1.55.756.692c.428.396.724 1.089.724 1.65 0 1.12.494 1.318.823.329.263-.791.823-.56.823.33 0 .33.263.857.559 1.187.921.89 1.382 2.045 1.612 3.858.395 3.034 2.633 6.365 3.785 5.64.493-.297.329-1.055-.296-1.253-.329-.1-.823-.693-1.086-1.32-.428-.923-.428-1.22-.066-1.714.23-.33.428-.99.428-1.484 0-.528.23-1.056.559-1.254.823-.428 1.481-3.528.889-4.023-.264-.198-.461-.726-.461-1.121 0-1.089-.329-1.814-.823-1.814-.395 0-.592-.528-1.086-2.935-.131-.627-.395-1.187-.559-1.22-.198-.066-1.349.23-2.567.626Zm2.073 3.034c0 .264-.197.495-.46.495-.56 0-.922-.462-.626-.791.395-.396 1.086-.198 1.086.296Zm-85.293 3.034c-.527.66-.099 1.32 1.02 1.517l1.02.198v21.106l-.987.693c-.527.396-.988.923-.988 1.187 0 .396 1.745.462 11.847.429 6.515 0 11.978.066 12.142.165.527.33 1.35-.198 1.35-.858 0-.428-.362-.791-.988-1.022l-.987-.363-.066-4.221c-.033-2.308-.066-4.485-.066-4.815-.032-.495.395-.593 3.258-.725 3.422-.198 4.574-.561 6.187-1.946 1.349-1.22 1.875-2.54 1.875-4.815 0-2.44-.592-3.76-2.237-5.046-1.777-1.385-3.456-1.715-8.359-1.748-2.402 0-4.903-.032-5.528-.066-1.02-.065-1.152.033-1.25.825-.099.758.033.89.822.99l.922.098.263 10.224c.132 5.606.164 10.553.066 10.981-.099.396-.56.924-1.02 1.122-1.316.593-1.514-.066-1.35-4.584.165-4.09 0-4.716-1.118-4.716-.658 0-.955.66-.955 2.242-.032 1.616-.69 3.99-1.447 5.079-.724 1.088-2.271 1.583-5.035 1.583-1.415 0-2.073-.132-2.106-.429-.099-1.847.066-21.139.23-21.37.099-.165.46-.297.823-.297.757 0 1.184-.89.69-1.385-.526-.527-7.6-.56-8.028-.033Zm29.089 2.21c2.007 1.319 2.106 6.892.132 8.475-.362.297-1.35.627-2.172.759-.823.099-1.777.264-2.14.363-1.447.395-1.611-.132-1.513-5.178.033-2.572.165-4.848.263-4.98.297-.494 4.509-.066 5.43.56Z" fill="#111112"/><path d="M84.317 39.376c-.329.858.132 1.517.987 1.517.626 0 .889.231 1.053.792.099.428.066 5.342-.098 10.949-.264 9.86-.297 10.19-.922 10.19-.362.033-.855.132-1.086.264-.46.33-.526 1.55-.066 1.583h7.93c.692-.066.165-1.517-.591-1.616-1.317-.198-1.448-.726-1.35-6.035l.1-5.046h9.213l.099 5.145.066 5.144-1.152.693c-1.12.66-1.58 1.682-.724 1.682 5.923.099 7.733.066 8.029-.1.625-.395.099-1.55-.757-1.55-.395 0-.855-.164-.954-.329-.165-.264-.296-18.105-.165-21.436 0-.198.461-.33 1.02-.33.889 0 .988-.099.889-.89l-.099-.89-3.883-.034c-3.422 0-3.949.066-4.212.594-.428.758-.164 1.088 1.02 1.32l.987.197v9.267h-9.575l.098-4.716.1-4.683.822-.099c1.119-.165 1.415-.528 1.151-1.385-.197-.627-.361-.692-1.579-.462-1.678.264-3.784.264-5.133-.033-.757-.165-1.086-.099-1.218.297Zm120.964-.198c-.164.066-.329.462-.329.89 0 .594.198.792.922.891l.888.1.197 8.903c.099 4.881.329 9.432.527 10.092.724 2.605 2.731 4.419 5.495 4.98 4.081.857 7.635-1.188 8.885-5.145.527-1.715.592-2.902.494-10.355l-.132-8.41.757-.264c.79-.297.855-.527.395-1.286-.362-.56-3.883-.791-4.508-.264-.757.627-.494 1.583.394 1.583.461 0 .823.198.823.396.033.23.033 4.42 0 9.267-.033 7.75-.099 8.97-.592 9.86-.987 1.748-2.172 2.408-4.377 2.408-1.678 0-2.04-.132-2.83-.923l-.921-.89V41.057l1.086-.099c.954-.099 1.086-.198.987-.99l-.099-.89h-3.85c-2.139 0-4.014.033-4.212.1Zm19.086.396c-.428.792-.198 1.32.625 1.32.329 0 .724.197.889.395.164.23.263 5.112.197 10.883l-.099 10.421-.954.363c-.954.33-1.415 1.484-.658 1.748.164.033 2.04.066 4.113 0 3.686-.1 3.817-.132 3.719-.825-.066-.428-.395-.758-.922-.89-.789-.198-.822-.297-1.086-3.793-.296-4.287-.197-6.167.297-6.332.197-.066 1.02.957 1.809 2.243 1.712 2.803 1.843 3.034 4.377 6.695l1.909 2.836h21.29l.099-4.32c.098-4.881-.033-5.673-1.119-5.508-.658.1-.79.33-.954 2.243-.231 2.407-.889 4.155-1.909 5.078-.526.462-1.316.627-3.62.726-1.612.066-3.06.132-3.225.165-1.02.198-1.085-.066-1.085-5.343v-5.342l1.744.23c2.171.297 2.928 1.023 3.192 3.068.131 1.418.263 1.583.987 1.583h.822l.099-5.54c.066-4.717 0-5.541-.428-5.706-.822-.33-1.48.495-1.48 1.88 0 1.847-1.053 2.869-3.127 3l-1.645.1-.099-5.046-.098-5.013h3.159c3.916 0 4.87.429 5.791 2.54.362.857.757 2.176.856 2.968.197 1.616.46 1.88 1.415 1.583.625-.198.658-.43.493-4.222-.098-2.242-.329-4.089-.526-4.22-.592-.364-8.556-.628-10.958-.33-1.25.131-3.093.131-4.08-.034-1.382-.23-1.876-.197-2.106.132-.461.759-.099 1.418.888 1.583l.987.165.099 10.751c.066 11.608.033 12.07-1.514 10.982-.658-.462-1.184-1.187-4.343-5.903-.593-.924-1.547-2.144-2.106-2.737-.988-1.056-.988-1.122-.395-1.583.362-.231 1.119-.561 1.744-.66.625-.132 1.612-.726 2.336-1.451 3.126-3.166 2.238-8.146-1.81-10.256-1.448-.726-1.974-.792-6.68-.825-2.83-.033-5.462-.132-5.824-.264-.527-.165-.823-.066-1.086.462Zm10.365 1.649c.461.165 1.218.726 1.646 1.187.724.792.822 1.188.822 3.628 0 2.54-.065 2.836-.888 3.76-.724.79-1.415 1.12-3.225 1.483-2.139.43-2.336.43-2.731-.099-.263-.33-.362-.956-.263-1.517.098-.527.197-2.704.197-4.847v-3.925h1.777c.987 0 2.172.132 2.665.33Zm40.278-1.616c-.428.858-.197 1.154 1.053 1.418 1.02.198 1.053.198.856 1.946-.066.923-.033 4.155.131 7.123.165 3.001.23 5.475.165 5.54-.362.363-1.251-.494-1.876-1.813-.428-.858-1.349-2.605-2.106-3.859-.724-1.286-1.448-2.539-1.58-2.803a15.552 15.552 0 0 0-.888-1.484c-.362-.56-.79-1.286-.987-1.649a21.793 21.793 0 0 0-.987-1.649c-.362-.56-.79-1.319-.955-1.715-.493-1.12-1.415-1.418-4.277-1.418-2.403 0-2.666.066-2.666.627 0 .33.329.824.757 1.088.724.495.724.594.494 4.42-.132 2.143-.165 6.925-.066 10.552.197 6.563.197 6.662-.494 7.025-.362.23-.691.66-.691.99 0 .527.329.626 2.238.758 2.566.198 3.323-.198 2.698-1.385-.197-.396-.592-.627-.823-.528-.263.099-.559.033-.658-.132-.296-.462-.329-19.787-.033-19.853.231-.099 1.448 1.979 3.488 5.837.198.363.626 1.088.988 1.65.362.527.789 1.285.987 1.648.197.363.526.956.757 1.32 3.027 5.045 4.738 8.046 5.561 9.827.658 1.385.855 1.55 1.678 1.484l.954-.1.132-11.542c.099-6.331.263-11.641.329-11.773.099-.132.461-.264.823-.264.526 0 .658-.198.559-.923-.099-.89-.131-.89-2.665-.956-2.205-.034-2.567.032-2.896.593Zm-144.295 2.704c-.099.297-.099.957.033 1.451l.198.858.723-.693.692-.725-.692-.726c-.658-.626-.756-.66-.954-.165Zm10.53.165c-.197.132-.46.56-.592.957-.132.395-.559.758-.954.824-.461.066-.757.363-.823.89-.099.627 0 .726.428.561.362-.132.822.066 1.316.528.888.923 1.086 3.924.296 4.55-.592.528-.592 1.518.033 1.782.263.099.494.527.494.989 0 .462.131.89.296 1.022.592.33.855-.66.855-3.1 0-2.935.494-3.364 1.514-1.253.856 1.748.658 4.155-.395 5.145-.362.33-.79 1.022-.921 1.55-.23.857-.395.956-1.613.89-1.612-.066-1.809.33-1.645 3.232.099 1.517.198 1.78.79 1.88.954.132 2.106-1.748 2.106-3.364 0-1.847.823-1.517 1.481.627.559 1.748.559 1.846 0 2.473-.461.495-.593 1.286-.658 3.199-.033 1.418-.231 2.902-.428 3.298-.231.395-.395 1.22-.395 1.847 0 .626-.23 1.319-.494 1.55-.329.296-.493 1.055-.493 2.506 0 1.121-.132 2.177-.329 2.275-.428.264-.428 1.385.033 1.65.526.362 2.204-.495 2.369-1.188.099-.33.099-1.187 0-1.88-.099-.758.033-1.748.362-2.506.296-.692.526-1.55.526-1.88 0-.362.296-1.484.658-2.506.79-2.243.823-3.265.165-3.529-.691-.264-.625-.66.23-1.022.428-.198.79-.627.856-.99.263-2.21 1.217-6.002 1.612-6.463.231-.264.428-.726.428-.99 0-.297.23-.791.494-1.154.296-.396.46-1.418.493-2.935 0-2.11-.098-2.473-1.151-4.09-.659-.989-1.119-1.978-1.021-2.242.198-.495 2.172-.593 2.172-.099 0 .165.231.33.494.33.296 0 .592.23.691.495.131.264.592.494 1.119.494.658 0 .954-.197 1.118-.758.132-.56-.098-.99-1.184-1.979-1.613-1.45-2.139-1.484-3.883-.396-1.58.99-1.744 1.023-2.797.1-.56-.495-3.291-1.782-3.291-1.584 0 0-.164.132-.362.264Zm1.02 2.968c0 1.517-.625 1.451-.757-.066-.098-.923 0-1.22.33-1.121.23.099.427.627.427 1.187Zm-.888 13.653c-.066.43-.23.759-.428.759-.164 0-.362-.33-.428-.759-.066-.494.066-.725.428-.725s.494.23.428.725Zm-10.135-13.125c-.395.66-.889 1.187-1.086 1.187-.231.033-.922.693-1.547 1.484-.625.825-1.316 1.484-1.546 1.484-.198 0-.494.297-.593.66-.098.363-.362.66-.526.66-.165 0-.296.296-.296.659 0 .363.164.66.362.66.23 0 .296.33.164.791-.099.462-.066.923.132 1.022.164.1.329.56.329 1.023 0 .461.23.89.493.989.264.132.494.528.494.923 0 .792 1.316 2.177 2.073 2.177.263 0 .559.23.691.495.099.296.592.494 1.185.494h.987v2.309c0 1.682-.197 2.638-.691 3.627-.395.726-.625 1.583-.527 1.913.56 1.781 1.152 3.001 1.81 3.826.922 1.187.922 1.385-.098 3-.428.726-.823 1.617-.823 2.012 0 .759-.856 2.639-1.349 2.935-.165.132-.296.627-.296 1.188 0 1.121.559 1.253 1.908.395 1.251-.791 1.415-1.12 1.218-2.176-.099-.627 0-.99.329-1.088.263-.132.493-.528.493-.924 0-1.385.395-2.11 1.481-2.704 1.514-.825 2.336-2.77 1.514-3.628-.198-.165-.198-.923 0-1.88.164-.956.164-2.44 0-3.627-.296-2.078-1.284-4.848-1.744-4.848-.165 0-.263-.56-.263-1.253 0-1.583-.33-2.737-.692-2.506-.164.099-.822 0-1.414-.231-1.053-.396-1.152-.528-1.119-1.748.033-1.385.691-2.506 1.448-2.506.691 0 .822.527.296 1.517-.527 1.022-.395 1.483.23.857.527-.528 1.251-.495 1.251.066 0 .264.23.527.493.66.362.131.494.725.494 2.374 0 1.583.098 2.143.427 2.045.198-.1.428-.693.494-1.352.066-.66.23-1.22.428-1.22.461 0 .329-1.056-.198-1.782-.263-.362-.493-.923-.493-1.253 0-.362-.428-1.187-.954-1.847-.527-.66-1.053-1.55-1.152-1.945-.132-.396-.494-.825-.856-.924-.46-.132-.658-.66-.822-2.143-.132-1.22-.428-2.144-.823-2.474-.559-.494-.625-.461-1.316.627Zm1.316 2.473c.164.363.329.99.329 1.385 0 .825-1.185 2.276-1.876 2.276-.23 0-.427.363-.427.824 0 .462-.132.825-.33.825-.164 0-.329.198-.329.462 0 .263-.296.593-.658.692-.658.198-.954 1.484-.329 1.484.198 0 .494.396.691.89l.362.924.494-.759c.625-.923.855-.923 1.876.1.658.659.723.857.329 1.154-.955.791-4.081-.462-4.081-1.65 0-.362-.131-.659-.296-.659-.461 0-.724-1.022-.428-1.45.165-.199.395-.76.527-1.221.098-.495.559-1.121 1.02-1.418.461-.297.822-.759.822-1.056 0-.263.231-.56.494-.66.263-.131.494-.56.494-.956 0-1.714.691-2.34 1.316-1.187Zm3.455 15.863c.329.363.494.857.362 1.154-.23.627-.855.363-.855-.363 0-.263-.132-.461-.33-.461-.164 0-.329-.231-.329-.495 0-.693.428-.627 1.152.165Zm-1.119 2.704c.428.56.593 1.286.626 2.606 0 1.45.131 1.912.559 2.077.395.165.428.33.164.594-.559.56-2.435-1.65-2.204-2.639.098-.395-.033-1.154-.264-1.649-.822-1.615-.032-2.308 1.119-.989Z" fill="#111112"/><path d="M138.804 48.215c0 .462.23.923.493 1.055.625.231.625-.428 0-1.253-.46-.627-.493-.627-.493.198Zm-.757 3.463c-.132.099-.231.593-.231 1.055v.825l.691-.693c.395-.363.593-.858.494-1.055-.263-.396-.625-.462-.954-.132Zm1.349 2.803c-.099 1.286-.033 1.847.362 2.143 1.217 1.023 2.007-.032.987-1.319-.329-.461-.625-1.22-.625-1.682 0-1.582-.592-.89-.724.858Z" fill="#111112"/></svg>