<svg width="205" height="22" viewBox="0 0 205 22" fill="none" xmlns="http://www.w3.org/2000/svg">
<path d="M83.642 0C89.6755 0 93.5044 4.69915 93.5044 10.5876C93.5044 16.505 89.6755 21.1752 83.642 21.1752C77.6085 21.1752 73.7796 16.476 73.7796 10.5876C73.7796 4.69915 77.6085 0 83.642 0ZM86.4557 20.363C89.5594 19.4928 91.3869 14.3875 89.7915 8.81815C88.2251 3.36482 83.903 -0.0580134 80.8283 0.812198C77.7535 1.68241 75.9261 6.84567 77.5215 12.415C79.0879 17.8684 83.3809 21.2332 86.4557 20.363Z" fill="#292C20"/>
<path d="M60.4653 0.435059C69.5445 0.435059 72.9094 5.16321 72.9094 10.4425C72.9094 16.9111 68.6163 20.74 61.3936 20.74H53.9968L53.6197 19.9278C54.7799 18.6805 54.7799 18.6805 54.7799 17.5782V3.59683C54.7799 2.49456 54.7799 2.49456 53.6197 1.21825L53.9968 0.435059H60.4653ZM69.2835 10.4715C69.2835 5.77236 66.4698 0.783144 60.4653 0.783144C57.9707 0.783144 57.9707 2.49456 57.9707 3.59683V17.5782C57.9707 18.6805 57.9997 20.3919 59.8562 20.3919C65.1645 20.3919 69.2835 18.5355 69.2835 10.4715Z" fill="#292C20"/>
<path d="M53.0654 0.435059L53.4715 1.24726C51.0929 3.0457 51.0929 3.0457 51.0929 4.49605V20.74H49.7585L38.5618 4.96016C37.2855 3.19073 37.2855 3.0457 37.2855 6.23648V16.679C37.2855 18.1294 37.2855 18.1294 39.5481 19.9278L39.142 20.74H34.9649L34.5588 19.9278C36.9374 18.1294 36.9374 18.1294 36.9374 16.679V4.49605C36.9374 3.0457 36.9374 3.0457 34.5588 1.24726L34.9649 0.435059H39.229L49.5265 14.8226C50.7448 16.505 50.7448 16.505 50.7448 13.4882V4.49605C50.7448 3.0457 50.7448 3.0457 48.4822 1.24726L48.8883 0.435059H53.0654Z" fill="#292C20"/>
<path d="M22.3158 0.435059H26.2028L32.1202 16.592C32.8744 18.6805 32.8744 18.6805 33.9767 19.9278L33.5706 20.74H28.8134L28.4073 19.9278C29.2775 18.7095 29.2775 18.7095 27.8272 14.3295C27.305 12.7631 26.7829 11.9799 25.7386 11.9799H22.6639L20.9235 13.6043C19.7632 14.7065 19.3571 15.7508 19.009 16.8531C18.5449 18.3614 18.5449 18.3614 20.3143 19.9278L19.9082 20.74H16.1953L15.7892 19.9278C17.9938 18.3034 17.9938 18.3034 18.7769 16.2149L23.128 4.67009C23.5051 3.71286 23.7662 3.0457 21.9097 1.24726L22.3158 0.435059ZM21.1555 12.9371L22.5189 11.6318H25.6516C26.6959 11.6318 26.5508 10.7326 26.3768 10.2395L24.4043 4.64109C23.9112 3.21974 23.6791 4.00293 23.4471 4.67009L20.7204 12.0959C20.1983 13.4882 20.0533 13.9814 21.1555 12.9371Z" fill="#292C20"/>
<path d="M14.5478 16.1279L15.7951 16.563L15.157 20.74H1.61064L1.23355 19.9568C2.42284 18.6515 2.42284 18.6515 2.42284 17.4622V3.71286C2.42284 2.52357 2.42284 2.52357 1.23355 1.21825L1.61064 0.435059H6.42582L6.80291 1.21825C5.61362 2.52357 5.61362 2.52357 5.61362 3.71286V17.4622C5.61362 18.6515 5.61362 20.3919 7.44107 20.3919C9.52958 20.3919 12.9524 20.1019 14.5478 16.1279Z" fill="#292C20"/>
<path d="M194.972 20.7772C193.123 20.7772 191.56 20.4998 190.284 19.945C189.027 19.3902 188.065 18.6135 187.399 17.6148C186.752 16.5977 186.429 15.4326 186.429 14.1196H191.477C191.477 14.6929 191.607 15.1922 191.866 15.6176C192.124 16.0429 192.522 16.3758 193.058 16.6162C193.595 16.8566 194.297 16.9768 195.167 16.9768C195.814 16.9768 196.369 16.9028 196.831 16.7549C197.312 16.607 197.682 16.3758 197.941 16.0614C198.199 15.7285 198.329 15.3032 198.329 14.7854C198.329 14.397 198.255 14.0826 198.107 13.8422C197.978 13.6018 197.746 13.3984 197.413 13.232C197.099 13.0655 196.655 12.9176 196.082 12.7881C195.509 12.6587 194.787 12.5292 193.918 12.3998C192.753 12.2148 191.727 11.9652 190.839 11.6508C189.951 11.3179 189.212 10.9111 188.62 10.4302C188.028 9.94942 187.584 9.37613 187.288 8.71037C186.993 8.04462 186.845 7.26791 186.845 6.38024C186.845 5.06722 187.168 3.93914 187.816 2.99598C188.481 2.03434 189.415 1.30386 190.617 0.804545C191.838 0.286737 193.289 0.027832 194.972 0.027832C196.581 0.027832 197.978 0.286737 199.161 0.804545C200.345 1.30386 201.26 2.0066 201.907 2.91277C202.555 3.81893 202.887 4.87304 202.906 6.0751H197.885C197.867 5.50181 197.709 5.04873 197.413 4.71585C197.136 4.36448 196.766 4.11482 196.304 3.96688C195.842 3.81893 195.351 3.74496 194.834 3.74496C194.26 3.74496 193.761 3.81893 193.336 3.96688C192.91 4.11482 192.578 4.33674 192.337 4.63263C192.115 4.91003 192.004 5.27989 192.004 5.74222C192.004 6.20455 192.124 6.57441 192.365 6.85181C192.624 7.11071 193.086 7.33263 193.752 7.51756C194.418 7.7025 195.37 7.88743 196.609 8.07236C197.441 8.20181 198.255 8.3775 199.05 8.59941C199.864 8.82133 200.604 9.15421 201.269 9.59805C201.954 10.0419 202.49 10.6522 202.878 11.4289C203.285 12.2056 203.488 13.2135 203.488 14.4525C203.488 15.6915 203.165 16.7919 202.518 17.7535C201.889 18.6967 200.946 19.4364 199.688 19.9727C198.431 20.509 196.859 20.7772 194.972 20.7772Z" fill="#292C20"/>
<path d="M179.753 20.4996V0.277344H184.719V20.4996H179.753Z" fill="#292C20"/>
<path d="M160.268 20.4996V0.277344H170.92C171.734 0.277344 172.483 0.351316 173.167 0.499262C173.87 0.647207 174.499 0.869124 175.054 1.16502C175.608 1.46091 176.08 1.84002 176.468 2.30235C176.857 2.74618 177.152 3.27324 177.356 3.88351C177.578 4.47529 177.689 5.15029 177.689 5.90851C177.689 7.14755 177.347 8.20167 176.662 9.07084C175.997 9.92153 175.09 10.4948 173.944 10.7907V10.9849C174.739 11.1143 175.377 11.3455 175.858 11.6784C176.339 12.0113 176.69 12.4458 176.912 12.9821C177.152 13.5 177.273 14.138 177.273 14.8962V18.1417C177.273 18.5116 177.282 18.9 177.3 19.3068C177.337 19.6952 177.448 20.0928 177.633 20.4996H172.612C172.501 20.2592 172.418 19.9356 172.363 19.5287C172.307 19.1219 172.28 18.6596 172.28 18.1417V15.7561C172.28 15.2383 172.196 14.8037 172.03 14.4524C171.882 14.101 171.605 13.8236 171.198 13.6202C170.791 13.4167 170.208 13.315 169.45 13.315H164.818V9.40372H169.7C170.754 9.40372 171.494 9.15406 171.919 8.65475C172.363 8.15543 172.585 7.54516 172.585 6.82392C172.585 6.3616 172.511 5.98249 172.363 5.68659C172.233 5.37221 172.039 5.12255 171.78 4.93762C171.521 4.7342 171.216 4.58625 170.865 4.49379C170.513 4.40132 170.125 4.35509 169.7 4.35509H165.234V20.4996H160.268Z" fill="#292C20"/>
<path d="M140.783 20.4996V0.277344H151.435C152.249 0.277344 152.998 0.351316 153.682 0.499262C154.385 0.647207 155.014 0.869124 155.569 1.16502C156.123 1.46091 156.595 1.84002 156.983 2.30235C157.372 2.74618 157.667 3.27324 157.871 3.88351C158.093 4.47529 158.204 5.15029 158.204 5.90851C158.204 7.14755 157.862 8.20167 157.177 9.07084C156.512 9.92153 155.605 10.4948 154.459 10.7907V10.9849C155.254 11.1143 155.892 11.3455 156.373 11.6784C156.854 12.0113 157.205 12.4458 157.427 12.9821C157.667 13.5 157.788 14.138 157.788 14.8962V18.1417C157.788 18.5116 157.797 18.9 157.815 19.3068C157.852 19.6952 157.963 20.0928 158.148 20.4996H153.127C153.016 20.2592 152.933 19.9356 152.878 19.5287C152.822 19.1219 152.795 18.6596 152.795 18.1417V15.7561C152.795 15.2383 152.711 14.8037 152.545 14.4524C152.397 14.101 152.12 13.8236 151.713 13.6202C151.306 13.4167 150.723 13.315 149.965 13.315H145.333V9.40372H150.215C151.269 9.40372 152.009 9.15406 152.434 8.65475C152.878 8.15543 153.1 7.54516 153.1 6.82392C153.1 6.3616 153.026 5.98249 152.878 5.68659C152.748 5.37221 152.554 5.12255 152.295 4.93762C152.036 4.7342 151.731 4.58625 151.38 4.49379C151.028 4.40132 150.64 4.35509 150.215 4.35509H145.749V20.4996H140.783Z" fill="#292C20"/>
<path d="M128.723 20.7771C127.17 20.7771 125.764 20.5459 124.507 20.0836C123.268 19.6212 122.195 18.9555 121.289 18.0863C120.383 17.1986 119.689 16.1075 119.208 14.813C118.728 13.5185 118.487 12.0391 118.487 10.3747C118.487 8.71028 118.728 7.24007 119.208 5.96405C119.689 4.66952 120.383 3.58767 121.289 2.71849C122.195 1.83082 123.268 1.15582 124.507 0.693493C125.764 0.231164 127.17 0 128.723 0C130.258 0 131.654 0.231164 132.912 0.693493C134.169 1.15582 135.251 1.83082 136.157 2.71849C137.064 3.60617 137.757 4.68802 138.238 5.96405C138.719 7.24007 138.959 8.71028 138.959 10.3747C138.959 12.0391 138.719 13.5185 138.238 14.813C137.757 16.1075 137.064 17.1986 136.157 18.0863C135.251 18.9555 134.169 19.6212 132.912 20.0836C131.654 20.5459 130.258 20.7771 128.723 20.7771ZM128.723 16.5329C129.759 16.5329 130.665 16.311 131.442 15.8671C132.218 15.4233 132.81 14.7483 133.217 13.8421C133.642 12.936 133.855 11.7801 133.855 10.3747C133.855 9.32056 133.735 8.41439 133.494 7.65617C133.254 6.87946 132.903 6.24144 132.44 5.74213C131.996 5.24281 131.46 4.87295 130.831 4.63254C130.203 4.37363 129.5 4.24418 128.723 4.24418C127.688 4.24418 126.781 4.4661 126.005 4.90993C125.246 5.33528 124.655 6.00103 124.229 6.9072C123.804 7.81336 123.591 8.96919 123.591 10.3747C123.591 11.4288 123.712 12.3534 123.952 13.1486C124.211 13.9254 124.562 14.5634 125.006 15.0627C125.45 15.562 125.986 15.9319 126.615 16.1723C127.244 16.4127 127.946 16.5329 128.723 16.5329Z" fill="#292C20"/>
<path d="M98.3999 20.4996V0.277344H104.447L111.881 13.4537H112.048L111.881 7.32324V0.277344H116.653V20.4996H110.938L103.449 7.54516H103.282L103.476 13.1486V20.4996H98.3999Z" fill="#292C20"/>
</svg>
