<svg width="90" height="82" viewBox="0 0 90 82" fill="none" xmlns="http://www.w3.org/2000/svg">
<path fill-rule="evenodd" clip-rule="evenodd" d="M88.7983 59.0847C87.0598 61.2994 82.8005 62.8792 82.8005 62.8792L51.1151 74.371V65.8961L74.4334 57.5069C77.0796 56.5496 77.4859 55.1963 75.335 54.4859C73.1881 53.7736 69.3007 53.9777 66.6525 54.9391L51.1151 60.4645V51.6691L52.0106 51.363C52.0106 51.363 56.5004 49.7586 62.8137 49.0524C69.1269 48.3502 76.8572 49.1483 82.9258 51.4711C89.7646 53.6531 90.5348 56.87 88.7983 59.0847ZM54.1312 44.6536V22.9805C54.1312 20.4352 53.6663 18.0919 51.3011 17.4285C49.4898 16.8427 48.3658 18.5409 48.3658 21.0842V75.3589L33.8695 70.7132V6C40.0331 7.1553 49.0127 9.88639 53.8401 11.5295C66.1168 15.7854 70.2792 21.0822 70.2792 33.0169C70.2792 44.6496 63.1674 49.0585 54.1312 44.6536ZM7.27024 65.0102C0.249483 63.014 -0.918959 58.8541 2.28112 56.4577C5.23861 54.2451 10.2682 52.5795 10.2682 52.5795L31.0535 45.117V53.6246L16.0962 59.0296C13.4541 59.9869 13.0478 61.3422 15.1946 62.0526C17.3435 62.7629 21.2329 62.5608 23.8791 61.6015L31.0535 58.9724V66.584C30.5986 66.6656 30.0912 66.7472 29.6222 66.8269C22.4458 68.0107 14.8024 67.5168 7.27024 65.0102ZM84.1812 68.3802C85.0889 68.3802 85.9399 68.7354 86.5807 69.3906C87.2216 70.0356 87.5753 70.897 87.5753 71.8114C87.5753 72.7299 87.2216 73.5872 86.5807 74.2322C85.9399 74.8834 85.0889 75.2385 84.1812 75.2385C83.2735 75.2385 82.4245 74.8834 81.7816 74.2322C81.1408 73.5872 80.7891 72.7299 80.7891 71.8114C80.7891 69.9213 82.3093 68.3802 84.1812 68.3802ZM81.3591 71.8114C81.3591 72.5728 81.6523 73.2892 82.1859 73.824C82.7176 74.3669 83.4292 74.6609 84.1812 74.6609C85.7398 74.6609 87.0032 73.3831 87.0032 71.8114C87.0032 71.048 86.7121 70.3315 86.1764 69.7947C85.6448 69.2518 84.9332 68.9599 84.1812 68.9599C83.4292 68.9599 82.7176 69.2518 82.1859 69.7947C81.6523 70.3315 81.3591 71.048 81.3591 71.8114ZM85.2061 69.9641C85.5781 70.1295 85.7661 70.4479 85.7661 70.901C85.7661 71.1337 85.7175 71.3297 85.6185 71.4828C85.5477 71.593 85.4467 71.6828 85.3334 71.7604C85.4224 71.8134 85.5012 71.8767 85.5599 71.9502C85.6407 72.0563 85.6872 72.2257 85.6933 72.4564L85.7115 72.9442C85.7176 73.0749 85.7257 73.1749 85.7459 73.2361C85.7661 73.3259 85.8045 73.3831 85.853 73.4015L85.9036 73.426V73.4811V73.5648V73.6485H85.8207H85.2203H85.1718L85.1475 73.6056C85.1273 73.5648 85.1131 73.5179 85.099 73.4566C85.0889 73.4015 85.0787 73.3056 85.0727 73.1586L85.0423 72.5524C85.0343 72.3421 84.9635 72.2115 84.8301 72.1421C84.7472 72.1033 84.6097 72.085 84.4238 72.085H83.3948V73.5648V73.6485H83.3099H82.8207H82.7378V73.5648V69.9172V69.8335H82.8207H84.4925C84.7795 69.8335 85.0201 69.8764 85.2061 69.9641ZM83.3948 71.5011H84.442C84.6522 71.5011 84.82 71.4623 84.9393 71.3828C85.0484 71.3031 85.101 71.1582 85.101 70.948C85.101 70.7194 85.0262 70.5704 84.8685 70.4908C84.7816 70.4479 84.6603 70.4234 84.5066 70.4234H83.3948V71.5011Z" fill="#111112"/>
</svg>
