<svg width="137" height="82" viewBox="0 0 137 82" fill="none" xmlns="http://www.w3.org/2000/svg">
<path d="M0.367295 21.2175C0.316853 21.3179 0.300038 24.1619 0.316852 27.5245L0.367295 33.6307L7.76556 33.7143L15.1638 33.798L15.2143 47.6499L15.2479 61.5019L16.7275 61.4517L18.1904 61.4015L18.2072 45.9268C18.2072 36.458 18.1568 30.3685 18.0559 30.2346C17.9382 30.0841 16.2399 30.0339 10.6072 30.0339H3.30979V24.7307L3.94873 24.6136C4.28501 24.5634 34.0798 24.5132 70.1464 24.5132H136.025C136.277 24.5132 136.31 24.3124 136.31 22.7566V21H68.3809C14.0541 21 0.417738 21.0502 0.367295 21.2175Z" fill="#111112"/>
<path d="M23.8697 30.1513C23.7016 30.2182 23.6511 33.4637 23.6511 45.5925C23.6511 54.0409 23.7016 61.0672 23.752 61.2178C23.8361 61.4353 24.1388 61.4854 25.2653 61.4854H26.6777L26.7113 47.6335L26.7618 33.7983L32.5963 33.7481L38.4309 33.7146L38.4813 45.7933L38.5317 57.8886L38.9521 58.7251C39.4061 59.6619 40.8857 61.2345 41.5415 61.4854C41.8273 61.5858 47.6282 61.6527 57.0442 61.6527C72.0761 61.6695 72.093 61.6695 72.6646 61.3182C73.4549 60.833 74.3293 59.7958 74.8337 58.7084L75.2708 57.7883V30.2015L74.8841 30.1178C74.6655 30.0509 74.0434 30.0342 73.5054 30.0676L72.4965 30.1178L72.4124 43.1668C72.3284 57.5206 72.3788 56.7845 71.3027 57.621C70.8487 57.9723 70.7983 57.9723 56.9938 57.9723C41.6256 57.9723 42.6176 58.0392 41.8441 56.8681L41.4742 56.2993V43.2671C41.4742 31.5398 41.4406 30.2349 41.2052 30.1346C40.8857 30.0175 24.1724 30.0175 23.8697 30.1513ZM79.8275 30.2684C79.693 30.4357 79.6425 34.6348 79.6425 45.7264C79.6425 54.1078 79.693 61.0839 79.7434 61.2345C79.8275 61.4353 80.147 61.4854 81.2567 61.4854H82.6691L82.6859 48.3027C82.6859 41.0589 82.7532 35.0028 82.8204 34.8355C82.955 34.4842 83.0895 34.6682 86.9567 40.2391C88.1506 41.9455 88.6045 42.6147 90.824 45.7598C91.7656 47.0982 93.5816 49.6912 94.8594 51.5315C96.1541 53.3717 97.2471 54.9108 97.2975 54.961C97.3479 55.0112 97.6842 55.4963 98.0541 56.0484C98.424 56.6005 99.4329 58.0559 100.307 59.2772L101.871 61.5022L104.427 61.452L106.966 61.4018L109.774 57.2195C111.321 54.9108 115.339 48.9551 118.685 43.953C122.048 38.9677 124.839 34.8857 124.906 34.8857C124.991 34.8857 125.041 40.8581 125.041 48.1689V61.4353L126.352 61.5356C127.059 61.5691 127.731 61.5524 127.815 61.4687C127.933 61.3851 127.983 56.2659 127.967 45.8936C127.95 37.3951 127.916 30.4022 127.916 30.3186C127.899 30.2517 127.092 30.2015 126.117 30.2015C124.604 30.2015 124.284 30.2517 124.099 30.4859C123.965 30.6532 121.695 34.0158 119.038 37.9806C116.382 41.9288 114.162 45.2077 114.112 45.2579C114.061 45.3081 112.144 48.1521 109.841 51.5649L105.654 57.805H103.082L101.484 55.5131C100.61 54.2583 99.5506 52.736 99.1303 52.1337C98.7099 51.5147 96.8099 48.8046 94.9267 46.0944C88.5205 36.91 86.8054 34.4675 86.1328 33.5139C85.7461 32.9786 85.0399 31.9915 84.5523 31.2889L83.6612 30.0342H81.8452C80.5169 30.0342 79.962 30.1011 79.8275 30.2684ZM133.532 30.4022C133.482 30.5193 133.465 37.5457 133.482 46.0108L133.532 61.4018L134.928 61.452L136.307 61.5022V30.2015H134.961C134.037 30.2015 133.583 30.2684 133.532 30.4022ZM10.5865 56.751C10.7378 56.7845 11.0068 56.7845 11.175 56.751C11.3263 56.7008 11.1918 56.6674 10.8723 56.6674C10.5529 56.6674 10.4183 56.7008 10.5865 56.751Z" fill="#111112"/>
</svg>
