<svg width="166" height="82" viewBox="0 0 166 82" fill="none" xmlns="http://www.w3.org/2000/svg">
<path d="M0 41.0935V71.9551H83H166V41.0935V10.2318H83H0V41.0935ZM163.226 41.0935V69.1761L83.0438 69.1468L2.84697 69.1029L2.80317 41.0496L2.77397 13.0109H83H163.226V41.0935Z" fill="#111112"/>
<path d="M14.3047 25.2083V25.9982L14.9325 26.1005C15.2683 26.1444 15.7647 26.2322 16.0275 26.2761L16.4947 26.3492L16.4655 41.0779L16.4217 55.792L15.3705 55.9091L14.3047 56.0407V56.9036V57.7666H19.8526H25.4006V56.9036V56.0407L24.3494 55.9091L23.2836 55.792L23.2398 49.0932L23.2106 42.4089H30.5105H37.8104V49.0493C37.8104 54.5927 37.7812 55.7043 37.606 55.7628C37.4892 55.8067 36.9344 55.8944 36.365 55.9529L35.3284 56.0553V56.9036V57.7666H41.0224H46.7163V56.9036V56.0407L45.7381 55.9383C45.2125 55.8798 44.6869 55.8067 44.5701 55.7628C44.4095 55.7043 44.3803 53.0715 44.3803 41.0194V26.3492L44.9643 26.2614C45.2855 26.2175 45.8111 26.1298 46.1323 26.0859L46.7163 25.9982V25.2083V24.4185H41.0224H35.3284V25.2083V25.9982L36.0292 26.0859C36.4088 26.1444 36.9636 26.2175 37.2702 26.2614L37.8104 26.3492V32.6239V38.8986H30.5105H23.2106V32.6239V26.3492L23.8384 26.2468C25.5612 25.9835 25.4006 26.0859 25.4006 25.2083V24.4185H19.8526H14.3047V25.2083Z" fill="#111112"/>
<path d="M55.322 24.8287C52.2852 26.4083 53.497 31.001 56.9426 31.001C57.9792 31.001 58.7821 30.6207 59.4537 29.8455C60.5487 28.5584 60.5487 26.8617 59.4391 25.5746C58.4172 24.3606 56.7674 24.0681 55.322 24.8287Z" fill="#111112"/>
<path d="M66.7207 25.1352V25.8519L67.7135 25.9689L68.6917 26.1005L68.7355 41.0487L68.7647 55.9822L68.3705 56.0699C68.1369 56.1138 67.6843 56.187 67.3485 56.2308L66.7207 56.3332V57.0499V57.7666H71.9036H77.0866V57.0499V56.3332L76.4734 56.2308C76.123 56.187 75.6704 56.1138 75.4514 56.0699L75.0426 55.9822V40.2003V24.4185H70.8817H66.7207V25.1352Z" fill="#111112"/>
<path d="M86.769 28.134L83.8052 29.0262V31.542V34.0723H81.5423H79.2793V35.1693V36.2663H81.4547H83.6446L83.6884 45.1445C83.7468 55.0319 83.7468 54.9295 84.7542 56.3337C86.2872 58.4399 90.8716 58.6592 96.3319 56.8748L97.2371 56.5677V55.7632V54.9588L96.7991 55.0612C96.5509 55.1197 95.5143 55.1635 94.4923 55.1635C91.8351 55.1782 90.9884 54.8564 90.346 53.5546L90.0102 52.8672L89.9664 44.5594L89.9226 36.2663H92.7111H95.4851V35.1693V34.0723H92.7111H89.9372V30.6351C89.9372 28.7483 89.8934 27.198 89.835 27.2126C89.762 27.2272 88.3896 27.6367 86.769 28.134Z" fill="#111112"/>
<path d="M109.209 33.428C107.019 33.7206 104.289 34.8175 102.756 36.0315C100.96 37.4649 99.5145 39.7466 98.8429 42.1892C98.3903 43.8274 98.2735 47.4693 98.6093 49.4146C99.0911 52.1351 99.8795 53.8172 101.471 55.4261C103.369 57.3421 105.982 58.2782 109.939 58.4391C114.114 58.6292 117.531 57.5176 120.013 55.1774C122.363 52.9688 123.458 50.4092 123.619 46.7965C123.721 44.5002 123.502 42.7596 122.874 40.9167C122.232 39.0007 121.619 38.0207 120.232 36.6312C119.283 35.6659 118.801 35.3295 117.677 34.759C115.764 33.8229 114.29 33.4865 111.764 33.4134C110.64 33.3841 109.486 33.3988 109.209 33.428ZM111.837 35.2417C113.545 35.5635 114.713 36.5434 115.56 38.3864C116.479 40.3755 116.801 42.3062 116.801 45.9774C116.801 53.3053 115.02 56.6108 111.034 56.6254C109.588 56.6401 108.537 56.2305 107.647 55.2944C105.792 53.393 104.887 48.9758 105.267 43.7981C105.646 38.6058 107.209 35.7975 109.983 35.2417C110.844 35.0808 110.975 35.0808 111.837 35.2417Z" fill="#111112"/>
<path d="M141.794 33.6477C139.969 33.8818 137.72 34.891 135.808 36.339C135.224 36.7778 134.669 37.1434 134.596 37.1434C134.523 37.1434 134.464 36.456 134.464 35.6077V34.0719H130.304H126.143V34.8617V35.6515L126.843 35.7393C127.223 35.7978 127.705 35.8709 127.938 35.9148L128.333 36.0026V45.9924V55.9822L127.5 56.0699C126.143 56.2308 126.143 56.2308 126.143 57.0499V57.7666H131.399H136.654V57.0353C136.654 56.6257 136.611 56.304 136.552 56.2893C136.479 56.2747 136.012 56.2016 135.486 56.0992L134.537 55.9383V47.455V38.9717L135.267 38.4891C135.676 38.2258 136.523 37.8016 137.165 37.553C138.173 37.1434 138.509 37.0849 139.647 37.0703C141.093 37.0703 141.764 37.319 142.524 38.1234C143.677 39.3374 143.838 40.6976 143.779 49.2833L143.735 55.9383L142.786 56.0992C142.261 56.2016 141.794 56.2747 141.735 56.2893C141.662 56.304 141.618 56.6257 141.618 57.0353V57.7666H146.874H152.13V57.0499C152.13 56.2308 152.13 56.2308 150.787 56.0846L149.955 55.9822L149.911 47.4696C149.867 39.0449 149.853 38.9571 149.517 37.9479C149.064 36.5584 148.626 35.8417 147.75 35.0519C146.889 34.2767 145.794 33.8233 144.334 33.6331C143.166 33.4722 143.064 33.4722 141.794 33.6477Z" fill="#111112"/>
<path d="M51.6836 34.7886V35.5053L52.3844 35.593C52.764 35.6515 53.2458 35.7247 53.4794 35.7686L53.8736 35.8563L53.8444 45.89L53.8006 55.9383L52.8516 56.0992C52.326 56.2016 51.8588 56.2747 51.8004 56.2893C51.7274 56.304 51.6836 56.6257 51.6836 57.0353V57.7666H56.9541H62.2101L62.1663 57.0938C62.1079 56.2893 62.0057 56.2016 60.8523 56.0846L60.0055 55.9968V45.027V34.0719H55.8445H51.6836V34.7886Z" fill="#111112"/>
</svg>
