<?xml version="1.0" encoding="UTF-8"?><svg id="Layer_1" xmlns="http://www.w3.org/2000/svg" viewBox="0 0 44 20"><line x1="27.58" y1=".9" x2="19.66" y2="18.67" fill="none" stroke="#b4b8a5" stroke-linecap="round" stroke-linejoin="round" stroke-width="1.1"/><path d="m27.74,1.12c3.8,4.29,12.05,1.81,15.39,6.81l-4.55,10.56c-4.74-5.09-13.95-1.22-15.6-7.09" fill="none" stroke="#b4b8a5" stroke-linecap="round" stroke-linejoin="round" stroke-width=".7"/><line x1="33.58" y1="4.15" x2="28.76" y2="15.01" fill="none" stroke="#b4b8a5" stroke-linecap="round" stroke-linejoin="round" stroke-width=".6"/><line x1="37.19" y1="4.5" x2="32.36" y2="15.36" fill="none" stroke="#b4b8a5" stroke-linecap="round" stroke-linejoin="round" stroke-width=".6"/><line x1="40.57" y1="5.67" x2="35.75" y2="16.53" fill="none" stroke="#b4b8a5" stroke-linecap="round" stroke-linejoin="round" stroke-width=".6"/><line x1="30.41" y1="3.11" x2="25.59" y2="13.97" fill="none" stroke="#b4b8a5" stroke-linecap="round" stroke-linejoin="round" stroke-width=".6"/><path d="m26.41,4.06c4.69,4.52,10.64,1.56,15.59,6.25" fill="none" stroke="#b4b8a5" stroke-linecap="round" stroke-linejoin="round" stroke-width=".5"/><path d="m25.15,6.58c4.34,4.56,11.6,2,15.85,6.6" fill="none" stroke="#b4b8a5" stroke-linecap="round" stroke-linejoin="round" stroke-width=".5"/><path d="m24.11,9.32c4.23,4.87,10.86,1.61,15.81,6.3" fill="none" stroke="#b4b8a5" stroke-linecap="round" stroke-linejoin="round" stroke-width=".5"/><line x1="16.22" y1=".9" x2="24.14" y2="18.67" fill="none" stroke="#b4b8a5" stroke-linecap="round" stroke-linejoin="round" stroke-width="1.1"/><path d="m16.06,1.12C12.26,5.41,4.01,2.94.67,7.93l4.55,10.56c4.74-5.09,13.95-1.22,15.6-7.09" fill="none" stroke="#b4b8a5" stroke-linecap="round" stroke-linejoin="round" stroke-width=".7"/><line x1="10.22" y1="4.15" x2="15.04" y2="15.01" fill="none" stroke="#b4b8a5" stroke-linecap="round" stroke-linejoin="round" stroke-width=".6"/><line x1="6.62" y1="4.5" x2="11.44" y2="15.36" fill="none" stroke="#b4b8a5" stroke-linecap="round" stroke-linejoin="round" stroke-width=".6"/><line x1="3.23" y1="5.67" x2="8.05" y2="16.53" fill="none" stroke="#b4b8a5" stroke-linecap="round" stroke-linejoin="round" stroke-width=".6"/><line x1="13.39" y1="3.11" x2="18.21" y2="13.97" fill="none" stroke="#b4b8a5" stroke-linecap="round" stroke-linejoin="round" stroke-width=".6"/><path d="m17.39,4.06c-4.69,4.52-10.64,1.56-15.59,6.25" fill="none" stroke="#b4b8a5" stroke-linecap="round" stroke-linejoin="round" stroke-width=".5"/><path d="m18.65,6.58c-4.34,4.56-11.6,2-15.85,6.6" fill="none" stroke="#b4b8a5" stroke-linecap="round" stroke-linejoin="round" stroke-width=".5"/><path d="m19.69,9.32c-4.23,4.87-10.86,1.61-15.81,6.3" fill="none" stroke="#b4b8a5" stroke-linecap="round" stroke-linejoin="round" stroke-width=".5"/></svg>