<svg width="182" height="82" viewBox="0 0 182 82" fill="none" xmlns="http://www.w3.org/2000/svg">
<path d="M45.7693 57.3237C51.6408 57.3237 56.1807 52.7936 56.1807 46.09V20H62.5357V62.2758H56.2412V58.35C53.3964 61.309 49.4622 63 45.0425 63C35.9617 63 29 56.4173 29 46.4566V20.0069H35.355V46.09C35.355 52.9144 39.8343 57.3237 45.7673 57.3237" fill="#111112"/>
<path d="M67.2594 20.001H73.3732V35.4012C74.799 33.9441 76.5033 32.7871 78.3852 31.9986C80.2672 31.2101 82.2885 30.8062 84.3296 30.8107C93.4104 30.8107 100.553 37.9976 100.553 46.936C100.553 55.814 93.4104 62.9999 84.3296 62.9999C82.2787 63.0055 80.2473 62.6024 78.3546 61.8143C76.4619 61.0261 74.746 59.8689 73.3076 58.4104V62.2738H67.2505L67.2594 20.001ZM83.9066 57.6258C89.7185 57.6258 94.5007 52.854 94.5007 46.936C94.5007 40.9566 89.7185 36.2462 83.9066 36.2462C78.0342 36.2462 73.252 40.9566 73.252 46.936C73.252 52.854 77.9736 57.6258 83.9066 57.6258Z" fill="#111112"/>
<path d="M118.836 30.8711C127.734 30.8711 134.273 37.6955 134.273 46.8756V48.8687H109.154C110.002 53.8813 114.178 57.6258 119.381 57.6258C122.956 57.6258 125.981 56.1756 128.28 53.0957L132.7 56.3569C129.612 60.464 125.012 62.9395 119.381 62.9395C110.12 62.9395 102.977 56.0547 102.977 46.8756C102.977 38.1789 109.817 30.8711 118.837 30.8711M109.272 44.0375H128.099C127.07 39.3261 123.256 36.1858 118.716 36.1858C114.176 36.1858 110.362 39.3261 109.272 44.0375Z" fill="#111112"/>
<path d="M150.678 36.9109C146.682 36.9109 143.777 39.9908 143.777 44.7616V62.2758H137.662V31.4754H143.719V35.2833C145.233 32.8068 147.715 31.2366 151.105 31.2366H153.223V36.9139L150.678 36.9109Z" fill="#111112"/>
</svg>
