<svg width="121" height="42" viewBox="0 0 121 42" fill="none" xmlns="http://www.w3.org/2000/svg">
<path d="M54.0611 32.2831H56.0011V31.6626H54.0611V30.8512H57.3888V30.2327H53.0811V33.8677H57.429V33.1848H54.0611V32.2831Z" fill="#D2FF00"/>
<path d="M47.1205 32.1426C47.1205 32.2551 47.1365 32.4659 47.1606 32.7692C47.014 32.6226 46.8514 32.4941 46.6786 32.3756L43.7164 30.2327H43.0477V33.8677H43.9293V31.9016C43.9293 31.7952 43.9213 31.6064 43.8891 31.3232C44.0016 31.4357 44.1161 31.5281 44.2406 31.6184L47.3313 33.8657H48.0001V30.2307H47.1205V32.1406V32.1426Z" fill="#D2FF00"/>
<path d="M34.9422 32.2831H36.8842V31.6626H34.9422V30.8512H38.2699V30.2327H33.9642V33.8677H38.3121V33.1848H34.9422V32.2831Z" fill="#D2FF00"/>
<path d="M65.7796 32.4921C66.4262 32.4921 66.7255 32.2932 66.7255 31.7871V30.9356C66.7255 30.4275 66.4282 30.2347 65.7796 30.2347H62.1747V33.8677H63.1367V32.4921H64.0705L65.7675 33.8677H67.1673L65.2253 32.4921H65.7796ZM63.1367 31.8735V30.8593H65.3417C65.639 30.8593 65.7796 30.9055 65.7796 31.1505V31.5823C65.7796 31.8213 65.639 31.8735 65.3417 31.8735H63.1367Z" fill="#D2FF00"/>
<path d="M83.2998 31.6264L81.8558 30.2327H80.5525L82.7375 32.241V33.8677H83.7236V32.2189L85.9025 30.2327H84.7518L83.2998 31.6264Z" fill="#D2FF00"/>
<path d="M75.5116 30.2327H72.6076C71.8184 30.2327 71.5653 30.4095 71.5653 31.0923V33.0082C71.5653 33.691 71.8184 33.8677 72.6076 33.8677H75.5116C76.3029 33.8677 76.5559 33.691 76.5559 33.0082V31.753H74.0034V32.3736H75.602V33.1849H72.5434V30.8814H75.602V31.2891L76.5579 31.1405V31.0561C76.5579 30.4014 76.2808 30.2307 75.5136 30.2307L75.5116 30.2327Z" fill="#D2FF00"/>
<path d="M97.8498 25.1718C97.902 24.7099 97.4541 24.5191 97.0505 24.3545C96.2291 23.993 94.1626 21.1934 93.9999 20.7094C93.9296 20.2596 93.773 20.0447 93.5038 19.9101C93.8473 19.7635 94.2148 19.625 94.524 19.5486L94.8675 19.4603L94.9016 19.1108C94.9598 18.5686 95.1125 18.3637 95.2812 18.1489C95.4097 17.9802 95.5724 17.7633 95.6125 17.444L95.6487 17.1929L95.1928 16.7491C95.0181 16.5683 94.8253 16.3695 94.5461 16.1707L94.4578 16.1004L94.3413 16.0823C94.026 16.0241 93.7991 16.1225 93.6344 16.1928L93.4657 16.2571C93.2849 16.3093 92.8411 16.2812 92.4515 16.2571C92.0318 16.233 91.594 16.2048 91.1863 16.239L91.1562 16.245L91.132 16.251C90.8931 16.2912 90.6661 16.3796 90.4613 16.478C90.4492 16.3956 90.4312 16.3093 90.391 16.239C90.1922 15.9177 89.6961 15.8012 89.3527 15.9879H89.3648C89.2824 16.0281 89.2141 16.0703 89.1559 16.1105C88.2803 16.6587 87.9831 16.8053 87.8907 16.8395C87.6517 16.8515 87.4348 16.9559 87.3183 17.1427C87.248 17.2471 87.2199 17.3636 87.2199 17.4801C87.2199 17.5966 87.244 17.697 87.3023 17.7954C87.4007 17.9882 87.5995 18.0926 87.8164 18.1348V18.193C87.8224 18.4842 87.8224 18.7594 87.8224 19.0144C87.8224 21.097 87.7642 22.2578 87.7119 22.4787C87.5714 22.7117 87.4549 22.9627 87.4549 23.2258C87.4549 23.3082 87.4669 23.3885 87.489 23.4708C87.5593 23.7219 87.7401 23.9267 88.0252 24.0894C88.2341 24.24 88.6137 24.5613 88.684 24.6778C88.8466 24.9931 89.1981 25.1678 89.5114 25.0975C89.8026 25.0393 90.0074 24.8003 90.0295 24.491C90.0295 24.485 90.0415 22.9105 90.0415 22.9105C90.0415 22.6374 90.0355 22.3442 90.0355 22.071C90.0355 21.5348 90.0476 21.0448 90.0757 20.7175C90.2866 20.5367 90.9212 20.2736 91.12 20.3258C91.616 20.4785 92.4796 22.0228 93.1082 23.1555C93.797 24.3806 94.4437 25.5353 95.0864 26.0374C95.5121 26.3587 95.8977 26.5736 96.3757 26.1077C96.5042 26.0093 96.8998 25.7583 97.2091 25.706C97.6931 25.6237 97.8217 25.3666 97.8458 25.1698L97.8498 25.1718ZM90.9252 17.6528C91.0236 17.7291 91.1521 17.8155 91.3389 17.8275C91.5779 17.8456 91.7707 17.7452 91.9113 17.6749L92.092 17.5986C92.2908 17.5645 92.8511 17.4821 93.0901 17.5584C93.0901 17.8215 92.9034 18.3517 92.6523 18.428L91.841 18.667C91.2044 18.8538 90.4653 19.0687 89.8568 19.2675C89.897 18.6208 90.2183 18.1469 90.9252 17.6528Z" fill="#D2FF00"/>
<path d="M85.788 22.0249C85.4747 21.9727 85.1574 22.1655 85.053 22.4748L85.0469 22.4929L85.0409 22.5109C84.9325 22.9347 84.7979 23.1054 84.2296 23.2821C83.5206 23.497 81.4501 23.5512 80.7753 23.262C80.6629 23.005 80.5966 22.3262 80.5966 21.7177C80.5966 21.312 80.6267 20.9565 80.6889 20.7818C80.9882 20.7095 81.8176 20.6673 82.3317 20.6673C82.3358 21.0288 82.6269 21.322 82.9884 21.322L83.4403 21.1312L83.6271 20.6593C83.6311 20.579 83.7235 20.2617 83.8118 20.0729L83.8199 20.0588L83.8259 20.0427C83.9645 19.6893 83.862 19.4443 83.7857 19.3278C83.7134 19.2133 83.5327 19.0225 83.1672 19.0045C82.7334 18.9884 82.5567 19.2796 82.4984 19.374L82.4803 19.4041C82.2655 19.4282 81.1067 19.4101 80.6167 19.3619C80.6066 19.2716 80.6006 19.1671 80.6006 19.0426C80.6006 18.643 80.6528 18.1409 80.7251 17.926C81.1368 17.7332 82.6952 17.677 83.4363 17.8939C83.7998 18.0084 84.0267 18.3759 84.2858 18.8438C84.4465 19.1491 84.832 19.2816 85.1996 19.1511C85.5329 19.0326 85.7237 18.7313 85.6615 18.416C85.6574 18.398 85.5611 17.9421 85.5611 17.9421C85.4687 17.4762 85.3944 17.1066 85.1473 16.8255C84.9144 16.5785 84.5087 16.3355 84.2055 16.3355L83.7656 16.4298C83.613 16.4841 83.5046 16.5222 83.3459 16.4881C82.9463 16.4057 81.8598 16.3977 81.0685 16.46C81.0585 16.4318 81.0625 16.4017 81.0484 16.3716C80.8938 16.0543 80.4419 15.8073 80.0222 15.9479L80.0021 15.9539C79.8354 16.0181 79.6908 16.1286 79.5241 16.2571C79.243 16.474 78.9257 16.719 78.4798 16.7552C77.9557 16.7913 77.7227 17.1287 77.7227 17.44C77.7227 17.4501 77.7227 17.4601 77.7227 17.4721C77.7388 17.7834 77.9838 18.0284 78.3011 18.1068C78.3011 18.1228 78.3051 18.402 78.3051 18.402C78.3152 19.0989 78.3192 19.6873 78.3192 20.1813C78.3192 21.9928 78.2609 22.5451 78.2228 22.7138C78.042 22.9106 77.8432 23.1797 77.8432 23.501C77.8432 23.5512 77.8472 23.6014 77.8593 23.6536C77.8894 23.8043 77.9999 24.0834 78.3915 24.2461L78.7831 24.4047C79 24.4871 79.3936 24.6417 79.5041 24.7261C79.6507 24.9892 79.9338 25.1378 80.2311 25.0896C80.4379 25.0554 80.5986 24.9309 80.693 24.7642C80.7994 24.7803 80.9119 24.7984 80.9119 24.7984C81.5826 24.8345 83.3379 24.8305 84.5368 24.6739C84.6372 24.7682 84.7798 24.8506 85.0048 24.8727C85.6293 24.9028 86.0953 24.2059 86.1776 23.8264C86.286 23.3383 86.2881 22.6375 86.2881 22.6314C86.2881 22.3201 86.0812 22.0691 85.786 22.0189L85.788 22.0249Z" fill="#D2FF00"/>
<path d="M76.6984 17.4861C76.6201 16.99 76.5579 16.5984 76.2506 16.4117C76.2707 16.4237 76.1703 16.3574 76.1703 16.3574C75.859 16.1486 75.7064 16.0783 75.3188 16.1887L75.2304 16.2128L74.9272 16.3052C74.7364 16.3695 74.6219 16.4097 74.0917 16.3956C74.0897 16.3956 70.3884 16.4056 70.3884 16.4056L68.7256 16.4177C68.5067 16.4177 68.4203 16.3775 68.3159 16.3293L67.876 16.2169C67.5005 16.2169 66.9542 16.5261 66.8117 16.7189C66.6671 16.8916 66.5606 17.217 66.412 17.695L66.3036 18.0303C66.173 18.3637 66.3176 18.6991 66.641 18.8437C66.9944 19.0023 67.5025 18.918 67.6913 18.5404C67.9724 18.0323 68.1331 17.9179 68.4243 17.7813C68.7155 17.6488 69.7598 17.6648 70.2498 17.7411C70.2679 17.942 70.278 18.2533 70.278 18.6288C70.278 20.0406 70.1635 22.312 70.0892 22.6414L70.0309 22.7699C69.9466 22.9466 69.8321 23.1896 69.8321 23.4507C69.8321 23.5511 69.8482 23.6535 69.8904 23.756C69.9506 23.9046 70.0892 24.1074 70.3964 24.2259C71.1094 24.5292 71.2701 24.6677 71.3042 24.7059C71.4147 24.9388 71.7079 25.0875 72.0372 25.0413C72.3626 24.9951 72.5875 24.7541 72.5875 24.4548V23.6676C72.5835 23.3161 72.5795 22.7819 72.5795 22.1734C72.5795 20.5246 72.6036 18.3436 72.7261 17.717C73.1679 17.6267 74.3829 17.5945 74.8629 17.7873C75.2043 17.9319 75.2465 18.0183 75.3288 18.191L75.4132 18.3537C75.5658 18.665 75.9694 18.8176 76.341 18.6891C76.6744 18.5726 76.8571 18.2573 76.7868 17.9199C76.7828 17.8978 76.7045 17.4801 76.7045 17.4801L76.6984 17.4861Z" fill="#D2FF00"/>
<path d="M65.3297 20.8682L65.3578 20.8039C65.3658 20.7838 65.4301 20.6874 65.4301 20.6874C65.5385 20.5388 65.7193 20.2878 65.6409 19.9584C65.5887 19.7335 65.4281 19.5487 65.163 19.4101C64.8838 19.2615 64.6408 19.1209 64.4802 18.9081L64.5022 18.9402C64.2191 18.4923 63.6086 18.3437 63.1707 18.6149C62.984 18.7374 62.8775 18.7856 62.6667 18.7856L62.1746 18.7896C62.1746 18.7896 60.562 18.7876 60.2587 18.7856C60.1161 18.6329 59.9334 18.3518 59.7948 18.1007C59.8209 18.1007 59.849 18.0967 59.8731 18.0947L60.0378 18.0847L60.7347 18.1529L61.7188 18.2413C62.504 18.2413 62.7972 18.165 63.1085 18.0847L63.4278 18.0104C63.5302 17.9883 63.7411 18.0124 64.0725 18.0766L64.2251 18.1047L64.1869 18.0967C64.4761 18.161 64.7573 18.0806 64.936 17.8838C65.0907 17.7131 65.1429 17.4782 65.0766 17.2693C65.0083 17.0564 64.8276 16.9018 64.5966 16.8536C64.197 16.7753 63.8214 16.5303 63.4901 16.3134L62.9298 15.982C62.3293 15.6988 61.9497 15.8856 61.5842 16.0683L61.5159 16.1025C61.3532 16.1888 60.6363 16.3415 60.2085 16.4318C59.7225 16.5363 59.3028 16.6246 59.0759 16.713C59.0799 16.713 59.0397 16.7271 59.0397 16.7271C59.0397 16.7271 58.9152 16.7672 58.8569 16.7873C58.8288 16.7753 58.8007 16.7592 58.8007 16.7592C58.636 16.6728 58.2906 16.4921 57.8849 16.7813C57.8749 16.7873 57.5917 17.0062 57.5917 17.0062C57.4451 17.1247 57.4331 17.1327 57.2885 17.191C57.2122 17.2171 56.9129 17.3235 56.8286 17.6328C56.7503 17.924 56.931 18.1369 56.9892 18.2072C57.172 18.5385 57.5395 19.0989 57.8649 19.5909L58.3609 20.3601C58.5035 20.6091 58.7465 20.7637 59.0256 20.7818C59.3148 20.7979 59.6141 20.6653 59.7747 20.4524L59.7486 20.4846C59.7948 20.4324 59.9314 20.3319 60.3049 20.2697C60.2788 20.2737 61.3512 20.2757 61.3512 20.2757H62.1646C62.1646 20.2757 62.1706 20.2837 62.1867 20.3018C62.2088 20.3319 62.2168 20.3781 62.2088 20.4364C62.0361 21.6273 60.9978 24.1999 60.4596 24.5493C60.1141 24.7823 59.7366 24.7 59.5799 24.5975C59.5759 24.5955 59.3831 24.461 59.3831 24.461C59.122 24.2802 58.7244 24.0091 58.4292 23.7561C58.0958 23.4749 57.6841 23.3946 57.3226 23.5372C57.0314 23.6516 56.8306 23.8946 56.7985 24.1718C56.7944 24.1999 56.7944 24.226 56.7944 24.2521C56.7944 24.477 56.9069 24.6839 57.1017 24.8225L57.907 25.4752C57.907 25.4752 58.6039 26.0415 58.63 26.0636C58.632 26.0716 58.7545 26.4291 58.7545 26.4291C58.9795 26.7344 59.5578 26.7785 59.8812 26.7785C62.7811 26.7785 64.6308 22.4888 65.3276 20.8742L65.3297 20.8682Z" fill="#D2FF00"/>
<path d="M53.8743 23.0431C53.8924 23.0833 53.9065 23.2259 53.9065 23.4608L53.8763 23.9107L53.8402 24.461C53.8402 24.8988 54.1515 25.1277 54.4587 25.1277C54.8082 25.1277 55.009 24.8506 55.0753 24.7602L55.0853 24.7461L55.1094 24.708C55.2259 24.5212 55.3183 24.3766 55.4649 24.236C55.6075 24.1015 55.738 23.9368 55.738 23.6376C55.738 23.3966 55.6537 23.1897 55.5874 23.025C55.5492 22.9307 55.5071 22.8262 55.5071 22.772C55.5071 22.772 55.491 15.8575 55.491 15.7631C55.8444 15.6305 55.9228 15.3695 55.9228 15.2028C55.9228 14.8493 55.6356 14.6706 55.5271 14.6023L55.4589 14.5601C55.1877 14.4155 54.8242 14.0661 54.7399 13.9978C54.6555 13.9295 54.6073 13.8211 54.2258 13.7909C53.8442 13.7608 53.4907 14.1524 53.4907 14.4898C53.4907 14.7489 53.6554 14.9076 53.7337 14.9859C53.802 15.0521 53.8301 15.0803 53.8422 15.1988V15.4859L53.8382 15.6807C53.8382 15.6807 53.8241 19.9443 53.8241 20.2014C53.565 20.0006 53.31 19.7937 53.063 19.5848L52.5087 19.125L51.6793 18.4622L48.3716 15.8334L48.0623 16.1005C47.7671 16.3515 47.4699 16.4841 46.9879 16.6548L45.9617 17.0183L46.9076 17.5585C47.0923 17.6629 47.1084 18.0365 47.1184 18.3056V18.3678C47.1646 18.9201 47.1727 19.4864 47.1727 20.0427C47.1727 20.1753 47.1727 20.9485 47.1727 20.9485V21.1212C47.1727 22.2579 47.1325 22.5692 47.1124 22.6575C47.0984 22.6836 47.0763 22.7258 47.0763 22.7258C46.9698 22.9286 46.8393 23.1817 46.8393 23.489C46.8393 23.8986 47.0984 24.1557 47.2871 24.3445C47.3835 24.4389 47.4759 24.5313 47.504 24.6096L47.5121 24.6337L47.5402 24.6859C47.7129 25.0394 47.978 25.1117 48.1708 25.1117C48.5785 25.1117 48.8215 24.7662 48.8215 24.4329C48.8215 24.4329 48.7572 19.6913 48.7452 18.896C50.1469 19.9283 53.5309 22.6696 53.8763 23.0391L53.8743 23.0431Z" fill="#D2FF00"/>
<path d="M45.1323 19.4843L45.1905 18.8778C45.2146 18.7031 45.289 18.5866 45.3653 18.4641C45.4295 18.3537 45.552 18.1669 45.552 17.946C45.552 17.8415 45.5239 17.7251 45.4536 17.6126L45.4476 17.6006C45.2146 17.2391 44.8471 17.0402 44.5258 16.8715L44.1282 16.6326C43.7948 16.3634 43.4233 16.4759 43.1541 16.5562C42.9493 16.6205 42.7404 16.6848 42.4894 16.6546C42.0697 16.6085 41.6379 16.5723 41.2182 16.5502C41.2523 16.1305 41.2704 15.7047 41.2884 15.291C41.2945 15.2729 41.3125 15.0219 41.3125 15.0219C41.3366 14.7126 41.3648 14.3692 41.0916 14.1242C40.8466 13.8973 40.5313 13.9314 40.3164 13.9716L40.1477 14.0117C40.0955 14.0358 39.9489 14.076 39.8847 14.082H39.8786C39.8144 14.0519 39.3243 13.9475 39.232 14.07C39.1275 14.2166 39.1215 14.3391 39.1215 14.3391V14.3853C39.1215 14.7649 39.2099 14.9456 39.3203 15.1384L39.4187 15.3312C39.4649 15.4477 39.483 15.5822 39.483 15.7328C39.483 15.9658 39.4368 16.2409 39.3946 16.508C38.6014 16.508 37.9547 16.5422 37.6454 16.5844C37.5932 16.5502 37.4988 16.486 37.4988 16.486C37.2357 16.2932 36.8401 16.002 36.4666 16.2871C35.4925 16.9298 35.1371 17.0744 35.0266 17.1045L34.2333 17.3314L34.88 18.0082C35.0427 18.183 35.0487 18.183 35.0306 18.4521C34.9141 20.4403 36.0107 23.1776 38.28 24.3484C38.4487 24.4368 38.4909 24.489 38.4909 24.489C38.6194 24.8223 38.8343 24.9669 39.238 25.0192C39.3023 25.0312 39.3665 25.0372 39.4248 25.0372C39.4308 25.1999 39.4368 25.3405 39.4368 25.4509C39.4368 25.6257 39.4248 25.7482 39.4127 25.8365C39.244 25.8948 39.0392 25.702 38.9468 25.6317C38.9167 25.6076 38.9006 25.6618 38.9006 25.6618L38.9769 26.4551C39.0231 26.8286 39.2219 27.1319 39.5894 27.3186C39.6537 27.3588 39.7581 27.4171 39.8987 27.413C40.0393 27.407 40.0855 27.3026 40.4169 27.3608C40.7442 27.4191 41.0173 27.1218 41.1278 26.923C41.3387 26.5555 41.2161 26.0836 41.0977 25.6277C41.0635 25.4871 41.0153 25.2903 41.0153 25.226C41.0153 25.226 41.0093 25.0513 41.0033 24.8123C41.172 24.736 41.3407 24.6135 41.4471 24.4107C41.7905 24.2299 42.1359 24.0773 42.4673 23.9327C43.2204 23.6053 43.9253 23.3021 44.5258 22.6735C44.8632 22.306 44.9917 21.35 45.1323 19.4883V19.4843ZM41.0475 19.7876C41.0133 19.4201 40.9772 18.9541 41.0414 18.5746L41.0716 17.9681C41.0655 17.944 41.0655 17.9219 41.0655 17.8978C41.7825 17.9741 42.4653 18.0785 42.7224 18.201C42.8569 18.5967 42.9152 19.0345 42.9152 19.5024C42.9152 20.2896 42.7686 21.1291 42.6179 21.8581C42.4613 22.1092 41.6258 22.7458 40.9671 22.9948L40.931 21.6653L40.9952 20.9182C41.0354 20.5507 41.0836 20.1712 41.0475 19.7856V19.7876ZM39.1476 21.1472L39.2179 22.32C38.8102 21.9244 38.4307 21.3982 38.1093 20.7676C37.6535 19.8759 37.4446 19.0124 37.4446 18.4701C37.4446 18.3235 37.4687 18.2191 37.4968 18.1267C38.0149 18.4019 38.3784 18.2251 38.75 17.958C38.75 17.958 38.9187 17.8415 39.0131 17.7833C39.0773 17.7773 39.1697 17.7773 39.2822 17.7773C39.2882 17.8938 39.2942 18.0102 39.2942 18.1327C39.2942 18.5585 39.2541 19.0244 39.2179 19.4803C39.1777 19.9523 39.1416 20.4363 39.1416 20.8921C39.1416 20.9805 39.1416 21.0669 39.1476 21.1492V21.1472Z" fill="#D2FF00"/>
<path d="M33.0303 16.8556C32.6869 16.707 32.2029 16.4097 31.7531 16.0744C31.3313 15.7631 30.8413 15.8775 30.5903 16.1446C30.4678 16.2752 30.4055 16.4358 30.4055 16.5985C30.4055 16.6045 30.4055 16.6086 30.4055 16.6146C30.3935 16.6246 30.3714 16.6427 30.3714 16.6427L30.2649 16.7271C29.305 17.5223 27.9654 19.4101 27.1541 20.6573C26.407 19.5969 24.1738 16.462 23.5994 16.0643L23.3544 15.8976L22.529 16.3133L21.0931 17.0162L21.6393 17.5183C21.9024 17.7493 21.9145 17.8095 21.9506 17.9702L22.047 18.3236C22.1695 18.7795 22.1053 22.0229 21.9165 22.5531C21.6875 22.8403 21.5711 23.1937 21.6092 23.511C21.6434 23.7842 21.7859 24.0211 22.0149 24.1818C22.1374 24.2762 22.3342 24.5072 22.3764 24.5875C22.4286 24.8044 22.5712 24.9831 22.776 25.0675C23.005 25.1619 23.266 25.1237 23.4568 24.9731C23.6155 24.8486 23.7018 24.6638 23.7018 24.467C23.7018 24.4308 23.6978 24.3967 23.6918 24.3585C23.6838 24.2662 23.6818 23.7761 23.6818 23.1214C23.6818 22.1052 23.6878 20.7015 23.6918 19.7636C24.0433 20.2395 24.475 20.8219 24.475 20.8219L26.1781 23.1335C26.3026 23.2982 26.5114 23.5773 26.8569 23.5894C27.0035 23.5954 27.2163 23.5532 27.4172 23.3223C27.4252 23.3142 27.5236 23.2901 27.5236 23.2901C27.6742 23.26 27.9032 23.2118 28.2466 23.0411L28.9555 22.6856L28.3309 22.1996C28.2586 22.1434 28.1442 22.0068 28.0638 21.8984C28.59 20.9364 29.7749 19.3017 30.6405 18.3096C30.6385 18.6992 30.6344 19.2716 30.6344 20.0608C30.6344 21.322 30.6385 23.1234 30.6465 25.5635V26.3367C30.6485 26.6801 30.8995 26.9532 31.243 26.9874C31.5382 27.0175 31.8073 26.8508 31.9358 26.5877C32.0322 26.5114 32.2913 26.3548 32.456 26.2544L32.9159 25.9672C33.2191 25.7643 33.3155 25.5294 33.3155 25.2984C33.3155 25.0675 33.2271 24.8606 33.1569 24.6899L33.0785 24.4911C33.0544 24.3947 32.9721 23.742 32.9721 19.9745C32.9721 19.4603 32.9721 18.888 32.9761 18.2513C32.9761 18.2513 32.9761 18.179 32.9761 18.1188C33.2492 18.0525 33.4501 17.8738 33.5023 17.6248C33.5083 17.5986 33.5123 17.5585 33.5123 17.5103C33.5123 17.3376 33.44 17.0524 33.0223 16.8556H33.0303Z" fill="#D2FF00"/>
<path d="M120.401 12.3971C120.401 12.3971 120.377 11.9172 120.377 11.8208C120.558 11.4151 120.861 11.2082 120.841 10.9291C120.823 10.7222 120.716 10.5816 120.61 10.4712C120.827 10.0756 120.505 9.6016 120.465 9.31843C120.379 9.29032 120.31 9.25015 120.272 9.21802C120.296 8.42274 120.065 8.49303 119.81 8.4368C119.336 7.71582 118.973 7.94878 118.593 7.82829C118.485 7.7841 118.433 7.56922 118.393 7.38646C117.726 7.35232 117.597 8.02911 116.79 7.99698C116.686 8.56332 116.565 8.70591 116.426 8.75009C116.017 8.64566 115.627 9.07744 115.561 9.07744C115.471 8.63562 115.209 8.54725 114.872 8.48299C114.844 7.96284 114.43 7.83029 114.073 7.69373C113.918 7.55114 113.769 7.41659 113.677 7.33425C113.5 7.22982 113.251 7.20772 113.063 7.13743C112.998 7.10129 112.858 7.07919 112.804 6.6675C112.434 6.64942 112.277 6.6936 112.064 6.84824C112.02 6.88037 111.747 7.03702 111.747 7.03702C111.578 7.09928 111.532 7.13743 111.317 7.20572C111.022 7.30011 110.325 7.23785 109.922 7.74193C109.667 7.76804 109.58 7.69775 109.544 7.67566C108.897 7.67566 108.568 8.09137 108.558 8.09338C108.548 8.09338 108.237 8.19178 108.01 8.34241C107.976 8.37253 107.785 8.16969 107.785 8.16969C107.437 8.18777 106.998 8.2199 106.674 8.1215C106.439 8.04317 106.399 8.00702 106.283 7.82829C106.228 7.74595 106.18 7.66762 106.07 7.53909C105.855 7.54512 105.64 7.48888 105.289 7.85238C104.925 7.89657 104.762 8.20986 104.473 8.30827C104.118 8.43077 103.545 8.35044 103.316 8.30827C103.027 8.43479 102.8 8.4388 102.708 8.62357C102.686 8.66775 102.485 8.62959 102.26 8.81435C101.656 8.91477 101.192 9.27827 101.192 9.27827C100.999 9.47106 100.854 9.83255 100.776 10.1017C102.407 9.91891 103.162 10.3648 103.204 10.3828C103.724 10.3487 103.768 10.433 104.037 10.5756C104.049 10.5957 104.1 10.8005 104.142 10.8467C104.142 10.8467 104.088 10.9893 104.001 11.0817C103.989 11.162 103.941 11.626 104.632 11.9895C104.638 12.2003 104.778 12.363 104.798 12.5437C104.821 12.7446 104.547 12.9996 104.792 13.4053C104.72 13.6664 104.427 14.4235 104.427 14.4235C104.427 14.4235 104.351 15.0441 104.327 15.2047C104.25 15.4116 104.166 15.6204 104.154 15.8413C104.138 16.1325 104.341 16.4097 104.497 16.6507C104.68 16.9318 104.811 17.1909 104.909 17.5102C105.078 18.0525 105.325 19.1671 105.333 19.1671C105.238 19.6591 105.417 19.9483 105.284 20.2817C105.17 20.5668 105.15 20.7135 105.164 21.0368C105.164 21.0368 105.337 21.2055 105.538 21.332C105.529 21.4927 105.511 21.8582 105.511 21.8582C105.511 21.8582 105.628 22.2217 105.628 22.7117C105.628 22.9507 105.405 23.1134 105.335 23.3001C105.248 23.5271 105.064 23.9749 104.823 24.1476C104.869 24.724 105.188 24.9389 105.325 25.0393C105.455 25.1337 105.429 25.1437 105.383 25.3104C105.278 25.684 105.349 25.9852 105.594 26.3346C105.22 26.8447 105.634 27.3388 105.77 27.6943C105.891 28.0096 106.162 29.323 106.178 29.7126L106.297 30.7669C106.359 31.261 106.734 31.6787 106.734 31.6787C106.867 32.3254 107.128 32.6306 107.198 32.729C107.269 32.8294 107.753 33.0504 107.753 33.0504L107.773 32.5985C107.725 32.1024 107.972 31.7068 107.743 31.02C107.743 31.02 107.606 30.1685 107.606 29.7849C107.606 29.7849 107.925 28.4815 107.608 28.0075C107.767 27.6722 107.793 27.4292 107.713 27.0797C107.737 26.8668 108.118 26.5315 107.763 25.9129C107.763 25.9129 107.371 25.1277 107.715 24.3023C107.891 23.8805 107.923 23.4166 108.068 22.9848C108.317 22.3803 108.636 21.6332 107.984 21.1854C108 21.0207 108.038 20.7757 108.068 20.6492C108.068 20.6492 108.237 20.4263 107.96 19.8961C108.038 19.7896 108.092 19.5968 108.136 19.4342C108.303 19.1169 108.616 18.8518 108.596 18.4622C108.58 18.171 108.403 17.9641 108.217 17.7653C108.126 17.5705 107.923 17.1226 107.847 16.9037C107.847 16.8134 107.925 16.4278 107.646 16.1466C107.574 16.0281 107.634 15.7349 107.634 15.7349C107.676 15.4337 107.684 15.1103 107.437 14.8894C107.437 14.3793 107.958 14.1122 107.958 13.6081L108.02 13.5278C108.044 13.0378 108.092 12.5698 107.674 12.6301C107.69 12.3088 107.498 11.8529 107.797 11.6099C107.797 11.6099 108.108 11.5838 108.229 11.4312C108.257 11.397 108.576 11.3348 108.697 11.3006C108.697 11.3006 108.44 10.5355 108.787 10.2141C108.787 10.2141 108.666 9.78235 108.646 9.72009C109.104 9.57349 109.251 9.93498 109.934 9.95305C110.072 10.0896 110.008 10.1679 110.008 10.1679C110.07 10.3487 110.155 10.6178 110.293 10.7343C110.293 10.7343 110.283 11.162 110.082 11.2022C110.06 11.5737 109.908 12.3489 110.618 12.6924C110.677 12.7205 110.695 12.7345 110.675 12.8209C110.534 13.3792 110.4 13.7869 110.621 14.3592C110.621 14.3592 110.422 14.4637 110.687 14.8151C110.576 15.3995 110.422 15.9618 110.94 16.3715C110.97 16.4017 111.004 16.4258 110.986 16.5101C110.966 16.6025 110.709 17.7834 110.807 18.1027C110.731 18.4381 110.675 18.7755 110.986 19.1289C110.986 19.1289 111.293 20.109 111.295 20.1672C111.305 20.3359 110.966 20.7576 110.954 20.8982C110.954 20.8982 110.948 21.1533 110.88 21.2195C110.88 21.2195 110.813 22.051 110.793 22.1434C110.777 22.1915 110.48 22.3321 110.498 22.8382C110.309 23.4046 110.189 23.515 110.096 23.5692C110.064 24.1557 110.271 24.483 110.51 24.736C110.588 24.8184 110.56 24.8887 110.614 24.9509C110.522 25.3365 110.468 25.927 110.574 26.4873C110.614 26.7102 110.618 27.0938 110.618 27.0938L110.793 27.1962C110.775 27.5135 110.61 27.6862 110.773 28.0015C110.623 28.2405 110.633 28.5036 110.743 28.7566L110.737 29.1161C110.888 29.4656 110.813 29.572 110.888 29.7206C110.833 29.8291 110.679 30.0319 110.616 30.1082C110.502 30.5239 110.757 30.9758 111.04 31.2047C111.04 31.2047 111.066 31.3232 111.123 31.3935C111.181 31.9257 111.38 32.3133 111.38 32.3133C111.38 32.3133 111.406 32.5623 111.309 32.6005L111.279 33.0644C111.279 33.0644 111.119 33.6508 111.129 33.9199C111.145 34.2854 111.171 34.669 111.645 35.1269C111.779 34.657 111.948 34.6048 112.117 34.3216L112.693 33.3978C112.693 33.3978 112.878 32.2872 112.844 32.1607C113.038 32.0522 113.051 31.7912 112.98 31.3152C113.201 31.0099 113.125 30.4135 113.119 30.289C113.543 29.6744 113.298 29.2346 112.878 28.7004L112.832 28.2044C112.741 28.1321 112.886 27.4553 112.894 26.7463C112.896 26.5415 112.814 26.5214 112.876 26.4592C113.281 26.0675 112.822 25.6579 113.053 25.1959C113.053 25.1959 113.053 25.0192 113.004 24.9268C113.047 24.8284 113.177 24.481 113.01 24.1838C113.073 24.1356 113.03 24.009 113.03 24.009C113.177 23.6676 113.113 23.4668 112.954 23.1435C112.994 22.9688 112.958 22.8442 112.976 22.8001C113.045 22.6314 113.151 22.551 113.271 22.3442C113.283 22.2397 113.292 22.1494 113.3 22.061C113.577 21.6835 113.589 21.4625 113.581 21.1894C113.826 20.605 114.051 20.5889 114.245 20.2797C114.245 20.2797 114.302 19.8499 114.328 19.7334C114.422 19.2836 114.087 18.4561 113.876 18.0063C113.876 18.0063 113.896 17.7673 113.743 17.4118C113.898 17.0684 114.043 16.5222 113.938 16.1064C114.336 15.7731 114.525 15.4457 114.241 14.4416C114.183 14.2367 114.067 14.052 114.021 13.8431C114.091 13.5961 114.227 13.3531 114.229 13.09C114.233 12.7687 114.037 12.616 113.864 12.3791C114.065 11.9734 113.952 11.7163 113.846 11.3548C113.976 11.2303 114.043 11.0596 114.047 10.8809C114.129 10.8146 114.203 10.7483 114.262 10.6921C114.438 10.7865 114.972 10.7363 115.137 10.7262C115.211 10.8146 115.346 10.9271 115.346 10.9271C115.346 10.9271 115.655 10.9893 115.846 11.1098C116.009 11.1179 116.262 11.1058 116.513 11.0074C116.627 11.0616 116.784 11.1158 116.953 11.162C116.953 11.162 116.987 11.3448 117.117 11.4151C117.023 11.5938 117.166 11.877 117.123 11.9834C117.075 12.11 116.997 12.5237 117.143 12.8771C117.041 13.2466 116.943 13.331 116.943 13.331C116.947 13.6583 117.005 13.813 117.101 13.9094C116.906 14.291 116.708 14.3371 116.485 14.4436C116.404 15.0039 116.894 15.2971 116.923 15.4256C116.943 15.518 116.8 15.7289 116.8 15.7289L116.83 16.1145C116.663 16.3394 116.605 16.5563 116.842 17.0282C116.842 17.1046 116.836 17.5203 117.131 17.7251C117.174 17.7552 117.196 17.7914 117.224 17.8858C117.266 18.0284 117.326 18.189 117.447 18.3336C117.328 18.908 117.244 19.3518 117.244 19.3518C117.202 19.5366 117.19 19.7254 117.244 19.9101C117.362 20.3319 117.517 20.5126 117.589 20.6793C117.601 20.8339 117.615 21.33 117.627 21.4726C117.627 21.4967 117.682 21.5348 117.676 21.567C117.668 21.6071 117.621 21.6473 117.621 21.6794V22.1132C117.601 22.2116 117.545 22.776 117.577 23.0471C117.613 23.3704 117.593 23.5371 117.517 23.7399V24.3404C117.366 24.6015 117.24 24.7601 117.19 24.8947C117.035 25.3546 117.376 25.7322 117.39 25.8346L117.296 25.9591C117.296 25.9591 117.35 26.3427 117.294 26.5315C117.242 26.6178 116.886 26.6961 116.886 26.6961C116.886 26.6961 116.782 27.4954 117.256 28.3469C117.284 28.3951 116.878 29.7307 117.184 30.1705L117.394 31.022L117.762 31.8072C117.762 31.8072 118.109 31.4477 118.24 30.8894L118.403 29.9777C118.79 29.4595 118.967 28.7044 119.142 28.5357C119.423 28.2646 119.457 27.9915 119.459 27.8288C119.465 27.5577 119.344 27.3308 119.34 27.2805C119.33 27.2002 119.401 26.897 119.308 26.652C119.308 26.652 119.359 26.5074 119.304 26.3427C119.455 26.1218 119.523 25.8988 119.525 25.6097C119.521 25.5313 119.567 24.9389 119.302 24.736C119.188 24.6457 119.272 24.5433 119.272 24.5433C119.471 24.2782 119.594 24.0633 119.67 23.8564C119.921 23.0652 119.573 22.7117 119.471 22.5972C119.487 22.4807 119.507 22.3301 119.531 22.2016C119.445 22.1474 119.399 22.1253 119.423 22.051C119.555 21.6895 120.063 20.7556 120.074 20.4403C120.074 20.3399 120.051 20.2536 120.023 20.2013C120.001 20.1612 120.138 20.0547 120.098 19.633C120.031 19.1229 119.696 18.7293 119.579 18.5827C119.461 18.4381 119.328 18.2613 119.318 18.1348C119.294 17.7934 119.391 17.5183 119.6 17.1407C119.6 17.1407 119.499 16.9258 119.722 16.7792C119.756 16.3233 119.581 16.0823 119.353 15.9418C119.503 15.8514 119.411 15.277 119.286 14.54C119.286 14.54 119.879 13.9616 119.734 13.4555C119.778 13.3832 119.826 13.2828 119.849 13.1563C120.013 12.9876 120.009 12.7867 119.995 12.7044C119.995 12.7044 120.078 12.5719 120.413 12.3911L120.401 12.3971Z" fill="#D2FF00"/>
<path d="M16.0282 12.9717C16.1929 12.6704 15.9479 12.311 15.9178 12.0961C15.8515 12.074 15.7993 12.0439 15.7712 12.0198C15.7893 11.4153 15.6145 11.4675 15.4197 11.4273C15.0603 10.8791 14.7831 11.0558 14.4939 10.9654C14.4116 10.9313 14.3714 10.7686 14.3413 10.628C13.8352 10.6019 13.7368 11.116 13.1243 11.0919C13.0459 11.5217 12.9536 11.6302 12.8471 11.6643C12.5358 11.584 12.2406 11.9133 12.1904 11.9133C12.1221 11.5779 11.9233 11.5117 11.6662 11.4615C11.6442 11.0658 11.3309 10.9654 11.0577 10.861C10.9392 10.7525 10.8268 10.6501 10.7565 10.5879C10.6219 10.5075 10.4332 10.4915 10.2906 10.4372C10.2424 10.4091 10.1359 10.3931 10.0938 10.0798C9.81461 10.0657 9.69411 10.0998 9.53144 10.2163C9.4973 10.2404 9.29044 10.3609 9.29044 10.3609C9.16191 10.4071 9.12577 10.4372 8.9631 10.4894C8.73817 10.5617 8.20999 10.5135 7.90272 10.8971C7.70791 10.9172 7.64365 10.863 7.61553 10.8469C7.1235 10.8469 6.87448 11.1622 6.86644 11.1642C6.85841 11.1642 6.62143 11.2385 6.45073 11.353C6.42462 11.3751 6.28002 11.2225 6.28002 11.2225C6.01493 11.2365 5.68155 11.2606 5.43654 11.1863C5.2578 11.1261 5.22768 11.1 5.13932 10.9634C5.09915 10.9011 5.06099 10.8409 4.97665 10.7445C4.81397 10.7485 4.6493 10.7063 4.3842 10.9815C4.10706 11.0136 3.98455 11.2526 3.76364 11.3289C3.49453 11.4233 3.05873 11.361 2.88602 11.3289C2.66511 11.4253 2.49239 11.4273 2.42411 11.5679C2.40805 11.602 2.25542 11.5739 2.0827 11.7125C1.62281 11.7888 1.27136 12.066 1.27136 12.066C1.12475 12.2126 1.01429 12.4857 0.956055 12.6905C2.19517 12.552 2.76954 12.8914 2.80167 12.9054C3.1973 12.8793 3.22944 12.9436 3.43629 13.052C3.44633 13.0681 3.48248 13.2227 3.51662 13.2589C3.51662 13.2589 3.47445 13.3673 3.40817 13.4376C3.40014 13.4999 3.36198 13.8513 3.88815 14.1285C3.89418 14.2891 3.99861 14.4136 4.01467 14.5482C4.03074 14.7008 3.82389 14.8936 4.00865 15.2029C3.95242 15.4017 3.73151 15.9781 3.73151 15.9781C3.73151 15.9781 3.67327 16.45 3.65519 16.5725C3.59695 16.7292 3.53269 16.8879 3.52465 17.0565C3.51261 17.2775 3.66724 17.4883 3.78573 17.6711C3.9243 17.884 4.02271 18.0808 4.09903 18.3258C4.22756 18.7375 4.41432 19.585 4.42035 19.585C4.34805 19.9585 4.48462 20.1774 4.3842 20.4325C4.29784 20.6494 4.28178 20.7598 4.29182 21.0068C4.29182 21.0068 4.42236 21.1354 4.57499 21.2298C4.56896 21.3503 4.5549 21.6294 4.5549 21.6294C4.5549 21.6294 4.64327 21.9066 4.64327 22.2781C4.64327 22.4588 4.47457 22.5834 4.42035 22.7259C4.35408 22.8987 4.2155 23.2401 4.03074 23.3706C4.06488 23.8084 4.30789 23.9731 4.41232 24.0494C4.51072 24.1217 4.49265 24.1297 4.4565 24.2542C4.37818 24.5394 4.43039 24.7684 4.61716 25.0335C4.33198 25.4211 4.64729 25.7966 4.75172 26.0657C4.8441 26.3047 5.04894 27.3048 5.06099 27.6L5.15137 28.4014C5.19956 28.7769 5.48273 29.0942 5.48273 29.0942C5.58315 29.5862 5.78197 29.8172 5.83619 29.8935C5.89042 29.9698 6.25592 30.1385 6.25592 30.1385L6.27199 29.7951C6.23383 29.4176 6.42261 29.1163 6.2499 28.5942C6.2499 28.5942 6.14747 27.9475 6.14547 27.6563C6.14547 27.6563 6.38847 26.6662 6.14748 26.3047C6.26797 26.0497 6.28806 25.8649 6.22781 25.5998C6.24588 25.4371 6.53508 25.1841 6.26596 24.7141C6.26596 24.7141 5.96874 24.1157 6.22982 23.4911C6.36437 23.1698 6.38847 22.8183 6.49893 22.491C6.68771 22.0311 6.93071 21.4647 6.43466 21.1233C6.44671 20.9968 6.47684 20.812 6.49893 20.7156C6.49893 20.7156 6.62746 20.5469 6.41659 20.1433C6.47683 20.063 6.517 19.9163 6.55114 19.7918C6.67766 19.5508 6.91464 19.348 6.90058 19.0528C6.88853 18.8319 6.75398 18.6732 6.61139 18.5226C6.54311 18.374 6.38847 18.0346 6.33224 17.8679C6.33224 17.7996 6.39249 17.5064 6.17961 17.2935C6.12539 17.2032 6.16957 16.9802 6.16957 16.9802C6.2017 16.7513 6.20773 16.5043 6.01895 16.3376C6.01895 15.95 6.41458 15.7471 6.41458 15.3636L6.46278 15.3013C6.48085 14.9278 6.517 14.5743 6.2017 14.6185C6.21375 14.3755 6.06714 14.028 6.29408 13.8433C6.29408 13.8433 6.53106 13.8232 6.62143 13.7067C6.64352 13.6806 6.88652 13.6324 6.9769 13.6083C6.9769 13.6083 6.78009 13.0259 7.04518 12.7829C7.04518 12.7829 6.9528 12.4556 6.93673 12.4074C7.28417 12.2969 7.39663 12.57 7.91477 12.5841C8.0192 12.6865 7.971 12.7488 7.971 12.7488C8.0192 12.8853 8.08347 13.0902 8.1879 13.1785C8.1879 13.1785 8.17986 13.5039 8.02723 13.534C8.01117 13.8172 7.89469 14.4056 8.43492 14.6667C8.4791 14.6888 8.49315 14.6988 8.47709 14.7651C8.37065 15.1908 8.26823 15.4981 8.43692 15.9339C8.43692 15.9339 8.2863 16.0142 8.48713 16.2793C8.40278 16.7232 8.2863 17.1509 8.67792 17.4622C8.70202 17.4843 8.72612 17.5044 8.71206 17.5667C8.698 17.6369 8.50119 18.5346 8.57549 18.7756C8.51725 19.0307 8.47508 19.2878 8.71206 19.5549C8.71206 19.5549 8.94502 20.2999 8.94703 20.3441C8.95506 20.4726 8.69599 20.794 8.68796 20.8984C8.68796 20.8984 8.68394 21.0932 8.63173 21.1414C8.63173 21.1414 8.58152 21.772 8.56545 21.8423C8.5534 21.8805 8.32647 21.9869 8.34253 22.3705C8.19794 22.8002 8.10756 22.8846 8.03728 22.9268C8.01318 23.3726 8.16982 23.6216 8.35057 23.8124C8.41082 23.8747 8.38872 23.9289 8.4309 23.9751C8.36061 24.2683 8.32044 24.7182 8.40077 25.1419C8.4309 25.3106 8.4329 25.6038 8.4329 25.6038L8.56545 25.6821C8.55139 25.9231 8.42688 26.0537 8.54939 26.2927C8.43491 26.4754 8.44094 26.6742 8.52529 26.867L8.51926 27.1402C8.63374 27.4052 8.5775 27.4876 8.63373 27.6C8.59156 27.6824 8.47508 27.837 8.42688 27.8953C8.34052 28.2106 8.53533 28.554 8.74821 28.7287C8.74821 28.7287 8.76829 28.8191 8.81046 28.8733C8.85465 29.279 9.00527 29.5722 9.00527 29.5722C9.00527 29.5722 9.02535 29.761 8.95104 29.7911L8.92694 30.1446C8.92694 30.1446 8.80444 30.5904 8.81247 30.7932C8.82452 31.0704 8.8446 31.3636 9.2061 31.711C9.30852 31.3535 9.43705 31.3154 9.56558 31.0985L10.0034 30.3976C10.0034 30.3976 10.144 29.5521 10.1179 29.4577C10.2665 29.3754 10.2745 29.1766 10.2223 28.8151C10.391 28.5821 10.3327 28.1302 10.3267 28.0338C10.6501 27.5659 10.4633 27.2325 10.144 26.8269L10.1098 26.4493C10.0415 26.3951 10.152 25.8789 10.158 25.3427C10.16 25.1881 10.0978 25.172 10.144 25.1238C10.4512 24.8266 10.1038 24.5153 10.2785 24.1639C10.2785 24.1639 10.2785 24.0293 10.2424 23.959C10.2745 23.8847 10.3729 23.6196 10.2484 23.3947C10.2946 23.3585 10.2645 23.2622 10.2645 23.2622C10.3749 23.0031 10.3267 22.8505 10.2062 22.6054C10.2363 22.4729 10.2102 22.3785 10.2223 22.3444C10.2745 22.2158 10.3548 22.1556 10.4452 21.9989C10.4532 21.9206 10.4593 21.8503 10.4673 21.7841C10.6782 21.4969 10.6882 21.3302 10.6822 21.1213C10.869 20.6775 11.0397 20.6654 11.1883 20.4305C11.1883 20.4305 11.2305 20.1051 11.2505 20.0148C11.3228 19.6733 11.0678 19.0448 10.9071 18.7033C10.9071 18.7033 10.9232 18.5206 10.8067 18.2515C10.9232 17.9904 11.0336 17.5747 10.9553 17.2594C11.2586 17.0063 11.4012 16.7573 11.1863 15.9942C11.1421 15.8395 11.0537 15.6989 11.0176 15.5403C11.0718 15.3515 11.1742 15.1688 11.1762 14.9679C11.1802 14.7249 11.0296 14.6084 10.8991 14.4277C11.0517 14.1204 10.9654 13.9236 10.885 13.6485C10.9834 13.5541 11.0336 13.4256 11.0377 13.289C11.0999 13.2388 11.1561 13.1886 11.2003 13.1444C11.3349 13.2167 11.7406 13.1765 11.8651 13.1705C11.9213 13.2368 12.0237 13.3231 12.0237 13.3231C12.0237 13.3231 12.2587 13.3693 12.4033 13.4617C12.5278 13.4677 12.7186 13.4577 12.9094 13.3834C12.9957 13.4236 13.1162 13.4657 13.2448 13.4999C13.2448 13.4999 13.2709 13.6384 13.3713 13.6907C13.299 13.8272 13.4074 14.0421 13.3753 14.1224C13.3371 14.2188 13.2789 14.5341 13.3914 14.8012C13.313 15.0824 13.2387 15.1467 13.2387 15.1467C13.2428 15.3957 13.2849 15.5122 13.3592 15.5865C13.2106 15.8757 13.06 15.9118 12.8913 15.9922C12.829 16.4179 13.2026 16.6408 13.2227 16.7392C13.2367 16.8095 13.1283 16.9702 13.1283 16.9702L13.1504 17.2634C13.0238 17.4341 12.9797 17.5988 13.1604 17.9583C13.1604 18.0165 13.1544 18.3318 13.3813 18.4885C13.4135 18.5105 13.4295 18.5387 13.4516 18.609C13.4837 18.7174 13.5299 18.8399 13.6203 18.9504C13.5299 19.3862 13.4657 19.7256 13.4657 19.7256C13.4335 19.8661 13.4255 20.0107 13.4657 20.1493C13.556 20.4706 13.6725 20.6072 13.7267 20.7337C13.7348 20.8502 13.7468 21.2298 13.7549 21.3362C13.7549 21.3543 13.797 21.3824 13.791 21.4085C13.785 21.4386 13.7508 21.4688 13.7488 21.4929V21.8222C13.7328 21.8965 13.6906 22.3263 13.7147 22.5311C13.7428 22.7761 13.7267 22.9027 13.6685 23.0573V23.5132C13.554 23.712 13.4576 23.8325 13.4195 23.9349C13.303 24.2844 13.5621 24.5716 13.5721 24.6499L13.4998 24.7443C13.4998 24.7443 13.542 25.0355 13.4978 25.1801C13.4576 25.2443 13.1885 25.3046 13.1885 25.3046C13.1885 25.3046 13.1102 25.9111 13.4677 26.5598C13.4898 26.5979 13.1805 27.6101 13.4114 27.9455L13.5721 28.5921L13.8513 29.1886C13.8513 29.1886 14.1164 28.9155 14.2148 28.4917L14.3393 27.7989C14.6325 27.4052 14.7691 26.8329 14.8996 26.7023C15.1125 26.4955 15.1386 26.2886 15.1406 26.1641C15.1446 25.9573 15.0542 25.7846 15.0502 25.7484C15.0422 25.6882 15.0964 25.4572 15.0261 25.2704C15.0261 25.2704 15.0643 25.16 15.0221 25.0355C15.1366 24.8668 15.1888 24.6981 15.1888 24.4792C15.1848 24.4189 15.2209 23.9711 15.0201 23.8144C14.9337 23.7461 14.998 23.6678 14.998 23.6678C15.1486 23.467 15.243 23.3043 15.3012 23.1457C15.492 22.5452 15.2269 22.2761 15.1506 22.1877C15.1627 22.0994 15.1787 21.9849 15.1968 21.8865C15.1326 21.8463 15.0964 21.8282 15.1145 21.772C15.2149 21.4969 15.6005 20.7859 15.6085 20.549C15.6085 20.4726 15.5924 20.4064 15.5704 20.3682C15.5543 20.3381 15.6567 20.2557 15.6266 19.9364C15.5764 19.5488 15.3213 19.2496 15.233 19.1391C15.1426 19.0287 15.0422 18.8941 15.0341 18.7977C15.0161 18.5387 15.0884 18.3298 15.249 18.0426C15.249 18.0426 15.1727 17.8779 15.3434 17.7675C15.3695 17.42 15.235 17.2373 15.0643 17.1309C15.1787 17.0626 15.1084 16.6268 15.0141 16.0645C15.0141 16.0645 15.4639 15.6246 15.3535 15.2411C15.3856 15.1848 15.4238 15.1105 15.4398 15.0141C15.5643 14.8856 15.5623 14.735 15.5523 14.6707C15.5523 14.6707 15.6145 14.5703 15.8696 14.4317C15.8696 14.4317 15.8515 14.0682 15.8515 13.9939C15.9881 13.6866 16.219 13.528 16.205 13.3151C16.1909 13.1585 16.1106 13.05 16.0303 12.9677L16.0282 12.9717Z" fill="#D2FF00"/>
</svg>
