<svg width="129" height="42" viewBox="0 0 129 42" fill="none" xmlns="http://www.w3.org/2000/svg">
<path d="M65.3369 2.23313C65.1561 2.39922 65.2314 2.95787 65.4725 3.30514C65.8039 3.7732 65.6834 3.96948 64.7493 4.58852C64.3124 4.8905 63.8153 5.25286 63.6345 5.40385C63.4687 5.55484 63.2277 5.73602 63.0921 5.82661C61.7814 6.62684 58.8586 8.71046 58.6779 8.96713C58.3916 9.3748 58.3916 9.52578 58.6779 9.52578C58.9189 9.52578 60.4556 8.63496 60.5309 8.43868C60.5611 8.37829 60.6515 8.31789 60.7268 8.31789C60.8925 8.31789 61.8115 7.68375 61.8868 7.51766C61.917 7.45727 62.0074 7.41197 62.0827 7.41197C62.2183 7.41197 63.0921 6.77783 64.6891 5.55484C64.9452 5.37365 65.3068 5.07168 65.5177 4.8754C65.9546 4.46773 66.1655 4.51303 66.286 5.01129C66.4066 5.50954 67.19 5.63033 67.19 5.16227C67.19 4.98109 67.1297 4.72441 67.0393 4.57342C66.7983 4.13556 66.286 2.91257 66.286 2.76158C66.286 2.5804 65.7738 2.12744 65.5779 2.12744C65.5026 2.12744 65.3821 2.17274 65.3369 2.23313Z" fill="#D2FF00"/>
<path d="M56.4361 9.45034C56.18 9.67682 56.0444 9.9637 56.0444 10.2657C56.0444 10.5827 55.9238 10.8092 55.6376 11.0206C54.8692 11.5944 54.5679 11.9718 54.4926 12.5003C54.3871 13.074 54.583 13.6025 54.8843 13.6025C54.9898 13.6025 55.1706 13.6629 55.2911 13.7535C55.4719 13.8592 55.4719 13.9346 55.2308 14.1913C55.0651 14.3725 54.8843 14.5084 54.809 14.5084C54.5378 14.5084 54.1009 15.1878 54.1762 15.4596C54.2365 15.6408 54.0708 15.8824 53.6941 16.2145C52.7299 17.045 52.5793 17.2111 52.5793 17.4979C52.5793 17.7999 53.3627 18.585 53.664 18.585C54.0256 18.585 54.5378 19.2494 54.5378 19.7325C54.5378 19.9741 54.6433 20.3063 54.7638 20.4573C54.8843 20.6234 54.9898 21.0008 54.9898 21.2877C54.9898 22.0879 55.5321 23.1146 55.969 23.1146C56.1498 23.1146 56.3607 23.0089 56.4059 22.8731C56.5566 22.4654 57.1743 22.6768 57.2195 23.1448C57.2798 23.5978 57.0387 23.7186 56.8881 23.3411C56.8429 23.2203 56.7223 23.1146 56.6169 23.1146C56.3306 23.1297 55.7129 24.1715 55.7882 24.4886C55.8335 24.6396 55.7732 24.8359 55.6527 24.9416C55.2158 25.3039 55.5171 26.7534 56.2101 27.5838C56.3457 27.7499 56.3457 27.8556 56.1649 28.067C56.0444 28.2029 55.8184 28.7313 55.6677 29.2296C55.5171 29.7278 55.2007 30.5734 54.9596 31.1018C54.5529 31.9775 54.5227 32.1738 54.583 33.2911C54.6282 33.9555 54.7487 34.9822 54.8391 35.5559C55.0048 36.4467 55.1103 36.6883 55.5623 37.1111C55.8485 37.3829 56.1348 37.6093 56.2101 37.6093C56.2854 37.6093 56.4662 37.7452 56.6319 37.9264C57.0387 38.3643 57.6112 38.2586 57.6715 37.7301C57.7317 37.2621 57.2647 36.7034 56.8278 36.7034C56.2704 36.7034 55.6828 35.6918 55.5321 34.499C55.4568 33.8951 55.4869 33.6837 55.6677 33.5327C55.8184 33.4119 55.8937 33.0797 55.8937 32.5211C55.8937 31.7813 55.9389 31.6454 56.3608 31.2981C56.6319 31.0716 57.1592 30.6036 57.5359 30.2412L58.2289 29.6071L57.7317 29.1541C57.4605 28.8974 57.2798 28.6256 57.325 28.5501C57.4304 28.3841 56.7073 26.7383 56.5265 26.7383C56.3909 26.7383 56.0444 25.9985 56.0444 25.7267C56.0444 25.6059 56.1498 25.4851 56.2704 25.4398C56.421 25.3794 56.4963 25.1379 56.4963 24.6547C56.4963 23.8545 56.7525 23.9451 56.8278 24.7604C56.8881 25.47 57.1592 25.5002 57.4605 24.851C57.5961 24.5641 57.7769 24.3225 57.8523 24.3225C57.9426 24.3225 58.0029 24.1866 58.0029 24.0206C58.0029 23.8394 58.244 23.5676 58.6507 23.3109C58.9972 23.0844 59.3136 22.8731 59.3588 22.8429C59.404 22.8127 59.3136 22.7221 59.163 22.6315C58.937 22.5107 58.8918 22.3295 58.9219 21.7859C58.952 21.3934 58.8918 20.9102 58.7713 20.729C58.6658 20.5328 58.5453 19.7174 58.5151 18.9172C58.4398 17.6791 58.3645 17.3016 57.9728 16.5165C57.6865 15.9126 57.5509 15.4747 57.6263 15.2784C57.7468 14.901 57.9276 14.8708 58.0632 15.2029C58.1234 15.3539 58.2892 15.4143 58.5603 15.3841C58.9219 15.3388 58.9822 15.2633 58.9822 14.8406C58.9972 14.2819 59.2383 14.0554 59.8259 14.0554C60.4134 14.0554 60.4436 14.2064 59.9614 14.6594C59.7053 14.901 59.5095 15.218 59.5095 15.369C59.5095 15.5502 59.3438 15.7465 59.1027 15.8522L58.6809 16.0485L59.1027 16.3806C59.5697 16.7581 59.63 17.1507 59.2534 17.2865C59.0575 17.362 59.0424 17.4224 59.1931 17.5734C59.3438 17.7093 59.4191 17.6942 59.5697 17.4828C59.6752 17.3469 59.8861 17.2262 60.0217 17.2262C60.1573 17.2262 60.308 17.1205 60.3682 16.9846C60.4285 16.8034 60.6394 16.7581 61.3023 16.8034L62.146 16.8487L62.1912 16.1089C62.2213 15.7012 62.2062 15.2784 62.146 15.1425C62.0706 14.9463 62.0255 14.9463 61.7844 15.1727C61.6337 15.3086 61.4078 15.3841 61.2571 15.3237C61.016 15.2331 61.016 15.2029 61.242 14.9614C61.3776 14.8104 61.7241 14.6443 62.0104 14.599C62.613 14.4782 62.8842 14.0554 62.7486 13.4364C62.6582 13.0589 62.5829 12.9985 62.1761 12.9985C61.7693 12.9834 61.7392 12.9683 61.9652 12.8324C62.3569 12.606 62.2966 12.4852 61.4379 11.9265C60.7599 11.5038 60.4888 11.4132 59.6601 11.3981C58.8617 11.3679 58.6357 11.3075 58.4247 11.0206C58.1686 10.7186 58.1686 10.6733 58.3796 10.4318C58.5905 10.1902 58.5905 10.1147 58.3645 9.61643C58.1234 9.11817 58.0481 9.07288 57.4756 9.07288C57.0086 9.07288 56.7374 9.17857 56.4361 9.45034ZM56.6922 11.6547C56.873 11.7604 57.0839 11.9265 57.1442 12.0473C57.2346 12.1983 57.4153 12.2285 57.7317 12.153C58.1837 12.0624 58.1988 12.0624 58.1084 12.5305C58.018 12.9683 58.033 12.9985 58.4398 12.9985C58.7411 12.9985 59.0424 12.8324 59.3438 12.5305C59.7204 12.1681 59.8259 12.1228 59.9012 12.304C60.0518 12.7117 59.9012 13.0589 59.5095 13.1495C59.2986 13.1948 59.1178 13.3609 59.0876 13.527C58.9972 13.995 58.8165 14.1007 58.485 13.8893C58.2138 13.7233 58.0782 13.7384 57.6263 13.9497C56.7826 14.3574 56.6018 14.297 56.7073 13.678C56.8127 13.1042 56.6169 12.9683 56.3608 13.4062C56.2252 13.6478 56.1649 13.6327 55.8335 13.225C55.3965 12.6966 55.3363 12.153 55.6979 11.7604C55.9841 11.4434 56.2402 11.4132 56.6922 11.6547ZM61.1366 13.0891C61.5132 13.1948 61.5735 13.6176 61.2571 13.8893C60.8654 14.2215 60.2176 13.6025 60.4888 13.1495C60.5942 12.9683 60.6695 12.9683 61.1366 13.0891ZM60.6093 15.1878C60.5641 15.4898 60.1121 15.6559 59.9614 15.4143C59.8861 15.2935 59.8711 15.1425 59.9163 15.067C60.0217 14.901 60.6394 15.0066 60.6093 15.1878ZM56.4662 15.6106C56.5114 15.9579 56.4662 16.0183 56.1348 16.0183C55.9389 16.0183 55.728 16.1089 55.6828 16.1994C55.6075 16.3957 55.728 15.6408 55.8335 15.2935C55.9389 14.9312 56.421 15.1727 56.4662 15.6106ZM57.4455 16.3504C57.6564 16.4863 57.2647 17.6791 57.0086 17.6791C56.6771 17.6791 56.6319 17.4073 56.873 16.9242C57.0688 16.5316 57.0839 16.4712 56.8881 16.4712C56.5265 16.4712 56.4361 16.1391 56.7374 15.9126C56.9784 15.7465 57.0236 15.7465 57.1592 15.973C57.2346 16.124 57.3701 16.29 57.4455 16.3504ZM61.6187 16.1089C61.6187 16.29 61.4831 16.3202 60.9859 16.29C60.097 16.2296 60.0368 15.8673 60.9257 15.8673C61.453 15.8673 61.6187 15.9277 61.6187 16.1089ZM55.2007 16.8034C55.3363 17.0601 55.4417 17.362 55.4417 17.4828C55.4417 17.5885 55.5472 17.6791 55.6677 17.6791C55.8184 17.6791 55.8937 17.5281 55.8937 17.2111C55.8937 16.8487 55.954 16.7581 56.1649 16.8034C56.4813 16.8638 56.4361 17.6791 56.1046 17.8754C55.7883 18.0566 55.8485 19.1437 56.2854 21.0763C56.3457 21.3179 56.4813 21.635 56.6018 21.7859C56.7374 21.9369 56.7675 22.0577 56.6621 22.1181C56.5867 22.1785 56.4662 22.1332 56.421 22.0577C56.3607 21.952 56.1348 21.9369 55.8786 21.9822C55.4417 22.0728 55.4417 22.0728 55.4417 21.4236C55.4417 21.0612 55.3363 20.5781 55.2158 20.3365C55.0952 20.11 54.9898 19.657 54.9898 19.34C54.9898 19.0078 54.9144 18.5699 54.824 18.3284C54.6583 17.9056 54.5378 16.5014 54.6583 16.2749C54.7487 16.0938 54.9596 16.29 55.2007 16.8034ZM0.150657 15.2331C0.0602628 15.2633 0 15.4445 0 15.6408C0 16.0183 0.391708 16.2447 0.783416 16.0938C1.34085 15.8824 1.35591 16.2447 1.32578 23.5827L1.28058 30.7395L0.647825 30.7847C0.045197 30.83 0 30.8602 0 31.283V31.7209H2.62143C5.16753 31.7209 5.25793 31.7058 5.34832 31.4038C5.48391 30.9659 5.21273 30.7395 4.6101 30.7847C4.32385 30.8149 4.06774 30.7847 4.02254 30.7093C3.97734 30.6338 3.91708 29.0937 3.90201 27.2668C3.87188 24.4131 3.90201 23.9451 4.0828 23.8998C4.29372 23.8696 4.7005 24.4131 7.08087 28.0217C7.2014 28.218 7.80403 29.1088 8.40666 29.9996L9.52152 31.6454L12.1731 31.7209C13.6495 31.7662 14.9301 31.7662 15.0356 31.736C15.126 31.7058 15.2163 31.5246 15.2163 31.3283C15.2163 31.0414 15.141 30.9659 14.8397 30.9659C14.3425 30.9659 14.222 30.6338 14.5233 30.1053C14.6439 29.8788 14.9 29.1541 15.0808 28.5049L15.4273 27.3423L16.6024 27.3121C18.9225 27.2517 18.7267 27.2215 18.8472 27.7197C18.9677 28.2331 19.2238 29.0031 19.5251 29.7278C19.6457 29.9996 19.7361 30.3922 19.7361 30.5885C19.7361 30.9055 19.6607 30.9659 19.2992 30.9659C18.8321 30.9659 18.5609 31.4491 18.8924 31.6756C18.9828 31.7511 19.8264 31.7662 20.7756 31.7209C22.6889 31.6303 22.9601 31.4793 22.1014 30.9659C21.7699 30.7697 21.5439 30.513 21.4987 30.2412C21.4686 30.0147 21.3481 29.592 21.2426 29.3051C21.1372 29.0182 20.9714 28.535 20.866 28.2482C20.7605 27.9613 20.5948 27.4781 20.4893 27.1913C20.3989 26.9044 20.2483 26.4212 20.188 26.1344C20.1278 25.8475 19.9771 25.3643 19.8867 25.0775C19.7813 24.7906 19.6155 24.3074 19.5101 24.0206C19.4046 23.7337 19.2389 23.2505 19.1334 22.9636C19.043 22.6768 18.8924 22.1936 18.8321 21.9067C18.7719 21.6199 18.6212 21.1065 18.5007 20.7743C18.2897 20.2157 18.2295 20.1704 17.6721 20.1251C17.1146 20.0798 17.0694 20.11 16.8434 20.6535C16.5572 21.3783 16.286 22.1332 16.0902 22.8127C16.0148 23.0995 15.8792 23.4015 15.819 23.4921C15.7587 23.5676 15.6533 23.8847 15.593 24.1715C15.5327 24.4584 15.4273 24.7906 15.3519 24.9265C15.2917 25.0473 15.126 25.5606 14.9904 26.0589C14.8548 26.5571 14.6439 27.2064 14.5384 27.4932C14.4179 27.7801 14.1768 28.4898 14.0111 29.0786C13.4687 30.8451 13.4838 30.8149 12.8209 30.8149C12.3689 30.8149 12.158 30.7244 11.9772 30.4677C11.5253 29.8335 10.32 28.1123 9.7927 27.3423C9.50645 26.9195 9.19007 26.4816 9.11474 26.391C9.02435 26.2853 8.79836 25.9683 8.61757 25.6663C8.43679 25.3794 8.12041 24.9416 7.90949 24.7151C7.69857 24.4886 7.50271 24.1564 7.48765 23.9753C7.45752 23.6884 7.54791 23.628 8.13547 23.5525C9.11474 23.4166 9.7927 23.0693 10.4707 22.3295C11.4349 21.2877 11.6006 20.8951 11.6006 19.491C11.6006 18.3284 11.5705 18.2076 11.0582 17.4375C10.2748 16.2598 9.11474 15.4898 7.84922 15.3237C7.09594 15.2331 0.391708 15.1576 0.150657 15.2331ZM6.49331 16.2598C7.78896 16.3957 8.3012 16.894 8.66277 18.3284C8.90382 19.2947 8.91889 19.5815 8.76823 20.3214C8.36146 22.3597 7.56298 22.9787 5.24286 23.0844L3.91708 23.1448V19.7627C3.91708 17.2564 3.96228 16.3353 4.11293 16.1843C4.23346 16.0636 4.53477 16.0334 4.97168 16.0787C5.34832 16.124 6.02628 16.1994 6.49331 16.2598ZM17.4461 23.1146C17.4913 23.5525 17.8679 24.7453 18.1843 25.5455C18.5911 26.5571 18.4705 26.6779 17.0996 26.6024C16.4367 26.5722 15.8491 26.5269 15.7888 26.4967C15.7436 26.4665 15.8943 25.8777 16.1354 25.1831C16.3764 24.5037 16.5723 23.8243 16.5723 23.6884C16.5723 23.5525 16.6476 23.2505 16.7229 23.0391C16.9188 22.5409 17.3858 22.5862 17.4461 23.1146ZM73.5658 15.369C73.385 15.8371 73.5959 16.0938 74.1985 16.0938H74.8012L74.8464 23.4468L74.8765 30.8149H74.1985C73.5507 30.8149 73.5206 30.83 73.5206 31.2679V31.7209H80.1495C83.7954 31.7058 86.8386 31.7511 86.929 31.7964C87.1852 31.9624 87.6823 31.7209 87.6823 31.434C87.6823 31.1018 87.3057 30.7546 87.0948 30.8753C86.8537 31.0263 86.7332 30.664 86.8989 30.3167C87.14 29.8335 87.6823 28.1274 87.6823 27.8858C87.6823 27.463 88.1343 27.3272 89.6107 27.2819L91.1173 27.2366L91.3584 27.8556C91.4939 28.2029 91.5994 28.6256 91.5994 28.7917C91.5994 28.9578 91.6898 29.2145 91.8103 29.3806C91.9158 29.5467 92.0514 29.9392 92.1116 30.2563C92.202 30.7244 92.1719 30.83 91.9459 30.9055C91.4487 31.0565 91.2228 31.2226 91.1776 31.4793C91.1324 31.6907 91.3433 31.7209 92.9403 31.7209C93.9346 31.7209 94.7783 31.6605 94.8385 31.5699C94.8837 31.4944 94.718 31.2528 94.4769 31.0414C94.1756 30.7697 93.9346 30.3016 93.7086 29.5618C93.5278 28.9578 93.2868 28.2482 93.1662 27.9764C93.0457 27.7046 92.9553 27.3272 92.9553 27.146C92.9402 26.9648 92.8499 26.6477 92.7293 26.4363C92.6088 26.225 92.5184 25.923 92.5033 25.7569C92.5033 25.5908 92.3979 25.2586 92.2774 25.0171C92.1568 24.7906 92.0514 24.4584 92.0514 24.3074C92.0514 24.1564 91.961 23.8092 91.8404 23.5374C91.5241 22.7523 91.283 22.0275 91.1474 21.4538C91.0872 21.1669 90.9516 20.729 90.8461 20.5026C90.6653 20.1251 90.5749 20.0798 90.0476 20.1251C89.4601 20.1704 89.445 20.1855 89.1437 21.0763C88.993 21.5746 88.7671 22.1785 88.6465 22.4352C88.5411 22.6768 88.4055 23.0844 88.3452 23.3411C88.285 23.5827 88.1946 23.8545 88.1343 23.9451C88.074 24.0206 87.9686 24.3376 87.9083 24.6245C87.848 24.9114 87.7426 25.2435 87.6823 25.3794C87.6221 25.5002 87.3207 26.4212 87.0044 27.4177C86.703 28.4143 86.3867 29.3655 86.3264 29.5316C86.2511 29.6976 86.1456 30.0298 86.1004 30.2865C86.01 30.7395 85.0458 31.5397 84.8349 31.3283C84.7897 31.283 84.7596 29.8184 84.7897 28.0821L84.8349 24.9265H83.4639V26.0287C83.4639 27.3876 83.012 29.0333 82.4395 29.7278C81.7163 30.6338 81.2041 30.8149 79.2907 30.8149H77.5883L77.6184 23.4468L77.6636 16.0938H78.2663C78.8388 16.0938 78.8689 16.0636 78.8689 15.6559V15.2029H76.2475C74.3643 15.1878 73.611 15.2331 73.5658 15.369ZM89.7915 22.7221C89.7915 22.9787 90.1983 24.3527 90.4845 25.0775C90.6051 25.3643 90.7105 25.8475 90.7256 26.1344L90.7708 26.6628L89.4902 26.6024C88.7821 26.5873 88.1945 26.542 88.1795 26.5269C88.1644 26.5118 88.2849 26.1042 88.4507 25.6059C88.6164 25.1077 88.8574 24.3376 88.978 23.8998C89.0985 23.4468 89.2642 22.9636 89.3395 22.7976C89.5203 22.4654 89.7915 22.4201 89.7915 22.7221Z" fill="#D2FF00"/>
<path d="M60.8194 17.4222C59.8703 17.7242 59.7497 17.8148 59.3882 18.464L58.9814 19.1736L59.3279 19.4907C59.5238 19.6719 59.6593 19.989 59.6593 20.2456C59.6593 20.759 59.8853 20.8496 60.036 20.3966C60.1565 20.0343 60.4126 20.14 60.4126 20.5476C60.4126 20.6986 60.5332 20.9402 60.6688 21.0912C61.0906 21.4988 61.3015 22.0273 61.407 22.8577C61.5878 24.2468 62.6122 25.7717 63.1395 25.4396C63.3655 25.3037 63.2902 24.9564 63.0039 24.8658C62.8533 24.8205 62.6273 24.5488 62.5068 24.2619C62.3109 23.8391 62.3109 23.7032 62.4766 23.4768C62.5821 23.3258 62.6725 23.0238 62.6725 22.7973C62.6725 22.5557 62.7779 22.3142 62.9286 22.2236C63.3052 22.0273 63.6066 20.608 63.3354 20.3815C63.2149 20.2909 63.1245 20.0494 63.1245 19.8682C63.1245 19.3699 62.9738 19.0377 62.7478 19.0377C62.567 19.0377 62.4766 18.7962 62.2506 17.694C62.1904 17.4071 62.0699 17.1504 61.9945 17.1353C61.9041 17.1051 61.3768 17.241 60.8194 17.4222ZM61.7685 18.8113C61.7685 18.9321 61.6782 19.0377 61.5576 19.0377C61.3015 19.0377 61.1358 18.8264 61.2714 18.6754C61.4522 18.4942 61.7685 18.5848 61.7685 18.8113ZM22.7183 20.2003C22.4772 20.5023 22.6731 20.8043 23.1853 20.8949L23.6523 20.9855V30.6486L23.2004 30.9657C22.9593 31.1469 22.7484 31.3885 22.7484 31.5092C22.7484 31.6904 23.5469 31.7206 28.1721 31.7055C31.1551 31.7055 33.656 31.7357 33.7313 31.781C33.9723 31.932 34.349 31.6904 34.349 31.3884C34.349 31.1922 34.1833 31.0261 33.897 30.9204L33.445 30.7543L33.4149 28.8217C33.3998 27.7648 33.3848 26.7683 33.3848 26.6173C33.3697 26.3908 33.5656 26.3455 34.8763 26.2851C36.4431 26.1945 36.9704 26.0284 37.7086 25.3943C38.3263 24.8356 38.5674 24.2317 38.5674 23.1899C38.5674 22.0726 38.2962 21.4686 37.5429 20.8798C36.7294 20.2456 35.961 20.0947 33.7162 20.0796C32.6164 20.0796 31.4714 20.0645 31.1852 20.0494C30.7182 20.0192 30.6579 20.0645 30.6127 20.4268C30.5675 20.7741 30.6278 20.8345 30.9893 20.8798L31.4112 20.9251L31.5317 25.6057C31.592 28.1724 31.607 30.4372 31.5618 30.6335C31.5166 30.8147 31.3057 31.0563 31.0948 31.1469C30.4922 31.4186 30.4018 31.1167 30.4771 29.0482C30.5524 27.1759 30.4771 26.8891 29.9649 26.8891C29.6636 26.8891 29.528 27.191 29.528 27.9158C29.5129 28.6556 29.2116 29.7427 28.8651 30.241C28.5336 30.7392 27.8255 30.9657 26.56 30.9657C25.9122 30.9657 25.6109 30.9053 25.5958 30.7694C25.5506 29.9239 25.626 21.0912 25.7013 20.9855C25.7465 20.91 25.9122 20.8496 26.0779 20.8496C26.4244 20.8496 26.6203 20.4419 26.3943 20.2154C26.1533 19.9739 22.9141 19.9588 22.7183 20.2003ZM36.0363 21.212C36.9554 21.8159 37.0006 24.3676 36.0966 25.0923C35.9309 25.2282 35.4789 25.3792 35.1023 25.4396C34.7256 25.4849 34.2887 25.5604 34.123 25.6057C33.4601 25.7868 33.3848 25.5453 33.43 23.2352C33.445 22.0575 33.5053 21.0157 33.5505 20.9553C33.6861 20.7288 35.6145 20.9251 36.0363 21.212Z" fill="#D2FF00"/>
<path d="M38.3279 20.1551C38.1773 20.5477 38.3882 20.8497 38.7799 20.8497C39.0661 20.8497 39.1867 20.9553 39.262 21.212C39.3072 21.4083 39.2921 23.658 39.2168 26.2248C39.0963 30.7393 39.0812 30.8903 38.7949 30.8903C38.6292 30.9054 38.4032 30.9507 38.2978 31.0111C38.0869 31.162 38.0567 31.7207 38.2676 31.7358H41.8985C42.2149 31.7056 41.9738 31.0413 41.6273 30.996C41.0247 30.9054 40.9644 30.6638 41.0096 28.2329L41.0548 25.9228H45.2732L45.3184 28.2782L45.3485 30.6336L44.8212 30.9507C44.309 31.2526 44.0981 31.7207 44.4898 31.7207C47.2016 31.766 48.0302 31.7509 48.1658 31.6754C48.4521 31.4942 48.211 30.9658 47.8193 30.9658C47.6385 30.9658 47.4276 30.8903 47.3824 30.8148C47.3071 30.694 47.2468 22.5256 47.3071 21.0006C47.3071 20.91 47.518 20.8497 47.7741 20.8497C48.1809 20.8497 48.2261 20.8044 48.1809 20.442L48.1357 20.0343L46.3579 20.0192C44.7911 20.0192 44.55 20.0494 44.4295 20.291C44.2337 20.6383 44.3542 20.7893 44.8965 20.895L45.3485 20.9855V25.2283H40.9644L41.0096 23.0692L41.0548 20.9251L41.4314 20.8799C41.9437 20.8044 42.0793 20.6383 41.9587 20.2457C41.8683 19.9588 41.793 19.9286 41.2356 20.0343C40.4672 20.1551 39.503 20.1551 38.8853 20.0192C38.5388 19.9437 38.3882 19.9739 38.3279 20.1551ZM93.7094 20.0645C93.6341 20.0947 93.5587 20.2759 93.5587 20.4722C93.5587 20.744 93.6491 20.8346 93.9806 20.8799L94.3873 20.9251L94.4777 25.0018C94.5229 27.2364 94.6284 29.32 94.7188 29.622C95.0502 30.8148 95.9692 31.6452 97.2348 31.9019C99.1029 32.2944 100.73 31.3583 101.302 29.5465C101.544 28.7614 101.574 28.2178 101.528 24.8055L101.468 20.9553L101.815 20.8346C102.176 20.6987 102.206 20.593 101.996 20.2457C101.83 19.989 100.218 19.8833 99.9315 20.1249C99.585 20.4118 99.7055 20.8497 100.112 20.8497C100.323 20.8497 100.489 20.9402 100.489 21.0308C100.504 21.1365 100.504 23.0541 100.489 25.2736C100.474 28.8217 100.444 29.3804 100.218 29.7881C99.7658 30.5883 99.2234 30.8903 98.214 30.8903C97.4457 30.8903 97.2799 30.8299 96.9184 30.4675L96.4965 30.0598V20.9251L96.9937 20.8799C97.4306 20.8346 97.4909 20.7893 97.4457 20.4269L97.4005 20.0192H95.6378C94.6585 20.0192 93.7998 20.0343 93.7094 20.0645ZM102.447 20.2457C102.252 20.6081 102.357 20.8497 102.734 20.8497C102.884 20.8497 103.065 20.9402 103.14 21.0308C103.216 21.1365 103.261 23.3711 103.231 26.0134L103.186 30.7846L102.749 30.9507C102.312 31.1016 102.101 31.6301 102.447 31.7509C102.523 31.766 103.382 31.7811 104.331 31.7509C106.018 31.7056 106.078 31.6905 106.033 31.3734C106.003 31.1771 105.852 31.0262 105.611 30.9658C105.25 30.8752 105.235 30.8299 105.114 29.2294C104.979 27.2666 105.024 26.406 105.25 26.3305C105.34 26.3003 105.717 26.7683 106.078 27.3572C106.862 28.6406 106.922 28.7463 108.082 30.4222L108.956 31.7207H118.703L118.749 29.7428C118.794 27.5082 118.733 27.1458 118.236 27.2213C117.935 27.2666 117.875 27.3723 117.799 28.248C117.694 29.3502 117.393 30.1504 116.926 30.5732C116.685 30.7846 116.323 30.8601 115.268 30.9054C114.53 30.9356 113.867 30.9658 113.792 30.9809C113.325 31.0714 113.295 30.9507 113.295 28.5349V26.0889L114.093 26.1946C115.088 26.3305 115.434 26.6626 115.555 27.5988C115.615 28.248 115.675 28.3235 116.007 28.3235H116.383L116.428 25.7869C116.459 23.6278 116.428 23.2503 116.233 23.1748C115.856 23.0239 115.555 23.4013 115.555 24.0355C115.555 24.881 115.073 25.3491 114.123 25.4094L113.37 25.4547L113.325 23.1446L113.28 20.8497H114.726C116.519 20.8497 116.956 21.0459 117.378 22.0123C117.543 22.4048 117.724 23.0088 117.769 23.3711C117.86 24.111 117.98 24.2318 118.417 24.0959C118.703 24.0053 118.718 23.8996 118.643 22.1632C118.598 21.1365 118.492 20.291 118.402 20.2306C118.131 20.0645 114.485 19.9437 113.385 20.0796C112.813 20.14 111.969 20.14 111.517 20.0645C110.884 19.9588 110.658 19.9739 110.553 20.1249C110.342 20.4722 110.508 20.7742 110.96 20.8497L111.412 20.9251L111.457 25.8473C111.487 31.162 111.472 31.3734 110.764 30.8752C110.462 30.6638 110.221 30.3316 108.775 28.1725C108.504 27.7497 108.067 27.1911 107.811 26.9193C107.359 26.4362 107.359 26.406 107.63 26.1946C107.796 26.0889 108.142 25.9379 108.429 25.8926C108.715 25.8322 109.167 25.5604 109.498 25.2283C110.929 23.7788 110.523 21.4989 108.67 20.5326C108.007 20.2004 107.766 20.1702 105.611 20.1551C104.316 20.14 103.11 20.0947 102.945 20.0343C102.704 19.9588 102.568 20.0041 102.447 20.2457ZM107.193 21.0006C107.404 21.0761 107.751 21.3328 107.946 21.5442C108.278 21.9066 108.323 22.0877 108.323 23.205C108.323 24.3676 108.293 24.5035 107.916 24.9263C107.585 25.2887 107.269 25.4396 106.44 25.6057C105.461 25.802 105.37 25.802 105.189 25.5604C105.069 25.4094 105.024 25.1226 105.069 24.8659C105.114 24.6243 105.159 23.6278 105.159 22.6464V20.8497H105.973C106.425 20.8497 106.967 20.91 107.193 21.0006ZM125.634 20.2608C125.438 20.6534 125.543 20.7893 126.116 20.91C126.583 21.0006 126.598 21.0006 126.507 21.8009C126.477 22.2236 126.492 23.7033 126.568 25.0622C126.643 26.4362 126.673 27.5686 126.643 27.5988C126.477 27.7648 126.07 27.3723 125.784 26.7683C125.588 26.3758 125.167 25.5755 124.82 25.0018C124.489 24.4129 124.157 23.8392 124.097 23.7184C124.037 23.5976 123.856 23.2805 123.69 23.039C123.524 22.7823 123.329 22.4501 123.238 22.284C123.148 22.1179 122.952 21.7707 122.786 21.5291C122.62 21.2724 122.425 20.9251 122.349 20.744C122.123 20.2306 121.701 20.0947 120.391 20.0947C119.291 20.0947 119.17 20.1249 119.17 20.3816C119.17 20.5326 119.321 20.7591 119.517 20.8799C119.848 21.1063 119.848 21.1516 119.743 22.9031C119.683 23.8845 119.668 26.0738 119.713 27.7346C119.803 30.7393 119.803 30.7846 119.487 30.9507C119.321 31.0563 119.17 31.2526 119.17 31.4036C119.17 31.6452 119.321 31.6905 120.195 31.7509C121.37 31.8415 121.716 31.6603 121.43 31.1167C121.34 30.9356 121.159 30.8299 121.054 30.8752C120.933 30.9205 120.797 30.8903 120.752 30.8148C120.617 30.6034 120.602 21.7556 120.737 21.7254C120.843 21.6801 121.4 22.6313 122.334 24.3978C122.425 24.5639 122.62 24.8961 122.786 25.1528C122.952 25.3944 123.148 25.7416 123.238 25.9077C123.329 26.0738 123.479 26.3456 123.585 26.5117C124.971 28.8217 125.754 30.1957 126.131 31.0111C126.432 31.6452 126.522 31.7207 126.899 31.6905L127.336 31.6452L127.396 26.3607C127.441 23.4617 127.517 21.0308 127.547 20.9704C127.592 20.91 127.758 20.8497 127.924 20.8497C128.165 20.8497 128.225 20.7591 128.18 20.4269C128.134 20.0192 128.119 20.0192 126.959 19.989C125.95 19.9739 125.784 20.0041 125.634 20.2608ZM59.5705 21.4989C59.5253 21.6348 59.5253 21.9368 59.5856 22.1632L59.676 22.5558L60.0074 22.2387L60.3238 21.9066L60.0074 21.5744C59.7061 21.2875 59.6609 21.2724 59.5705 21.4989ZM64.3916 21.5744C64.3012 21.6348 64.1806 21.8311 64.1204 22.0123C64.0601 22.1934 63.8643 22.3595 63.6835 22.3897C63.4725 22.4199 63.337 22.5558 63.3068 22.7974C63.2616 23.0843 63.3068 23.1296 63.5027 23.0541C63.6684 22.9937 63.8793 23.0843 64.1053 23.2956C64.5121 23.7184 64.6025 25.0924 64.2409 25.3793C63.9697 25.6208 63.9697 26.0738 64.256 26.1946C64.3765 26.2399 64.4819 26.4362 64.4819 26.6475C64.4819 26.8589 64.5422 27.0552 64.6175 27.1156C64.8887 27.2666 65.0092 26.8136 65.0092 25.6963C65.0092 24.3525 65.2352 24.1563 65.7023 25.1226C66.094 25.9228 66.0036 27.025 65.5215 27.478C65.3558 27.629 65.1599 27.946 65.0996 28.1876C64.9942 28.5802 64.9189 28.6255 64.3614 28.5953C63.6232 28.5651 63.5328 28.7463 63.6081 30.0749C63.6533 30.7695 63.6985 30.8903 63.9697 30.9356C64.4066 30.996 64.9339 30.1353 64.9339 29.3955C64.9339 28.55 65.3106 28.701 65.6119 29.6824C65.868 30.4826 65.868 30.5279 65.6119 30.8148C65.401 31.0413 65.3407 31.4036 65.3106 32.2793C65.2955 32.9286 65.2051 33.608 65.1147 33.7892C65.0092 33.9704 64.9339 34.3479 64.9339 34.6347C64.9339 34.9216 64.8285 35.2387 64.7079 35.3444C64.5573 35.4803 64.4819 35.8275 64.4819 36.4919C64.4819 37.0052 64.4217 37.4884 64.3313 37.5337C64.1354 37.6545 64.1354 38.1678 64.3464 38.2886C64.5874 38.4547 65.3558 38.0621 65.4311 37.7451C65.4763 37.5941 65.4763 37.2015 65.4311 36.8844C65.3859 36.5372 65.4461 36.0842 65.5968 35.7369C65.7324 35.4199 65.8379 35.0273 65.8379 34.8763C65.8379 34.7102 65.9734 34.1969 66.1392 33.7288C66.5007 32.7021 66.5158 32.234 66.2145 32.1133C65.8981 31.9925 65.9283 31.8113 66.32 31.6452C66.5158 31.5546 66.6815 31.3583 66.7117 31.1922C66.8322 30.1806 67.2691 28.4443 67.4499 28.2329C67.5553 28.1121 67.6457 27.9007 67.6457 27.7799C67.6457 27.6441 67.7512 27.4176 67.8717 27.2515C68.0073 27.0703 68.0826 26.6022 68.0977 25.9077C68.0977 24.9414 68.0525 24.7753 67.5704 24.0355C67.2691 23.5825 67.0582 23.1296 67.1034 23.0088C67.1938 22.7823 68.0977 22.737 68.0977 22.9635C68.0977 23.039 68.2032 23.1145 68.3237 23.1145C68.4593 23.1145 68.5949 23.2201 68.6401 23.3409C68.7003 23.4617 68.9113 23.5674 69.1523 23.5674C69.4536 23.5674 69.5892 23.4768 69.6645 23.2201C69.7248 22.9635 69.6193 22.7672 69.1222 22.3142C68.384 21.6499 68.1429 21.6348 67.3444 22.133C66.6213 22.586 66.5459 22.6011 66.0638 22.1783C65.8077 21.9519 64.5573 21.363 64.5573 21.4536C64.5573 21.4536 64.4819 21.514 64.3916 21.5744ZM64.8586 22.9333C64.8586 23.6278 64.5723 23.5976 64.5121 22.9031C64.4669 22.4803 64.5121 22.3444 64.6627 22.3897C64.7682 22.435 64.8586 22.6766 64.8586 22.9333ZM64.4518 29.1841C64.4217 29.3804 64.3464 29.5314 64.256 29.5314C64.1806 29.5314 64.0902 29.3804 64.0601 29.1841C64.03 28.9576 64.0902 28.8519 64.256 28.8519C64.4217 28.8519 64.4819 28.9576 64.4518 29.1841ZM59.8116 23.1748C59.6308 23.4768 59.4048 23.7184 59.3144 23.7184C59.209 23.7335 58.8926 24.0355 58.6063 24.3978C58.3201 24.7753 58.0037 25.0773 57.8982 25.0773C57.8078 25.0773 57.6723 25.2132 57.6271 25.3793C57.5819 25.5453 57.4613 25.6812 57.386 25.6812C57.3107 25.6812 57.2504 25.8171 57.2504 25.9832C57.2504 26.1493 57.3257 26.2852 57.4161 26.2852C57.5216 26.2852 57.5517 26.4362 57.4915 26.6475C57.4463 26.8589 57.4613 27.0703 57.5517 27.1156C57.6271 27.1609 57.7024 27.3723 57.7024 27.5837C57.7024 27.795 57.8078 27.9913 57.9284 28.0366C58.0489 28.097 58.1544 28.2782 58.1544 28.4594C58.1544 28.8217 58.757 29.4559 59.1035 29.4559C59.224 29.4559 59.3596 29.5616 59.4199 29.6824C59.4651 29.8183 59.6911 29.9089 59.9622 29.9089H60.4142V30.9658C60.4142 31.7358 60.3238 32.1737 60.0978 32.6266C59.917 32.9588 59.8116 33.3513 59.8568 33.5023C60.1129 34.3177 60.3841 34.8763 60.6854 35.2538C61.1072 35.7973 61.1072 35.8879 60.6402 36.6278C60.4443 36.9599 60.2636 37.3676 60.2636 37.5488C60.2636 37.896 59.8718 38.7567 59.6459 38.8926C59.5705 38.9529 59.5103 39.1794 59.5103 39.4361C59.5103 39.9495 59.7664 40.0099 60.3841 39.6173C60.9566 39.2549 61.0319 39.1039 60.9415 38.6208C60.8963 38.3339 60.9415 38.1678 61.0922 38.1225C61.2127 38.0621 61.3182 37.8809 61.3182 37.6998C61.3182 37.0656 61.4989 36.7334 61.9961 36.4617C62.6891 36.0842 63.0658 35.1934 62.6891 34.8008C62.5987 34.7253 62.5987 34.3781 62.6891 33.9402C62.7645 33.5023 62.7645 32.8229 62.6891 32.2793C62.5535 31.3281 62.1016 30.0598 61.8906 30.0598C61.8153 30.0598 61.7701 29.8032 61.7701 29.4861C61.7701 28.7614 61.6195 28.2329 61.4537 28.3386C61.3784 28.3839 61.0771 28.3386 60.8059 28.2329C60.3238 28.0517 60.2786 27.9913 60.2937 27.4327C60.3088 26.7985 60.6101 26.2852 60.9566 26.2852C61.273 26.2852 61.3332 26.5268 61.0922 26.9797C60.8511 27.4478 60.9114 27.6592 61.1976 27.3723C61.4387 27.1307 61.7701 27.1458 61.7701 27.4025C61.7701 27.5233 61.8756 27.6441 61.9961 27.7044C62.1618 27.7648 62.2221 28.0366 62.2221 28.7916C62.2221 29.5163 62.2673 29.773 62.4179 29.7277C62.5083 29.6824 62.6138 29.4106 62.6439 29.1086C62.6741 28.8067 62.7494 28.55 62.8398 28.55C63.0507 28.55 62.9904 28.0668 62.7494 27.7346C62.6289 27.5686 62.5234 27.3119 62.5234 27.1609C62.5234 26.9948 62.3276 26.6173 62.0865 26.3154C61.8455 26.0134 61.6044 25.6057 61.5592 25.4245C61.4989 25.2434 61.3332 25.0471 61.1675 25.0018C60.9566 24.9414 60.8662 24.6998 60.7909 24.0204C60.7306 23.4617 60.595 23.039 60.4142 22.888C60.1581 22.6615 60.128 22.6766 59.8116 23.1748ZM60.4142 24.3072C60.4895 24.4733 60.5649 24.7602 60.5649 24.9414C60.5649 25.3189 60.0225 25.9832 59.7061 25.9832C59.6007 25.9832 59.5103 26.1493 59.5103 26.3607C59.5103 26.572 59.45 26.7381 59.3596 26.7381C59.2843 26.7381 59.209 26.8287 59.209 26.9495C59.209 27.0703 59.0734 27.2213 58.9076 27.2666C58.6063 27.3572 58.4707 27.946 58.757 27.946C58.8474 27.946 58.983 28.1272 59.0734 28.3537L59.2391 28.7765L59.4651 28.4292C59.7513 28.0064 59.8568 28.0064 60.3238 28.4745C60.6251 28.7765 60.6553 28.867 60.4745 29.0029C60.0376 29.3653 58.6063 28.7916 58.6063 28.248C58.6063 28.0819 58.5461 27.946 58.4707 27.946C58.2598 27.946 58.1393 27.478 58.2749 27.2817C58.3502 27.1911 58.4557 26.9344 58.5159 26.723C58.5611 26.4966 58.772 26.2097 58.983 26.0738C59.1939 25.9379 59.3596 25.7265 59.3596 25.5906C59.3596 25.4698 59.4651 25.334 59.5856 25.2887C59.7061 25.2283 59.8116 25.032 59.8116 24.8508C59.8116 24.0657 60.128 23.7788 60.4142 24.3072ZM61.9961 31.5697C62.1468 31.7358 62.2221 31.9623 62.1618 32.0982C62.0564 32.385 61.7701 32.2642 61.7701 31.9321C61.7701 31.8113 61.7099 31.7207 61.6195 31.7207C61.5441 31.7207 61.4688 31.615 61.4688 31.4942C61.4688 31.1771 61.6647 31.2073 61.9961 31.5697ZM61.4839 32.8078C61.6797 33.0645 61.7551 33.3966 61.7701 34.0006C61.7701 34.6649 61.8304 34.8763 62.0262 34.9518C62.207 35.0273 62.2221 35.1028 62.1016 35.2236C61.8455 35.4803 60.9867 34.4686 61.0922 34.0157C61.1374 33.8345 61.0771 33.4872 60.9716 33.2608C60.595 32.5209 60.9566 32.2038 61.4839 32.8078Z" fill="#D2FF00"/>
<path d="M63.2739 24.202C63.2739 24.4133 63.3793 24.6247 63.4999 24.6851C63.7861 24.7908 63.7861 24.4888 63.4999 24.1114C63.2889 23.8245 63.2739 23.8245 63.2739 24.202ZM62.9274 25.7873C62.8671 25.8326 62.8219 26.0591 62.8219 26.2705V26.6479L63.1383 26.3309C63.3191 26.1648 63.4095 25.9383 63.3643 25.8477C63.2437 25.6665 63.078 25.6363 62.9274 25.7873ZM63.5451 27.0707C63.4999 27.6596 63.53 27.9162 63.7108 28.0521C64.2682 28.5202 64.6298 28.037 64.1627 27.4482C64.0121 27.2368 63.8765 26.8895 63.8765 26.6781C63.8765 25.9534 63.6053 26.2705 63.5451 27.0707Z" fill="#D2FF00"/>
</svg>
