<svg width="132" height="82" viewBox="0 0 132 82" fill="none" xmlns="http://www.w3.org/2000/svg">
<path fill-rule="evenodd" clip-rule="evenodd" d="M10.8954 50.426H8.41373C7.62128 50.4364 7.02698 49.7378 7.1521 48.9975L11.3959 25.1718L5.85916 20L0.541353 52.0422C0.489218 52.3341 0.478804 52.6365 0.489231 52.9389C0.624782 55.0451 2.41825 56.7447 4.49323 56.7343L18.6531 56.703L19.7583 50.4051L10.885 50.4364L10.8954 50.426Z" fill="#111112"/>
<path fill-rule="evenodd" clip-rule="evenodd" d="M20.9054 44.2741L23.1055 31.5844L28.0687 31.5636C28.8612 31.5636 29.4555 32.2726 29.3304 33.0025L25.0866 56.8282L30.6233 62L35.9411 29.9578C35.9932 29.6659 36.0036 29.3635 35.9932 29.0611C35.8577 26.9548 34.0643 25.2552 31.9893 25.2657L17.8294 25.297L14.4823 44.295L20.9054 44.2741Z" fill="#111112"/>
<path fill-rule="evenodd" clip-rule="evenodd" d="M73.3532 31.501L79.9118 31.4801C80.2663 31.4801 80.4123 31.5636 80.381 31.7304L79.036 40.0303L71.956 40.0511L73.3532 31.501ZM45.8781 45.8069L51.4252 45.786L53.1144 54.9096C53.2917 55.8376 54.0112 56.505 54.8557 56.505L59.9441 56.4841L57.2123 40.8436L65.2202 25.1718L58.6929 25.1927L52.0717 39.144H46.9104L49.4024 25.2239H46.0032C44.3662 25.2344 43.0211 26.4856 42.7083 28.2791L40.5186 40.9062L38.3498 54.211C38.2559 54.8054 38.3915 55.3684 38.7356 55.8376C39.0901 56.3068 39.5593 56.5571 40.1015 56.5571H44.1263L45.8677 45.8069H45.8781ZM91.7047 25.0884L86.9605 54.1589C86.8666 54.7532 87.0022 55.3163 87.3463 55.7855C87.6903 56.2547 88.17 56.505 88.7122 56.505H92.393L94.0404 46.3595H99.2852L101.162 56.4737L107.335 56.4528L105.26 44.6495C106.522 44.003 107.429 41.9906 107.992 38.6122L108.941 32.7522C109.775 27.6117 108.159 25.0467 104.082 25.0571L91.7152 25.0988L91.7047 25.0884ZM96.4908 31.428L103.049 31.4072C103.247 31.4072 103.331 31.4906 103.3 31.6574L102.007 39.6966C101.975 39.8635 101.788 39.9573 101.433 39.9573L95.1039 39.9782L96.5012 31.428H96.4908ZM118.94 31.3655L115.228 54.0755C115.134 54.6698 115.27 55.2329 115.614 55.7021C115.968 56.1713 116.438 56.4215 116.98 56.4215H120.588L124.685 31.355L131.025 31.3342L131.296 29.6554C131.484 28.4667 131.213 27.3511 130.514 26.4126C129.815 25.4742 128.877 24.9841 127.793 24.9841L113.57 25.0258L112.548 31.3863L118.951 31.3655H118.94ZM68.4734 26.152L63.8959 54.2215C63.8021 54.8158 63.9376 55.3788 64.2817 55.8481C64.6362 56.3173 65.1055 56.5675 65.6477 56.5675H69.2554L70.9133 46.422L77.9933 46.4012L76.3353 56.5362L82.0702 56.5154L86.1784 31.3759C86.877 27.1842 85.2296 25.0988 81.2256 25.1092L68.6298 25.151L68.4734 26.152Z" fill="#111112"/>
</svg>
