<svg width="100" height="42" viewBox="0 0 100 42" fill="none" xmlns="http://www.w3.org/2000/svg">
<path d="M88.495 23.9756L90.7717 25.4934C90.0328 26.5819 88.2653 28.4492 85.2097 28.4492C81.4151 28.4492 78.5892 25.5134 78.5892 21.7787C78.5892 17.8044 81.4451 15.1083 84.8902 15.1083C88.3552 15.1083 90.0528 17.8643 90.602 19.3522L90.9016 20.1111L81.9743 23.8058C82.6534 25.1439 83.7118 25.8229 85.2097 25.8229C86.7076 25.8229 87.7461 25.084 88.495 23.9756ZM81.495 21.569L87.4565 19.0926C87.127 18.2638 86.1484 17.6746 84.98 17.6746C83.4922 17.6746 81.4251 18.9927 81.495 21.569Z" fill="#D2FF00"/>
<path d="M74.2852 8.30811H77.1611V27.8402H74.2852V8.30811Z" fill="#D2FF00"/>
<path d="M69.7517 15.6276H72.5277V27.4907C72.5277 32.4136 69.6218 34.4407 66.1868 34.4407C62.9514 34.4407 61.0042 32.2638 60.2752 30.4964L62.8216 29.4379C63.2809 30.5263 64.3893 31.8145 66.1868 31.8145C68.3936 31.8145 69.7517 30.4464 69.7517 27.8901V26.9315H69.6518C68.9927 27.7303 67.7345 28.4493 66.1368 28.4493C62.8016 28.4493 59.746 25.5434 59.746 21.7988C59.746 18.0342 62.8016 15.0984 66.1368 15.0984C67.7246 15.0984 68.9927 15.8074 69.6518 16.5863H69.7517V15.6276ZM69.9514 21.7988C69.9514 19.4422 68.3836 17.7246 66.3865 17.7246C64.3694 17.7246 62.6718 19.4422 62.6718 21.7988C62.6718 24.1255 64.3694 25.8131 66.3865 25.8131C68.3836 25.823 69.9514 24.1255 69.9514 21.7988Z" fill="#D2FF00"/>
<path d="M43.9586 21.7488C43.9586 25.5933 40.9629 28.4193 37.2881 28.4193C33.6134 28.4193 30.6177 25.5833 30.6177 21.7488C30.6177 17.8843 33.6134 15.0684 37.2881 15.0684C40.9629 15.0684 43.9586 17.8843 43.9586 21.7488ZM41.0428 21.7488C41.0428 19.3522 39.3052 17.7046 37.2881 17.7046C35.271 17.7046 33.5335 19.3522 33.5335 21.7488C33.5335 24.1254 35.271 25.793 37.2881 25.793C39.3052 25.793 41.0428 24.1254 41.0428 21.7488Z" fill="#D2FF00"/>
<path d="M58.5278 21.7787C58.5278 25.6232 55.5321 28.4492 51.8573 28.4492C48.1826 28.4492 45.1869 25.6232 45.1869 21.7787C45.1869 17.9143 48.1826 15.1083 51.8573 15.1083C55.5321 15.1083 58.5278 17.9043 58.5278 21.7787ZM55.602 21.7787C55.602 19.3822 53.8645 17.7345 51.8474 17.7345C49.8302 17.7345 48.0927 19.3822 48.0927 21.7787C48.0927 24.1553 49.8302 25.8229 51.8474 25.8229C53.8745 25.8229 55.602 24.1453 55.602 21.7787Z" fill="#D2FF00"/>
<path d="M19.6534 25.5235C15.4694 25.5235 12.1941 22.1483 12.1941 17.9643C12.1941 13.7803 15.4694 10.4051 19.6534 10.4051C21.9102 10.4051 23.5578 11.2939 24.7761 12.4322L26.7832 10.4251C25.0856 8.79743 22.8189 7.5592 19.6534 7.5592C13.9216 7.5592 9.09851 12.2325 9.09851 17.9643C9.09851 23.6961 13.9216 28.3694 19.6534 28.3694C22.749 28.3694 25.0856 27.3509 26.913 25.4536C28.7903 23.5763 29.3695 20.9401 29.3695 18.8031C29.3695 18.1341 29.2896 17.4451 29.1998 16.9358H19.6534V19.7118H26.4537C26.254 21.4493 25.7048 22.6376 24.8959 23.4465C23.9173 24.4351 22.3695 25.5235 19.6534 25.5235Z" fill="#D2FF00"/>
</svg>
