<svg width="120" height="82" viewBox="0 0 120 82" fill="none" xmlns="http://www.w3.org/2000/svg">
<path d="M2.9043 52.0657H11.1688V53.0811H4.01025V58.5003H9.95224V59.5158H4.01025V64.8947H11.571V65.9102H2.9043V52.0657Z" fill="#111112"/>
<path d="M18.4774 52.0657H19.5934V64.8947H26.8424V65.9102H18.4774V52.0657Z" fill="#111112"/>
<path d="M33.3681 52.0657H41.6326V53.0811H34.474V58.5003H40.4261V59.5158H34.4841V64.8947H42.0347V65.9102H33.358V52.0657H33.3681Z" fill="#111112"/>
<path d="M47.906 59.0527C47.906 55.1115 50.2989 51.9746 54.7126 51.9746C56.6631 51.9746 58.5935 52.7689 60.0514 54.5887L59.2169 55.3126C57.9501 53.714 56.3917 53.0303 54.7126 53.0303C51.1233 53.0303 49.0622 55.6042 49.0622 59.0527C49.0622 62.7928 51.5355 64.9444 54.7328 64.9444C56.7436 64.9444 58.1813 64.0094 59.237 62.7024L60.0715 63.4061C58.865 64.9042 57.1659 66.0001 54.7328 66.0001C51.0027 65.9901 47.906 63.5469 47.906 59.0527Z" fill="#111112"/>
<path d="M69.8959 53.0811H65.5726V52.0657H75.3955V53.0811H71.0119V65.9102H69.8959V53.0811Z" fill="#111112"/>
<path d="M81.9198 52.0657H86.6553C89.752 52.0657 91.0993 53.8251 91.0993 56.1577C91.0993 58.631 89.6414 59.9179 87.3189 60.2095L91.3707 65.9001H90.0235L86.0823 60.3101H83.0258V65.9001H81.9098V52.0657H81.9198ZM86.2632 59.2845C88.9175 59.2845 89.943 57.9373 89.943 56.1678C89.943 54.1167 88.636 53.0912 86.5548 53.0912H83.0258V59.2946H86.2632V59.2845Z" fill="#111112"/>
<path d="M98.5596 52.0657H99.6756V65.9102H98.5596V52.0657Z" fill="#111112"/>
<path d="M106.985 59.0527C106.985 55.1115 109.377 51.9746 113.791 51.9746C115.742 51.9746 117.672 52.7689 119.13 54.5887L118.296 55.3126C117.029 53.714 115.47 53.0303 113.791 53.0303C110.202 53.0303 108.141 55.6042 108.141 59.0527C108.141 62.7928 110.614 64.9444 113.811 64.9444C115.822 64.9444 117.26 64.0094 118.316 62.7024L119.15 63.4061C117.944 64.9042 116.244 66.0001 113.811 66.0001C110.081 65.9901 106.985 63.5469 106.985 59.0527Z" fill="#111112"/>
<path d="M118.749 42.8956V38.3009H106.432V32.2885H115.702V27.734H106.432V21.4904H117.985V16.8755H101.355V42.8956H118.749Z" fill="#111112"/>
<path d="M69.735 29.4328H67.1913V33.9973H69.735V42.8852H74.8224V33.9772H80.2315C81.6793 33.9772 82.9763 33.8063 84.1425 33.4544C85.3088 33.1025 86.3142 32.5998 87.1387 31.9061C87.9832 31.2124 88.6166 30.3376 89.0791 29.2619C89.5316 28.1861 89.7527 26.9595 89.7527 25.5418C89.7527 24.265 89.5718 23.1188 89.2098 22.0732C88.8579 21.0275 88.315 20.1226 87.5911 19.3284C86.8873 18.5341 85.9221 17.9308 84.7659 17.5086C83.5896 17.0863 82.2423 16.8651 80.694 16.8651H69.735V29.4328ZM80.4426 21.4598C82.6445 21.4598 84.4341 23.2495 84.4341 25.4513C84.4341 27.6532 82.6445 29.4428 80.4426 29.4428H74.8224V21.4598H80.4426Z" fill="#111112"/>
<path d="M80.5434 29.4322L89.391 42.8947H83.63L74.8025 29.4322H80.5434Z" fill="#111112"/>
<path d="M40.2958 35.164C39.8937 34.1888 39.6926 33.0627 39.6926 31.7959V16.8755H34.5248V32.1277C34.5248 33.8771 34.7761 35.4656 35.2788 36.843C35.7815 38.2406 36.4954 39.4068 37.4204 40.3318C38.3453 41.2568 39.4412 41.9606 40.7382 42.4532C42.0352 42.9459 43.4629 43.1972 45.0112 43.1972C47.2131 43.1972 49.1234 42.7448 50.7019 41.8299C52.3005 40.925 53.4969 39.6381 54.3415 37.9892C55.1659 36.3403 55.5882 34.3697 55.5882 32.1277V16.8755H50.4304V31.7959C50.4304 33.8369 49.9277 35.4455 48.9323 36.6118C47.937 37.7881 46.6299 38.3813 45.0112 38.3813C43.8952 38.3813 42.9401 38.0998 42.1156 37.5066C41.3013 36.9335 40.698 36.1393 40.2958 35.164Z" fill="#111112"/>
<path d="M2.90502 29.4328H0.361328V33.9973H2.90502V42.8852H7.99241V33.9772H13.4015C14.8493 33.9772 16.1463 33.8063 17.3126 33.4544C18.4789 33.1025 19.4843 32.5998 20.3087 31.9061C21.1533 31.2124 21.7867 30.3376 22.2492 29.2619C22.7016 28.1861 22.9228 26.9595 22.9228 25.5418C22.9228 24.265 22.7418 23.1188 22.3799 22.0732C22.028 21.0275 21.485 20.1226 20.7611 19.3284C20.0574 18.5341 19.0922 17.9308 17.9359 17.5086C16.7697 17.0863 15.4224 16.8651 13.8741 16.8651H2.91508V29.4328H2.90502ZM13.6127 21.4598C15.8145 21.4598 17.6042 23.2495 17.6042 25.4513C17.6042 27.6532 15.8145 29.4428 13.6127 29.4428H7.9723V21.4598H13.6127Z" fill="#111112"/>
</svg>
