<svg width="86" height="42" viewBox="0 0 86 42" fill="none" xmlns="http://www.w3.org/2000/svg">
<path d="M0 20.7469V36.6829H42.8585H85.7169V20.7469V4.81102H42.8585H0V20.7469ZM84.2845 20.7469V35.2479L42.8811 35.2328L1.47008 35.2101L1.44746 20.7243L1.43238 6.24601H42.8585H84.2845V20.7469Z" fill="#D2FF00"/>
<path d="M7.38666 12.5444V12.9523L7.71083 13.0051C7.88422 13.0278 8.14054 13.0731 8.27624 13.0958L8.51749 13.1335L8.50241 20.739L8.47979 28.3368L7.93699 28.3973L7.38666 28.4652V28.9108V29.3564H10.2514H13.1162V28.9108V28.4652L12.5734 28.3973L12.0231 28.3368L12.0004 24.8778L11.9854 21.4262H15.7548H19.5242V24.8551C19.5242 27.7175 19.5092 28.2915 19.4187 28.3217C19.3584 28.3444 19.0719 28.3897 18.7779 28.4199L18.2426 28.4728V28.9108V29.3564H21.1828H24.1229V28.9108V28.4652L23.6178 28.4124C23.3464 28.3822 23.075 28.3444 23.0147 28.3217C22.9318 28.2915 22.9167 26.9321 22.9167 20.7088V13.1335L23.2183 13.0882C23.3841 13.0656 23.6555 13.0202 23.8214 12.9976L24.1229 12.9523V12.5444V12.1366H21.1828H18.2426V12.5444V12.9523L18.6045 12.9976C18.8005 13.0278 19.087 13.0656 19.2453 13.0882L19.5242 13.1335V16.3736V19.6136H15.7548H11.9854V16.3736V13.1335L12.3095 13.0807C13.1991 12.9447 13.1162 12.9976 13.1162 12.5444V12.1366H10.2514H7.38666V12.5444Z" fill="#D2FF00"/>
<path d="M28.5664 12.3481C26.9983 13.1638 27.624 15.5353 29.4032 15.5353C29.9385 15.5353 30.3531 15.3389 30.6999 14.9386C31.2653 14.274 31.2653 13.3979 30.6924 12.7333C30.1646 12.1064 29.3127 11.9554 28.5664 12.3481Z" fill="#D2FF00"/>
<path d="M34.4523 12.5067V12.8767L34.965 12.9372L35.4701 13.0051L35.4927 20.7239L35.5078 28.435L35.3042 28.4803C35.1836 28.503 34.9499 28.5408 34.7765 28.5634L34.4523 28.6163V28.9864V29.3564H37.1286H39.8049V28.9864V28.6163L39.4883 28.5634C39.3074 28.5408 39.0737 28.503 38.9606 28.4803L38.7495 28.435V20.2858V12.1366H36.6009H34.4523V12.5067Z" fill="#D2FF00"/>
<path d="M44.8045 14.055L43.2741 14.5157V15.8147V17.1213H42.1055H40.937V17.6878V18.2542H42.0603H43.1911L43.2137 22.8386C43.2439 27.9441 43.2439 27.8913 43.7641 28.6163C44.5557 29.7039 46.9229 29.8172 49.7424 28.8958L50.2098 28.7372V28.3218V27.9064L49.9837 27.9592C49.8555 27.9895 49.3202 28.0121 48.7925 28.0121C47.4204 28.0197 46.9832 27.8535 46.6515 27.1813L46.4781 26.8264L46.4555 22.5365L46.4328 18.2542H47.8728H49.3052V17.6878V17.1213H47.8728H46.4404V15.3465C46.4404 14.3722 46.4178 13.5716 46.3876 13.5792C46.3499 13.5867 45.6413 13.7982 44.8045 14.055Z" fill="#D2FF00"/>
<path d="M56.3914 16.7889C55.2606 16.94 53.8508 17.5064 53.0593 18.1333C52.132 18.8734 51.3856 20.0516 51.0389 21.3129C50.8051 22.1588 50.7448 24.0394 50.9182 25.0439C51.167 26.4487 51.5741 27.3172 52.3958 28.148C53.3759 29.1374 54.7254 29.6208 56.7684 29.7038C58.9245 29.802 60.6886 29.228 61.9702 28.0196C63.184 26.8792 63.7494 25.5575 63.8323 23.692C63.8851 22.5062 63.772 21.6075 63.4478 20.6559C63.1161 19.6665 62.7995 19.1604 62.0833 18.4429C61.5933 17.9445 61.3445 17.7708 60.764 17.4762C59.7764 16.9929 59.015 16.8191 57.7107 16.7814C57.1303 16.7663 56.5347 16.7738 56.3914 16.7889ZM57.7484 17.7255C58.6305 17.8916 59.2336 18.3976 59.6709 19.3493C60.1458 20.3764 60.3117 21.3733 60.3117 23.269C60.3117 27.0529 59.3919 28.7598 57.3338 28.7673C56.5875 28.7749 56.0447 28.5634 55.5848 28.08C54.6274 27.0982 54.1599 24.8173 54.356 22.1437C54.552 19.4625 55.3586 18.0125 56.791 17.7255C57.2358 17.6424 57.3037 17.6424 57.7484 17.7255Z" fill="#D2FF00"/>
<path d="M73.2173 16.9023C72.275 17.0231 71.114 17.5442 70.1264 18.2919C69.8249 18.5185 69.5384 18.7073 69.5007 18.7073C69.463 18.7073 69.4328 18.3524 69.4328 17.9143V17.1213H67.2843H65.1357V17.5291V17.937L65.4975 17.9823C65.6936 18.0125 65.9423 18.0503 66.063 18.0729L66.2665 18.1182V23.2766V28.435L65.8368 28.4803C65.1357 28.5634 65.1357 28.5634 65.1357 28.9864V29.3564H67.8497H70.5637V28.9788C70.5637 28.7673 70.541 28.6012 70.5109 28.5936C70.4732 28.5861 70.232 28.5483 69.9606 28.4955L69.4705 28.4124V24.0319V19.6514L69.8475 19.4022C70.0586 19.2662 70.4958 19.0472 70.8275 18.9188C71.3477 18.7073 71.5211 18.6771 72.1091 18.6696C72.8555 18.6696 73.2023 18.798 73.5943 19.2133C74.1899 19.8402 74.2728 20.5426 74.2426 24.976L74.22 28.4124L73.73 28.4955C73.4586 28.5483 73.2173 28.5861 73.1872 28.5936C73.1495 28.6012 73.1269 28.7673 73.1269 28.9788V29.3564H75.8409H78.5549V28.9864C78.5549 28.5634 78.5549 28.5634 77.8613 28.4879L77.4316 28.435L77.409 24.0394C77.3863 19.6892 77.3788 19.6438 77.2054 19.1227C76.9717 18.4052 76.7455 18.0351 76.2932 17.6273C75.8484 17.227 75.283 16.9929 74.5291 16.8947C73.926 16.8116 73.8732 16.8116 73.2173 16.9023Z" fill="#D2FF00"/>
<path d="M26.6874 17.4914V17.8614L27.0492 17.9067C27.2453 17.937 27.494 17.9747 27.6147 17.9974L27.8182 18.0427L27.8031 23.2238L27.7805 28.4124L27.2905 28.4955C27.0191 28.5483 26.7778 28.5861 26.7477 28.5936C26.71 28.6012 26.6874 28.7673 26.6874 28.9788V29.3564H29.4089H32.1229L32.1003 29.009C32.0701 28.5936 32.0174 28.5483 31.4218 28.4879L30.9845 28.4426V22.7782V17.1213H28.836H26.6874V17.4914Z" fill="#D2FF00"/>
</svg>
