<svg width="178" height="82" viewBox="0 0 178 82" fill="none" xmlns="http://www.w3.org/2000/svg">
<path d="M172.077 47.4831L176.998 50.7637C175.401 53.1163 171.58 57.1524 164.976 57.1524C156.774 57.1524 150.666 50.8069 150.666 42.7347C150.666 34.1445 156.839 28.317 164.285 28.317C171.775 28.317 175.444 34.274 176.631 37.49L177.278 39.1303L157.983 47.1161C159.451 50.0083 161.738 51.476 164.976 51.476C168.213 51.476 170.458 49.8788 172.077 47.4831ZM156.947 42.2815L169.832 36.9288C169.12 35.1374 167.005 33.8639 164.48 33.8639C161.264 33.8639 156.796 36.713 156.947 42.2815Z" fill="#111112"/>
<path d="M141.364 13.6187H147.58V55.8358H141.364V13.6187Z" fill="#111112"/>
<path d="M131.565 29.4393H137.565V55.0804C137.565 65.721 131.284 70.1024 123.859 70.1024C116.866 70.1024 112.658 65.3972 111.082 61.577L116.586 59.2891C117.579 61.6417 119.974 64.426 123.859 64.426C128.629 64.426 131.565 61.4691 131.565 55.9437V53.8717H131.349C129.924 55.5984 127.205 57.1524 123.751 57.1524C116.543 57.1524 109.938 50.8716 109.938 42.7779C109.938 34.6409 116.543 28.2954 123.751 28.2954C127.183 28.2954 129.924 29.8278 131.349 31.5113H131.565V29.4393ZM131.996 42.7779C131.996 37.6842 128.608 33.9718 124.291 33.9718C119.931 33.9718 116.262 37.6842 116.262 42.7779C116.262 47.8068 119.931 51.4544 124.291 51.4544C128.608 51.476 131.996 47.8068 131.996 42.7779Z" fill="#111112"/>
<path d="M75.8149 42.67C75.8149 50.9796 69.3399 57.0877 61.3972 57.0877C53.4545 57.0877 46.9795 50.958 46.9795 42.67C46.9795 34.3172 53.4545 28.2307 61.3972 28.2307C69.3399 28.2307 75.8149 34.3172 75.8149 42.67ZM69.5125 42.67C69.5125 37.49 65.757 33.9287 61.3972 33.9287C57.0373 33.9287 53.2818 37.49 53.2818 42.67C53.2818 47.8068 57.0373 51.4113 61.3972 51.4113C65.757 51.4113 69.5125 47.8068 69.5125 42.67Z" fill="#111112"/>
<path d="M107.305 42.7347C107.305 51.0443 100.83 57.1524 92.8874 57.1524C84.9447 57.1524 78.4697 51.0443 78.4697 42.7347C78.4697 34.3819 84.9447 28.317 92.8874 28.317C100.83 28.317 107.305 34.3604 107.305 42.7347ZM100.981 42.7347C100.981 37.5547 97.2257 33.9934 92.8658 33.9934C88.506 33.9934 84.7505 37.5547 84.7505 42.7347C84.7505 47.8716 88.506 51.476 92.8658 51.476C97.2473 51.476 100.981 47.85 100.981 42.7347Z" fill="#111112"/>
<path d="M23.2809 50.8285C14.2375 50.8285 7.15813 43.5333 7.15813 34.4899C7.15813 25.4464 14.2375 18.1513 23.2809 18.1513C28.1588 18.1513 31.72 20.0722 34.3532 22.5327L38.6915 18.1944C35.0223 14.6763 30.1229 12 23.2809 12C10.8921 12 0.467285 22.101 0.467285 34.4899C0.467285 46.8788 10.8921 56.9798 23.2809 56.9798C29.9718 56.9798 35.0223 54.7783 38.972 50.6774C43.0297 46.6198 44.2816 40.9217 44.2816 36.3029C44.2816 34.8568 44.1089 33.3676 43.9146 32.2668H23.2809V38.267H37.9792C37.5475 42.0225 36.3605 44.5909 34.6122 46.3392C32.497 48.4759 29.1516 50.8285 23.2809 50.8285Z" fill="#111112"/>
</svg>
