<svg width="86" height="42" viewBox="0 0 86 42" fill="none" xmlns="http://www.w3.org/2000/svg">
<path d="M75.8429 24.3038C75.8429 22.0418 77.4678 20.2592 79.5178 20.2592C81.5677 20.2592 83.0671 21.9931 83.0671 24.3038C83.0671 26.6146 81.5426 28.3989 79.5178 28.3989C77.4929 28.3989 75.8429 26.5893 75.8429 24.3038ZM68.7928 30.6088H71.6677V18.0476H68.7928V30.6088ZM68.3426 13.8516C68.3426 14.9313 69.2178 15.8109 70.242 15.8109C71.2661 15.8109 72.1162 14.9313 72.1162 13.8516C72.1162 12.8459 71.2661 11.9932 70.242 11.9932C69.2178 11.9932 68.3426 12.8476 68.3426 13.8516ZM57.0687 24.2786C57.0687 22.0183 58.7187 20.2592 60.844 20.2592C62.9692 20.2592 64.6192 22.0183 64.6192 24.2786C64.6192 26.5389 62.9441 28.3989 60.844 28.3989C58.7438 28.3989 57.0687 26.5641 57.0687 24.2786ZM54.1436 24.2786C54.1436 28.0474 57.0938 31.0124 60.844 31.0124C64.5941 31.0124 67.5444 28.0474 67.5444 24.2786C67.5444 20.5097 64.6443 17.6457 60.844 17.6457C57.0436 17.6457 54.1436 20.535 54.1436 24.2786ZM46.3688 30.6088H49.2438V24.0263C49.2438 21.4129 50.6193 20.2575 52.9186 20.2575C53.3437 20.2575 53.6683 20.2827 53.9696 20.3584V17.8206C53.67 17.7197 53.1446 17.644 52.5689 17.644C48.6698 17.644 46.3688 20.1061 46.3688 24.0246V30.6071V30.6088ZM34.8439 24.3038C34.8439 22.0418 36.4688 20.2592 38.5188 20.2592C40.5687 20.2592 42.0681 21.9931 42.0681 24.3038C42.0681 26.6146 40.5436 28.3989 38.5188 28.3989C36.4939 28.3989 34.8439 26.5893 34.8439 24.3038ZM31.9205 24.3038C31.9205 27.9465 34.8205 31.0124 38.246 31.0124C39.6718 31.0124 40.9704 30.4339 41.7452 29.4803H41.8707V30.6105H44.7456V10.9892H41.8707V19.0786H41.7452C40.9955 18.1738 39.6952 17.6457 38.246 17.6457C34.7954 17.6457 31.9205 20.6863 31.9205 24.3038ZM19.3196 30.6088H22.1945V23.2477C22.1945 21.4885 23.3693 20.2575 24.9942 20.2575C26.6191 20.2575 27.7938 21.4885 27.7938 23.2477V30.6088H30.6687V23.2477C30.6687 20.1818 28.2439 17.6457 24.9942 17.6457C21.7444 17.6457 19.3196 20.1835 19.3196 23.2477V30.6088ZM6.12124 23.0728L9.22043 14.1543H9.37103L12.4702 23.0728H6.12124ZM0.270935 30.6088H3.52073L5.14563 25.9351H13.4458L15.0707 30.6088H18.3205L11.0963 10.9875H7.4968L0.270935 30.6088ZM79.2433 31.0107C80.6674 31.0107 81.9677 30.4322 82.7425 29.4786H82.868V30.6088H85.7429V10.9875H82.868V19.0769H82.7425C81.9928 18.1721 80.6925 17.644 79.2433 17.644C75.7927 17.644 72.9178 20.6846 72.9178 24.3021C72.9178 27.9196 75.8178 31.0107 79.2433 31.0107Z" fill="#D2FF00"/>
</svg>
