<svg width="126" height="82" viewBox="0 0 126 82" fill="none" xmlns="http://www.w3.org/2000/svg">
<path d="M18.9371 20.5152C6.9257 26.1682 0.311523 33.7877 0.311523 41.9716C0.311523 50.1556 6.9257 57.7751 18.9371 63.428C30.675 68.9487 46.2757 72 62.8023 72C79.3289 72 94.9384 68.9575 106.668 63.428C118.679 57.7751 125.293 50.1556 125.293 41.9716C125.293 33.7877 118.688 26.1682 106.65 20.5152C94.9119 14.9946 79.3113 11.9521 62.7847 11.9521C46.258 11.9521 30.675 14.9858 18.9371 20.5152Z" stroke="#111112" stroke-width="0.138456"/>
<path d="M62.8024 14.0363C79.5334 14.0363 94.6676 17.1879 105.608 22.2726C116.571 27.368 123.226 34.3526 123.226 41.9709C123.226 49.5891 116.571 56.5728 105.608 61.6682C94.6676 66.7529 79.5334 69.9055 62.8024 69.9055C46.0715 69.9054 30.9381 66.7529 19.9977 61.6682C9.03447 56.5728 2.37966 49.5891 2.37952 41.9709C2.37952 34.3525 9.03435 27.3681 19.9977 22.2726C30.9381 17.1879 46.0716 14.0364 62.8024 14.0363Z" stroke="#111112" stroke-width="0.553825"/>
<path d="M62.8031 16.2955C78.9144 16.2955 93.4873 19.195 104.022 23.8726C109.29 26.2116 113.535 28.9904 116.46 32.0611C119.384 35.1304 120.978 38.479 120.978 41.9722C120.978 45.4655 119.384 48.8141 116.46 51.8834C113.535 54.9541 109.29 57.7328 104.022 60.0718C93.4873 64.7494 78.9144 67.6489 62.8031 67.649C46.6916 67.649 32.1181 64.7495 21.5834 60.0718C16.3157 57.7328 12.07 54.9541 9.1449 51.8834C6.22127 48.8141 4.62831 45.4655 4.6283 41.9722C4.6283 38.479 6.22129 35.1304 9.1449 32.0611C12.07 28.9904 16.3157 26.2116 21.5834 23.8726C32.1181 19.195 46.6916 16.2955 62.8031 16.2955Z" stroke="#111112" stroke-width="0.553825"/>
<path d="M62.8018 15.3306C79.0156 15.3307 93.7279 18.2477 104.412 22.9918C109.753 25.3634 114.118 28.2057 117.157 31.3961C120.2 34.5899 121.94 38.165 121.94 41.9722C121.94 45.7795 120.2 49.3545 117.157 52.5484C114.118 55.7387 109.753 58.581 104.412 60.9527C93.7279 65.6968 79.0156 68.6138 62.8018 68.6138C46.5877 68.6138 31.8748 65.6968 21.1904 60.9527C15.8493 58.5811 11.4843 55.7387 8.44531 52.5484C5.40303 49.3546 3.66213 45.7795 3.66211 41.9722C3.66211 38.165 5.40305 34.5899 8.44531 31.3961C11.4843 28.2057 15.8493 25.3634 21.1904 22.9918C31.8748 18.2476 46.5877 15.3306 62.8018 15.3306Z" stroke="#111112" stroke-width="1.37444"/>
<path d="M110.289 49.4986L110.307 49.522L110.261 49.5572H109.989V49.4986H110.289Z" fill="#111112" stroke="#111112" stroke-width="0.553825"/>
<path d="M32.7378 28.2797H32.7397C33.1133 28.2798 34.8599 28.4527 36.5034 29.2133C38.142 29.9715 39.6146 31.2783 39.6147 33.5316V33.5336C39.6233 35.3992 39.1305 36.5192 38.6597 37.1664C38.423 37.4916 38.1885 37.7028 38.0171 37.8304C37.9315 37.8941 37.8615 37.9369 37.8149 37.9633C37.7917 37.9764 37.7737 37.9854 37.7632 37.9906L37.7534 37.9955L37.2427 38.2162L37.7261 38.4906C38.6808 39.0332 39.4654 39.8319 39.9907 40.7963C40.4504 41.6401 40.6958 42.5817 40.7085 43.5385L40.6997 43.9486V43.9554C40.6524 45.4435 40.1161 46.8756 39.1743 48.0287C38.2328 49.1813 36.9378 49.9917 35.4897 50.3353C35.2671 50.387 34.8577 50.4337 34.2935 50.472C33.735 50.51 33.0414 50.5392 32.2622 50.5619C30.7043 50.6072 28.8103 50.625 26.9761 50.6283C25.1421 50.6316 23.3694 50.6206 22.0552 50.6088C21.3981 50.6028 20.8551 50.5968 20.4771 50.5922C20.352 50.5906 20.245 50.5884 20.1577 50.5873L20.106 28.2103L32.7378 28.2797ZM27.3032 44.8412H32.6587L32.4839 44.6664C32.7225 44.5552 32.9354 44.3917 33.104 44.184C33.3749 43.8501 33.5118 43.4283 33.4917 42.9994L33.4927 43.0004C33.5087 42.2683 33.0967 41.8623 32.7007 41.6556C32.5079 41.5551 32.3175 41.4996 32.1772 41.4691C32.1064 41.4537 32.0463 41.4445 32.0034 41.4388C31.9819 41.436 31.9643 41.4342 31.9517 41.433C31.9457 41.4324 31.9408 41.4313 31.937 41.431H31.9292L31.9194 41.4301H27.3032V44.8412ZM27.2417 34.1361L27.2065 36.2611L27.2017 36.5424H31.2837L31.3003 36.5404C31.6518 36.4977 31.9756 36.3279 32.2104 36.0629C32.416 35.8309 32.5408 35.5402 32.5688 35.2338L32.5757 35.1019C32.5851 34.5038 32.2002 34.1848 31.8647 34.0316C31.6981 33.9555 31.5342 33.9145 31.4146 33.892C31.3541 33.8806 31.3028 33.8736 31.2661 33.8695C31.2479 33.8675 31.2329 33.8665 31.2222 33.8656C31.217 33.8652 31.2127 33.8648 31.2095 33.8646C31.2078 33.8645 31.2057 33.8637 31.2046 33.8636H27.2466L27.2417 34.1361Z" fill="#111112" stroke="#111112" stroke-width="0.553825"/>
<path d="M63.8303 28.2706V34.1983H52.1096V36.3663H62.6399V41.9942H52.1096V44.6378H63.6975V50.7598H44.9036V28.2706H63.8303Z" fill="#111112" stroke="#111112" stroke-width="0.553825"/>
<path d="M75.7638 28.2707V44.6379H85.464V50.7599H68.4337V28.2707H75.7638Z" fill="#111112" stroke="#111112" stroke-width="0.553825"/>
<path d="M96.4271 28.3414V44.7173H106.127V50.8306H89.097V28.3414H96.4271Z" fill="#111112" stroke="#111112" stroke-width="0.553825"/>
<mask id="path-10-inside-1_2882_179" fill="white">
<path d="M59.4515 61.3905V54.7939H61.6738L62.979 58.6831L64.2137 54.7939H66.436V61.3905H64.7869V57.8629L63.5875 61.3905H62.2912L61.0918 57.8629V61.3905H59.4515ZM43.1541 57.1574V54.7234H45.0237V61.4522H43.1541V58.7183H40.8612V61.4522H38.9828V54.7234H40.8612V57.1574H43.1541ZM48.2867 56.2755V57.2368H51.5145V58.7095H48.2867V59.8736H51.8848V61.4345H46.4171V54.7057H51.8143V56.2667L48.2867 56.2755ZM58.305 59.8736V61.4345H53.1812V54.7057H55.0508V59.8736H58.305ZM69.7696 56.2755V57.2368H72.9973V58.7095H69.7255V59.8736H73.3236V61.4345H67.8471V54.7057H73.2442V56.2667L69.7696 56.2755ZM80.0965 54.7145V56.2755H78.0505V61.4434H76.1809V56.2755H74.1879V54.7145H80.0965ZM83.2361 60.0676C83.404 60.1045 83.5756 60.1222 83.7476 60.1205H84.1444C84.2691 60.1014 84.3907 60.0658 84.506 60.0147C84.6041 59.9731 84.6916 59.9098 84.7617 59.8295C84.8235 59.7522 84.8549 59.655 84.8499 59.5561C84.8524 59.5049 84.8434 59.4538 84.8236 59.4065C84.8037 59.3592 84.7736 59.3169 84.7353 59.2827C84.6253 59.182 84.4964 59.1041 84.3561 59.0534C84.1576 58.9806 83.9542 58.9217 83.7476 58.8771L83.0244 58.7007C82.7708 58.6404 82.5206 58.5668 82.2748 58.4802C82.0299 58.392 81.7984 58.2703 81.5869 58.1186C81.3792 57.968 81.205 57.7758 81.0754 57.5542C80.9353 57.2821 80.8685 56.9782 80.8814 56.6723C80.8734 56.3408 80.959 56.0138 81.1283 55.7287C81.2898 55.465 81.5064 55.2394 81.7633 55.0673C82.0322 54.8873 82.3308 54.7559 82.6452 54.6793C82.9562 54.598 83.2762 54.5565 83.5976 54.5558C83.9511 54.5547 84.3035 54.5962 84.6471 54.6793C84.9774 54.7494 85.2915 54.881 85.5731 55.0673C85.8592 55.2608 86.0906 55.5247 86.2451 55.8337C86.3995 56.1426 86.4718 56.4861 86.455 56.8311V57.0251H84.603V56.8399C84.5981 56.7041 84.5619 56.5713 84.4972 56.4519C84.4472 56.3611 84.3742 56.2851 84.2855 56.2314C84.179 56.1704 84.0626 56.1287 83.9416 56.1079C83.7891 56.0927 83.6355 56.0927 83.483 56.1079C83.3774 56.0975 83.2711 56.0975 83.1655 56.1079C83.0754 56.1256 82.9889 56.1584 82.9098 56.2049C82.8404 56.2485 82.7805 56.3055 82.7334 56.3725C82.6888 56.4404 82.6671 56.5207 82.6716 56.6018C82.6674 56.6694 82.6827 56.7367 82.7157 56.7958C82.7695 56.8602 82.8395 56.9089 82.9186 56.9369C83.1048 57.0128 83.2964 57.0747 83.4918 57.1221L84.506 57.369L85.0351 57.5013C85.2876 57.5712 85.5284 57.6782 85.7495 57.8188C85.996 57.9756 86.2064 58.1831 86.3668 58.4273C86.5598 58.7162 86.6556 59.0591 86.6402 59.4062C86.6417 59.7109 86.5754 60.0122 86.4461 60.2881C86.3083 60.5695 86.1059 60.8143 85.8553 61.0024C85.5747 61.2097 85.2576 61.3623 84.9205 61.4522C84.5126 61.5639 84.091 61.6174 83.6682 61.6109C83.2904 61.6108 82.9142 61.5634 82.5482 61.4698C82.1952 61.3878 81.8603 61.2413 81.5605 61.0377C81.2749 60.8386 81.0394 60.576 80.8726 60.2705C80.6959 59.9307 80.6108 59.5508 80.6257 59.1681V58.9741H82.4512V59.1681C82.4431 59.324 82.4766 59.4792 82.5482 59.6179C82.6097 59.7358 82.6972 59.8383 82.8039 59.9177C82.9245 59.99 83.0553 60.0435 83.192 60.0764L83.2361 60.0676Z"/>
</mask>
<path d="M59.4515 61.3905V54.7939H61.6738L62.979 58.6831L64.2137 54.7939H66.436V61.3905H64.7869V57.8629L63.5875 61.3905H62.2912L61.0918 57.8629V61.3905H59.4515ZM43.1541 57.1574V54.7234H45.0237V61.4522H43.1541V58.7183H40.8612V61.4522H38.9828V54.7234H40.8612V57.1574H43.1541ZM48.2867 56.2755V57.2368H51.5145V58.7095H48.2867V59.8736H51.8848V61.4345H46.4171V54.7057H51.8143V56.2667L48.2867 56.2755ZM58.305 59.8736V61.4345H53.1812V54.7057H55.0508V59.8736H58.305ZM69.7696 56.2755V57.2368H72.9973V58.7095H69.7255V59.8736H73.3236V61.4345H67.8471V54.7057H73.2442V56.2667L69.7696 56.2755ZM80.0965 54.7145V56.2755H78.0505V61.4434H76.1809V56.2755H74.1879V54.7145H80.0965ZM83.2361 60.0676C83.404 60.1045 83.5756 60.1222 83.7476 60.1205H84.1444C84.2691 60.1014 84.3907 60.0658 84.506 60.0147C84.6041 59.9731 84.6916 59.9098 84.7617 59.8295C84.8235 59.7522 84.8549 59.655 84.8499 59.5561C84.8524 59.5049 84.8434 59.4538 84.8236 59.4065C84.8037 59.3592 84.7736 59.3169 84.7353 59.2827C84.6253 59.182 84.4964 59.1041 84.3561 59.0534C84.1576 58.9806 83.9542 58.9217 83.7476 58.8771L83.0244 58.7007C82.7708 58.6404 82.5206 58.5668 82.2748 58.4802C82.0299 58.392 81.7984 58.2703 81.5869 58.1186C81.3792 57.968 81.205 57.7758 81.0754 57.5542C80.9353 57.2821 80.8685 56.9782 80.8814 56.6723C80.8734 56.3408 80.959 56.0138 81.1283 55.7287C81.2898 55.465 81.5064 55.2394 81.7633 55.0673C82.0322 54.8873 82.3308 54.7559 82.6452 54.6793C82.9562 54.598 83.2762 54.5565 83.5976 54.5558C83.9511 54.5547 84.3035 54.5962 84.6471 54.6793C84.9774 54.7494 85.2915 54.881 85.5731 55.0673C85.8592 55.2608 86.0906 55.5247 86.2451 55.8337C86.3995 56.1426 86.4718 56.4861 86.455 56.8311V57.0251H84.603V56.8399C84.5981 56.7041 84.5619 56.5713 84.4972 56.4519C84.4472 56.3611 84.3742 56.2851 84.2855 56.2314C84.179 56.1704 84.0626 56.1287 83.9416 56.1079C83.7891 56.0927 83.6355 56.0927 83.483 56.1079C83.3774 56.0975 83.2711 56.0975 83.1655 56.1079C83.0754 56.1256 82.9889 56.1584 82.9098 56.2049C82.8404 56.2485 82.7805 56.3055 82.7334 56.3725C82.6888 56.4404 82.6671 56.5207 82.6716 56.6018C82.6674 56.6694 82.6827 56.7367 82.7157 56.7958C82.7695 56.8602 82.8395 56.9089 82.9186 56.9369C83.1048 57.0128 83.2964 57.0747 83.4918 57.1221L84.506 57.369L85.0351 57.5013C85.2876 57.5712 85.5284 57.6782 85.7495 57.8188C85.996 57.9756 86.2064 58.1831 86.3668 58.4273C86.5598 58.7162 86.6556 59.0591 86.6402 59.4062C86.6417 59.7109 86.5754 60.0122 86.4461 60.2881C86.3083 60.5695 86.1059 60.8143 85.8553 61.0024C85.5747 61.2097 85.2576 61.3623 84.9205 61.4522C84.5126 61.5639 84.091 61.6174 83.6682 61.6109C83.2904 61.6108 82.9142 61.5634 82.5482 61.4698C82.1952 61.3878 81.8603 61.2413 81.5605 61.0377C81.2749 60.8386 81.0394 60.576 80.8726 60.2705C80.6959 59.9307 80.6108 59.5508 80.6257 59.1681V58.9741H82.4512V59.1681C82.4431 59.324 82.4766 59.4792 82.5482 59.6179C82.6097 59.7358 82.6972 59.8383 82.8039 59.9177C82.9245 59.99 83.0553 60.0435 83.192 60.0764L83.2361 60.0676Z" fill="#111112" stroke="#111112" stroke-width="1.10765" mask="url(#path-10-inside-1_2882_179)"/>
</svg>
