<svg width="71" height="42" viewBox="0 0 71 42" fill="none" xmlns="http://www.w3.org/2000/svg">
<path d="M18.8104 25.1315H27.8671L35.9078 11.2918L40.9471 32.979H49.3799L41.2644 1H34.025L18.8104 25.1315Z" fill="#D2FF00"/>
<path d="M23.6106 3.09169C21.9032 1.73089 19.4962 1.04102 16.4573 1.04102H6.43086L1.63098 25.1487H9.77627L10.9492 19.1018H14.5231C16.8153 19.1018 18.8665 18.6945 20.6193 17.891C20.7948 17.8108 20.9626 17.7242 21.1305 17.6364L26.2688 9.47546C26.2742 9.32601 26.2829 9.17818 26.2829 9.02601C26.2829 6.50261 25.384 4.50609 23.61 3.09169H23.6106ZM17.3356 11.5743C16.7817 12.0579 15.9299 12.3032 14.8041 12.3032H12.3008L13.1937 7.83904H15.6467C16.5293 7.83904 17.1889 7.99932 17.6075 8.31502C17.8241 8.47855 18.1127 8.78559 18.1127 9.55669C18.1127 10.4707 17.8658 11.1119 17.3356 11.5749V11.5743Z" fill="#D2FF00"/>
<path d="M67.9019 3.09125C66.1945 1.73045 63.7876 1.04004 60.7481 1.04004H50.7216L47.445 17.3615L49.4274 25.1477H54.0302L55.2394 19.1008H58.8133C61.1055 19.1008 63.1562 18.6936 64.9101 17.89C66.7052 17.0664 68.1131 15.8767 69.0943 14.3529C70.076 12.8275 70.5737 11.0351 70.5737 9.02558C70.5737 6.50272 69.6742 4.5062 67.9014 3.09125H67.9019ZM61.6264 11.5739C61.0725 12.0575 60.2207 12.3028 59.0954 12.3028H56.5915L57.4845 7.8386H59.9375C60.8201 7.8386 61.4797 7.99889 61.8988 8.31459C62.1159 8.47812 62.404 8.78515 62.404 9.55625C62.404 10.4698 62.1571 11.1114 61.627 11.5744L61.6264 11.5739Z" fill="#D2FF00"/>
<path d="M2.20897 27.1047C2.29341 27.1729 2.33562 27.2676 2.33562 27.3894C2.33562 27.4933 2.31127 27.5842 2.26202 27.6616C2.21276 27.739 2.14294 27.7986 2.05255 27.8402C1.96163 27.8814 1.855 27.9025 1.73214 27.9025H1.45556L1.38845 28.2451H1.09943L1.34786 27.0029H1.85013C2.00493 27.0029 2.12508 27.037 2.20951 27.1052L2.20897 27.1047ZM1.9665 27.6026C2.01846 27.5588 2.04444 27.496 2.04444 27.4148C2.04444 27.3558 2.02441 27.3114 1.9849 27.2817C1.94539 27.2519 1.88856 27.2373 1.81387 27.2373H1.58817L1.50103 27.6687H1.74405C1.83985 27.6687 1.914 27.647 1.96596 27.6032L1.9665 27.6026Z" fill="#D2FF00"/>
<path d="M3.21626 27.002H3.50529L3.25686 28.2441H2.96783L3.21626 27.002Z" fill="#D2FF00"/>
<path d="M4.45965 28.1983C4.36818 28.1533 4.2989 28.09 4.25019 28.0083C4.20148 27.9266 4.17712 27.8324 4.17712 27.7258C4.17712 27.585 4.2096 27.4584 4.27401 27.3453C4.33841 27.2321 4.4288 27.1434 4.54571 27.0779C4.66262 27.0129 4.79576 26.9805 4.94623 26.9805C5.07072 26.9805 5.17788 27.0032 5.26881 27.0481C5.36028 27.093 5.4301 27.1564 5.47827 27.2381C5.52644 27.3198 5.5508 27.414 5.5508 27.5206C5.5508 27.6614 5.51886 27.788 5.45392 27.9011C5.38951 28.0142 5.29912 28.103 5.18221 28.1685C5.06584 28.2334 4.93216 28.2659 4.78223 28.2659C4.65775 28.2659 4.55004 28.2437 4.45911 28.1983H4.45965ZM5.0469 27.9552C5.11564 27.9114 5.16814 27.853 5.20494 27.7793C5.24175 27.7057 5.25961 27.6251 5.25961 27.5363C5.25961 27.4416 5.23038 27.3664 5.17085 27.3101C5.11185 27.2538 5.0285 27.2257 4.92079 27.2257C4.82932 27.2257 4.74976 27.2473 4.68102 27.2911C4.61228 27.335 4.55978 27.3934 4.52298 27.467C4.48617 27.5407 4.46831 27.6213 4.46831 27.7101C4.46831 27.8048 4.49808 27.88 4.55708 27.9363C4.61607 27.9926 4.69942 28.0207 4.80713 28.0207C4.8986 28.0207 4.97816 27.9991 5.0469 27.9552Z" fill="#D2FF00"/>
<path d="M7.6129 27.002L7.36447 28.2441H7.12849L6.66519 27.4669L6.50931 28.2441H6.22516L6.47359 27.002H6.71119L7.1745 27.7808L7.32875 27.002H7.6129Z" fill="#D2FF00"/>
<path d="M8.73571 27.2325L8.68266 27.5026H9.25963L9.21525 27.7261H8.63666L8.57983 28.0135H9.25801L9.20983 28.2441H8.24805L8.49648 27.002H9.43499L9.38682 27.2325H8.73571Z" fill="#D2FF00"/>
<path d="M10.5148 27.2325L10.4617 27.5026H11.0387L10.9943 27.7261H10.4157L10.3589 28.0135H11.0371L10.9889 28.2441H10.0271L10.2755 27.002H11.214L11.1659 27.2325H10.5148Z" fill="#D2FF00"/>
<path d="M12.9521 27.685C12.8893 27.7678 12.8021 27.8263 12.6912 27.8609L12.9077 28.2441H12.6041L12.4087 27.8961H12.1635L12.0942 28.2441H11.8052L12.0536 27.002H12.5597C12.7134 27.002 12.833 27.0355 12.918 27.1032C13.0035 27.1703 13.0457 27.265 13.0457 27.3873C13.0457 27.5096 13.0143 27.6027 12.9515 27.6855L12.9521 27.685ZM12.676 27.6016C12.7285 27.5578 12.7551 27.495 12.7551 27.4138C12.7551 27.3548 12.735 27.3105 12.6944 27.2807C12.6544 27.2509 12.597 27.2363 12.5223 27.2363H12.295L12.2079 27.6677H12.453C12.5488 27.6677 12.623 27.646 12.6755 27.6022L12.676 27.6016Z" fill="#D2FF00"/>
<path d="M14.1863 27.2325L14.1333 27.5026H14.7103L14.6659 27.7261H14.0873L14.0305 28.0135H14.7086L14.6605 28.2441H13.6987L13.9471 27.002H14.8856L14.8374 27.2325H14.1863Z" fill="#D2FF00"/>
<path d="M15.7261 27.0025H16.2462C16.3729 27.0025 16.4817 27.0236 16.5737 27.0653C16.6651 27.1075 16.7355 27.1676 16.7848 27.2455C16.834 27.3235 16.8584 27.4155 16.8584 27.5205C16.8584 27.665 16.8259 27.7916 16.7609 27.901C16.696 28.0103 16.6051 28.0953 16.4882 28.1548C16.3718 28.2143 16.237 28.2441 16.0844 28.2441H15.4777L15.7261 27.002V27.0025ZM16.0931 28.0087C16.1899 28.0087 16.2744 27.9881 16.3458 27.9475C16.4173 27.9069 16.4725 27.8506 16.5098 27.7786C16.5477 27.7072 16.5666 27.626 16.5666 27.5362C16.5666 27.4463 16.5363 27.3695 16.4763 27.317C16.4156 27.2645 16.328 27.2379 16.2138 27.2379H15.9669L15.8127 28.0081H16.0931V28.0087Z" fill="#D2FF00"/>
<path d="M1.61555 30.7H1.03696L0.875671 30.9663H0.568787L1.37253 29.7241H1.65668L1.96194 30.9663H1.67455L1.61609 30.7H1.61555ZM1.56738 30.4819L1.46238 30.0029L1.16957 30.4819H1.56738Z" fill="#D2FF00"/>
<path d="M3.0761 29.9575H2.67828L2.72645 29.7231H3.80894L3.76077 29.9575H3.36512L3.1627 30.9653H2.8753L3.07556 29.9575H3.0761Z" fill="#D2FF00"/>
<path d="M5.69054 29.7231L5.44211 30.9653H5.15471L5.25538 30.4592H4.69303L4.59182 30.9653H4.3028L4.55123 29.7231H4.84025L4.74283 30.2113H5.30572L5.40314 29.7231H5.69054Z" fill="#D2FF00"/>
<path d="M6.57374 29.7231H6.86276L6.66034 30.7309H7.28331L7.23514 30.9653H6.32477L6.5732 29.7231H6.57374Z" fill="#D2FF00"/>
<path d="M8.47411 29.9547L8.42107 30.2248H8.99803L8.95365 30.4483H8.37506L8.31823 30.7357H8.99641L8.94824 30.9663H7.98645L8.23488 29.7241H9.1734L9.12522 29.9547H8.47411Z" fill="#D2FF00"/>
<path d="M10.2229 29.9575H9.82507L9.87324 29.7231H10.9557L10.9076 29.9575H10.5119L10.3095 30.9653H10.0221L10.2223 29.9575H10.2229Z" fill="#D2FF00"/>
<path d="M11.9382 29.9547L11.8851 30.2248H12.4621L12.4177 30.4483H11.8391L11.7823 30.7357H12.4605L12.4123 30.9663H11.4505L11.6989 29.7241H12.6374L12.5893 29.9547H11.9382Z" fill="#D2FF00"/>
<path d="M1.11009 32.6057C1.19452 32.6739 1.23674 32.7686 1.23674 32.8904C1.23674 32.9943 1.21238 33.0852 1.16313 33.1626C1.11388 33.24 1.04406 33.2995 0.953669 33.3412C0.862741 33.3823 0.756116 33.4035 0.633254 33.4035H0.356679L0.289565 33.7461H0L0.24843 32.5039H0.750703C0.905499 32.5039 1.02565 32.538 1.11009 32.6062V32.6057ZM0.867612 33.1036C0.919571 33.0598 0.945551 32.997 0.945551 32.9158C0.945551 32.8568 0.925525 32.8124 0.886014 32.7826C0.846503 32.7529 0.789673 32.7383 0.714981 32.7383H0.489283L0.402143 33.1696H0.645161C0.740961 33.1696 0.815111 33.148 0.86707 33.1041L0.867612 33.1036Z" fill="#D2FF00"/>
<path d="M2.3579 32.7335L2.30486 33.0036H2.88182L2.83744 33.2271H2.25885L2.20202 33.5145H2.8802L2.83203 33.7451H1.87024L2.11867 32.5029H3.05718L3.00901 32.7335H2.3579Z" fill="#D2FF00"/>
<path d="M4.79521 33.187C4.73242 33.2698 4.64528 33.3282 4.53433 33.3629L4.75083 33.7461H4.44719L4.2518 33.3986H4.00662L3.93734 33.7461H3.64832L3.89675 32.5039H4.40281C4.55652 32.5039 4.67613 32.5375 4.76111 32.6051C4.84663 32.6722 4.88884 32.7669 4.88884 32.8893C4.88884 33.0116 4.85745 33.1047 4.79467 33.1875L4.79521 33.187ZM4.51917 33.1036C4.57167 33.0598 4.5982 32.997 4.5982 32.9158C4.5982 32.8568 4.57817 32.8124 4.53758 32.7826C4.49752 32.7529 4.44015 32.7383 4.36546 32.7383H4.13814L4.051 33.1696H4.29618C4.39198 33.1696 4.46613 33.148 4.51863 33.1041L4.51917 33.1036Z" fill="#D2FF00"/>
<path d="M6.03115 32.7335L5.96566 33.062H6.54263L6.49446 33.2926H5.92128L5.83089 33.7451H5.54187L5.7903 32.5029H6.72881L6.68064 32.7335H6.03115Z" fill="#D2FF00"/>
<path d="M7.57171 33.6992C7.48024 33.6543 7.41096 33.591 7.36225 33.5093C7.31354 33.4275 7.28918 33.3334 7.28918 33.2267C7.28918 33.086 7.32166 32.9594 7.38607 32.8462C7.45048 32.7331 7.54086 32.6444 7.65777 32.5789C7.77468 32.5139 7.90783 32.4814 8.05829 32.4814C8.18278 32.4814 8.28994 32.5042 8.38087 32.5491C8.47234 32.594 8.54216 32.6573 8.59033 32.7391C8.6385 32.8208 8.66286 32.915 8.66286 33.0216C8.66286 33.1623 8.63093 33.289 8.56598 33.4021C8.50157 33.5152 8.41118 33.604 8.29427 33.6689C8.17791 33.7339 8.04422 33.7664 7.89429 33.7664C7.76981 33.7664 7.6621 33.7442 7.57117 33.6992H7.57171ZM8.15896 33.4562C8.2277 33.4124 8.2802 33.3539 8.317 33.2803C8.35381 33.2067 8.37167 33.1261 8.37167 33.0373C8.37167 32.9426 8.34244 32.8674 8.28291 32.8111C8.22391 32.7548 8.14056 32.7266 8.03285 32.7266C7.94138 32.7266 7.86182 32.7483 7.79308 32.7921C7.72434 32.836 7.67184 32.8944 7.63504 32.968C7.59823 33.0416 7.58037 33.1223 7.58037 33.211C7.58037 33.3058 7.61014 33.381 7.66914 33.4373C7.72813 33.493 7.81148 33.5217 7.91919 33.5217C8.01066 33.5217 8.09022 33.5001 8.15896 33.4562Z" fill="#D2FF00"/>
<path d="M10.4842 33.187C10.4214 33.2698 10.3342 33.3282 10.2233 33.3629L10.4398 33.7461H10.1362L9.94077 33.3986H9.69558L9.6263 33.7461H9.33728L9.58571 32.5039H10.0918C10.2455 32.5039 10.3651 32.5375 10.4501 32.6051C10.5356 32.6722 10.5778 32.7669 10.5778 32.8893C10.5778 33.0116 10.5464 33.1047 10.4836 33.1875L10.4842 33.187ZM10.2081 33.1036C10.2606 33.0598 10.2872 32.997 10.2872 32.9158C10.2872 32.8568 10.2671 32.8124 10.2265 32.7826C10.1865 32.7529 10.1291 32.7383 10.0544 32.7383H9.8271L9.73996 33.1696H9.98515C10.0809 33.1696 10.1551 33.148 10.2076 33.1041L10.2081 33.1036Z" fill="#D2FF00"/>
<path d="M12.8783 32.5029L12.6315 33.7451H12.3614L12.507 33.0068L12.0329 33.6136H11.9052L11.6497 32.9998L11.5003 33.7451H11.2308L11.4792 32.5029H11.713L12.0237 33.2769L12.631 32.5029H12.8778H12.8783Z" fill="#D2FF00"/>
<path d="M14.3973 33.4798H13.8187L13.6574 33.7461H13.3505L14.1543 32.5039H14.4384L14.7437 33.7461H14.4563L14.3978 33.4798H14.3973ZM14.3491 33.2616L14.2441 32.7826L13.9513 33.2616H14.3491Z" fill="#D2FF00"/>
<path d="M16.8496 32.5029L16.6012 33.7451H16.3652L15.9019 32.9679L15.746 33.7451H15.4619L15.7103 32.5029H15.9479L16.4112 33.2818L16.5654 32.5029H16.8496Z" fill="#D2FF00"/>
<path d="M17.8114 33.6992C17.7183 33.6543 17.6474 33.591 17.5976 33.5093C17.5478 33.4275 17.5229 33.3334 17.5229 33.2267C17.5229 33.086 17.5554 32.9594 17.6198 32.8462C17.6842 32.7331 17.7752 32.6444 17.8926 32.5789C18.0095 32.5139 18.1438 32.4814 18.2953 32.4814C18.4063 32.4814 18.5048 32.5004 18.5903 32.5383C18.6753 32.5762 18.7397 32.6308 18.7835 32.7017L18.5762 32.8722C18.5102 32.7753 18.41 32.7266 18.2764 32.7266C18.1849 32.7266 18.1048 32.7477 18.035 32.7905C17.9651 32.8333 17.911 32.8912 17.8726 32.9642C17.8342 33.0378 17.8147 33.119 17.8147 33.2089C17.8147 33.3047 17.845 33.381 17.9061 33.4373C17.9668 33.493 18.0528 33.5217 18.1622 33.5217C18.2937 33.5217 18.4036 33.4735 18.4923 33.3777L18.6628 33.5515C18.5399 33.6949 18.3646 33.7664 18.1378 33.7664C18.0133 33.7664 17.9051 33.7442 17.812 33.6992H17.8114Z" fill="#D2FF00"/>
<path d="M19.8613 32.7335L19.8083 33.0036H20.3852L20.3409 33.2271H19.7623L19.7054 33.5145H20.3836L20.3354 33.7451H19.3737L19.6221 32.5029H20.5606L20.5124 32.7335H19.8613Z" fill="#D2FF00"/>
<path d="M49.8929 35.0132H41.3761L40.2693 39.1876L35.0405 16.7607L29.0006 27.163H17.5332C17.5646 27.2735 17.5809 27.3904 17.5809 27.5128C17.5809 27.6076 17.5722 27.6996 17.5565 27.789H29.3423L34.8012 18.3885L40.2693 41.9146L41.9008 35.6262V35.6251H50.0483L49.8929 35.0132Z" fill="#D2FF00"/>
</svg>
